<svg xmlns="http://www.w3.org/2000/svg" width="360" height="280" viewBox="0 0 360 280" role="img" aria-labelledby="title desc">
  <title id="title">GridWorld  (0,0) </title>
  <desc id="desc">4×4 GridWorld ， (0,0)  (0,1)， -1， (3,3)。</desc>
  <defs>
    <marker id="arrow" viewBox="0 0 10 10" refX="9" refY="5" markerWidth="7" markerHeight="7" orient="auto">
      <path d="M0 0 10 5 0 10Z" fill="#dc2626"/>
    </marker>
  </defs>

  <rect width="360" height="280" rx="10" fill="#fbfcfe"/>

  <g transform="translate(64 24)" font-family="Arial, 'Noto Sans SC', sans-serif">
    <rect x="0" y="0" width="232" height="232" fill="#ffffff" stroke="#334155" stroke-width="1.6"/>
    <g stroke="#cbd5e1" stroke-width="1">
      <line x1="58" y1="0" x2="58" y2="232"/>
      <line x1="116" y1="0" x2="116" y2="232"/>
      <line x1="174" y1="0" x2="174" y2="232"/>
      <line x1="0" y1="58" x2="232" y2="58"/>
      <line x1="0" y1="116" x2="232" y2="116"/>
      <line x1="0" y1="174" x2="232" y2="174"/>
    </g>

    <rect x="0" y="0" width="58" height="58" fill="#fff4d6" stroke="#d9480f" stroke-width="2"/>
    <text x="29" y="22" text-anchor="middle" font-size="12" font-weight="700" fill="#9a3412">(0,0)</text>
    <text x="29" y="42" text-anchor="middle" font-size="13" font-weight="700" fill="#9a3412">S</text>

    <rect x="58" y="0" width="58" height="58" fill="#eaf2ff" stroke="#2563eb" stroke-width="2"/>
    <text x="87" y="22" text-anchor="middle" font-size="12" font-weight="700" fill="#1d4ed8">(0,1)</text>
    <text x="87" y="42" text-anchor="middle" font-size="13" font-weight="700" fill="#1d4ed8">S'</text>

    <line x1="45" y1="29" x2="71" y2="29" stroke="#dc2626" stroke-width="2.6" marker-end="url(#arrow)"/>
    <text x="58" y="82" text-anchor="middle" font-size="12" font-weight="700" fill="#dc2626">r = -1</text>

    <rect x="174" y="174" width="58" height="58" fill="#dcfce7" stroke="#16a34a" stroke-width="2"/>
    <text x="203" y="200" text-anchor="middle" font-size="12" font-weight="700" fill="#166534">(3,3)</text>
    <text x="203" y="220" text-anchor="middle" font-size="16" font-weight="700" fill="#166534">G</text>

    <g fill="#94a3b8" font-size="9" text-anchor="middle">
      <text x="145" y="32">(0,2)</text>
      <text x="203" y="32">(0,3)</text>
      <text x="29" y="90">(1,0)</text>
      <text x="87" y="90">(1,1)</text>
      <text x="145" y="90">(1,2)</text>
      <text x="203" y="90">(1,3)</text>
      <text x="29" y="148">(2,0)</text>
      <text x="87" y="148">(2,1)</text>
      <text x="145" y="148">(2,2)</text>
      <text x="203" y="148">(2,3)</text>
      <text x="29" y="206">(3,0)</text>
      <text x="87" y="206">(3,1)</text>
      <text x="145" y="206">(3,2)</text>
    </g>
  </g>
</svg>
