<?xml version="1.0" encoding="utf-8" standalone="no"?>
<!DOCTYPE svg PUBLIC "-//W3C//DTD SVG 1.1//EN"
  "http://www.w3.org/Graphics/SVG/1.1/DTD/svg11.dtd">
<svg xmlns:xlink="http://www.w3.org/1999/xlink" width="349.717188pt" height="241.675156pt" viewBox="0 0 349.717188 241.675156" xmlns="http://www.w3.org/2000/svg" version="1.1">
 <metadata>
  <rdf:RDF xmlns:dc="http://purl.org/dc/elements/1.1/" xmlns:cc="http://creativecommons.org/ns#" xmlns:rdf="http://www.w3.org/1999/02/22-rdf-syntax-ns#">
   <cc:Work>
    <dc:type rdf:resource="http://purl.org/dc/dcmitype/StillImage"/>
    <dc:date>2026-04-17T11:23:10.471427</dc:date>
    <dc:format>image/svg+xml</dc:format>
    <dc:creator>
     <cc:Agent>
      <dc:title>Matplotlib v3.10.8, https://matplotlib.org/</dc:title>
     </cc:Agent>
    </dc:creator>
   </cc:Work>
  </rdf:RDF>
 </metadata>
 <defs>
  <style type="text/css">*{stroke-linejoin: round; stroke-linecap: butt}</style>
 </defs>
 <g id="figure_1">
  <g id="patch_1">
   <path d="M 0 241.675156 
L 349.717188 241.675156 
L 349.717188 0 
L 0 0 
z
" style="fill: #ffffff"/>
  </g>
  <g id="axes_1">
   <g id="patch_2">
    <path d="M 50.037188 202.178594 
L 342.517187 202.178594 
L 342.517187 22.663594 
L 50.037188 22.663594 
z
" style="fill: #ffffff"/>
   </g>
   <g id="matplotlib.axis_1">
    <g id="xtick_1">
     <g id="line2d_1">
      <defs>
       <path id="mb7b30f47d6" d="M 0 0 
L 0 3.5 
" style="stroke: #000000; stroke-width: 0.8"/>
      </defs>
      <g>
       <use xlink:href="#mb7b30f47d6" x="63.331733" y="202.178594" style="stroke: #000000; stroke-width: 0.8"/>
      </g>
     </g>
     <g id="text_1">
      <!-- 0 -->
      <g transform="translate(60.031733 217.18625) scale(0.11 -0.11)">
       <defs>
        <path id="PingFangHK-Regular-30" d="M 1920 4659 
C 1370 4659 960 4422 685 3936 
C 442 3526 320 2976 320 2285 
C 320 1594 442 1043 685 634 
C 960 154 1370 -90 1920 -90 
C 2464 -90 2874 154 3155 634 
C 3398 1043 3520 1594 3520 2285 
C 3520 2976 3398 3526 3155 3936 
C 2874 4422 2464 4659 1920 4659 
z
M 1920 4211 
C 2330 4211 2624 3994 2803 3552 
C 2931 3245 3002 2822 3002 2285 
C 3002 1754 2931 1331 2803 1018 
C 2624 582 2330 358 1920 358 
C 1510 358 1216 582 1037 1018 
C 909 1331 845 1754 845 2285 
C 845 2822 909 3245 1037 3552 
C 1216 3994 1510 4211 1920 4211 
z
" transform="scale(0.015625)"/>
       </defs>
       <use xlink:href="#PingFangHK-Regular-30"/>
      </g>
     </g>
    </g>
    <g id="xtick_2">
     <g id="line2d_2">
      <g>
       <use xlink:href="#mb7b30f47d6" x="130.138494" y="202.178594" style="stroke: #000000; stroke-width: 0.8"/>
      </g>
     </g>
     <g id="text_2">
      <!-- 50 -->
      <g transform="translate(123.538494 217.18625) scale(0.11 -0.11)">
       <defs>
        <path id="PingFangHK-Regular-35" d="M 672 4570 
L 429 2048 
L 928 2048 
C 1018 2227 1158 2368 1338 2458 
C 1510 2554 1702 2598 1920 2598 
C 2253 2598 2515 2502 2701 2298 
C 2893 2099 2995 1818 2995 1453 
C 2995 1133 2886 870 2682 666 
C 2470 461 2208 358 1888 358 
C 1606 358 1370 429 1190 563 
C 986 717 870 941 845 1229 
L 326 1229 
C 358 813 531 480 851 237 
C 1133 19 1478 -90 1882 -90 
C 2330 -90 2714 51 3021 326 
C 3347 621 3514 998 3514 1459 
C 3514 1952 3373 2336 3104 2618 
C 2835 2893 2483 3027 2048 3027 
C 1837 3027 1645 2995 1466 2918 
C 1267 2842 1101 2726 973 2573 
L 947 2573 
L 1101 4102 
L 3328 4102 
L 3328 4570 
L 672 4570 
z
" transform="scale(0.015625)"/>
       </defs>
       <use xlink:href="#PingFangHK-Regular-35"/>
       <use xlink:href="#PingFangHK-Regular-30" transform="translate(59.999985 0)"/>
      </g>
     </g>
    </g>
    <g id="xtick_3">
     <g id="line2d_3">
      <g>
       <use xlink:href="#mb7b30f47d6" x="196.945255" y="202.178594" style="stroke: #000000; stroke-width: 0.8"/>
      </g>
     </g>
     <g id="text_3">
      <!-- 100 -->
      <g transform="translate(188.140099 217.18625) scale(0.11 -0.11)">
       <defs>
        <path id="PingFangHK-Regular-31" d="M 1472 4570 
C 1318 4397 1139 4243 922 4102 
C 704 3974 486 3885 282 3827 
L 282 3302 
C 710 3430 1069 3635 1357 3930 
L 1357 0 
L 1882 0 
L 1882 4570 
L 1472 4570 
z
" transform="scale(0.015625)"/>
       </defs>
       <use xlink:href="#PingFangHK-Regular-31"/>
       <use xlink:href="#PingFangHK-Regular-30" transform="translate(40.099991 0)"/>
       <use xlink:href="#PingFangHK-Regular-30" transform="translate(100.099976 0)"/>
      </g>
     </g>
    </g>
    <g id="xtick_4">
     <g id="line2d_4">
      <g>
       <use xlink:href="#mb7b30f47d6" x="263.752016" y="202.178594" style="stroke: #000000; stroke-width: 0.8"/>
      </g>
     </g>
     <g id="text_4">
      <!-- 150 -->
      <g transform="translate(254.94686 217.18625) scale(0.11 -0.11)">
       <use xlink:href="#PingFangHK-Regular-31"/>
       <use xlink:href="#PingFangHK-Regular-35" transform="translate(40.099991 0)"/>
       <use xlink:href="#PingFangHK-Regular-30" transform="translate(100.099976 0)"/>
      </g>
     </g>
    </g>
    <g id="xtick_5">
     <g id="line2d_5">
      <g>
       <use xlink:href="#mb7b30f47d6" x="330.558777" y="202.178594" style="stroke: #000000; stroke-width: 0.8"/>
      </g>
     </g>
     <g id="text_5">
      <!-- 200 -->
      <g transform="translate(320.658777 217.18625) scale(0.11 -0.11)">
       <defs>
        <path id="PingFangHK-Regular-32" d="M 1984 4659 
C 1523 4659 1146 4506 864 4198 
C 582 3898 435 3488 435 2976 
L 960 2976 
C 966 3379 1062 3686 1242 3891 
C 1408 4109 1651 4211 1965 4211 
C 2259 4211 2496 4134 2662 3981 
C 2829 3827 2912 3616 2912 3334 
C 2912 3040 2790 2765 2560 2515 
C 2438 2387 2202 2202 1843 1946 
C 1357 1613 1030 1338 851 1133 
C 544 794 397 416 397 0 
L 3443 0 
L 3443 467 
L 1043 467 
C 1126 774 1459 1126 2042 1517 
C 2515 1837 2829 2086 2989 2253 
C 3283 2573 3437 2931 3437 3328 
C 3437 3725 3296 4051 3027 4294 
C 2752 4538 2406 4659 1984 4659 
z
" transform="scale(0.015625)"/>
       </defs>
       <use xlink:href="#PingFangHK-Regular-32"/>
       <use xlink:href="#PingFangHK-Regular-30" transform="translate(59.999985 0)"/>
       <use xlink:href="#PingFangHK-Regular-30" transform="translate(119.999969 0)"/>
      </g>
     </g>
    </g>
    <g id="text_6">
     <!-- 训练回合 -->
     <g transform="translate(172.277187 232.099531) scale(0.12 -0.12)">
      <defs>
       <path id="PingFangHK-Regular-8bad" d="M 4083 4787 
L 4083 -218 
L 4525 -218 
L 4525 4787 
L 4083 4787 
z
M 5421 5101 
L 5421 -653 
L 5875 -653 
L 5875 5101 
L 5421 5101 
z
M 2810 5082 
L 2810 2266 
C 2797 1056 2541 179 2029 -371 
L 2374 -678 
C 2944 -58 3238 922 3251 2266 
L 3251 5082 
L 2810 5082 
z
M 1037 5165 
L 717 4851 
C 1178 4506 1549 4173 1818 3859 
L 2131 4179 
C 1837 4512 1472 4838 1037 5165 
z
M 288 3270 
L 288 2829 
L 1229 2829 
L 1229 339 
C 1229 230 1178 134 1088 51 
L 1267 -358 
C 1651 -77 2010 243 2349 602 
L 2227 1082 
C 2035 877 1850 691 1670 525 
L 1670 3270 
L 288 3270 
z
" transform="scale(0.015625)"/>
       <path id="PingFangHK-Regular-7ec3" d="M 2310 659 
C 1734 416 1050 218 269 77 
L 326 -384 
C 1069 -230 1734 -38 2310 205 
L 2310 659 
z
M 1344 5216 
C 1114 4461 845 3795 525 3213 
C 467 3130 403 3072 326 3034 
L 442 2611 
C 774 2669 1101 2733 1427 2797 
C 1107 2195 832 1773 608 1517 
C 550 1466 480 1421 403 1382 
L 525 954 
C 1114 1043 1722 1203 2362 1446 
L 2362 1862 
C 1933 1702 1504 1574 1075 1485 
C 1421 1939 1869 2701 2406 3770 
L 1984 3930 
C 1869 3680 1754 3443 1638 3213 
C 1382 3162 1126 3117 870 3078 
C 1178 3571 1478 4224 1786 5043 
L 1344 5216 
z
M 3085 1363 
C 2899 838 2630 326 2278 -179 
L 2675 -403 
C 2982 38 3251 570 3488 1197 
L 3085 1363 
z
M 5485 1370 
L 5075 1235 
C 5331 762 5568 218 5779 -397 
L 6170 -224 
C 5978 339 5747 870 5485 1370 
z
M 4058 -582 
C 4422 -582 4608 -410 4608 -70 
L 4608 1734 
L 5971 1734 
L 5971 2144 
L 4608 2144 
L 4608 3386 
L 3750 3386 
C 3827 3603 3904 3840 3981 4083 
L 5971 4083 
L 5971 4512 
L 4109 4512 
C 4166 4717 4224 4928 4282 5152 
L 3834 5235 
C 3770 4986 3712 4742 3648 4512 
L 2227 4512 
L 2227 4083 
L 3520 4083 
C 3443 3840 3366 3610 3290 3386 
L 2458 3386 
L 2458 2970 
L 3123 2970 
C 2989 2662 2848 2381 2707 2131 
L 2810 1734 
L 4166 1734 
L 4166 70 
C 4166 -96 4083 -179 3923 -179 
L 3309 -160 
L 3424 -582 
L 4058 -582 
z
M 3590 2970 
L 4166 2970 
L 4166 2144 
L 3219 2144 
C 3347 2400 3469 2675 3590 2970 
z
" transform="scale(0.015625)"/>
       <path id="PingFangHK-Regular-56de" d="M 1971 3443 
L 1971 1165 
L 4442 1165 
L 4442 3443 
L 1971 3443 
z
M 4006 1555 
L 2400 1555 
L 2400 3046 
L 4006 3046 
L 4006 1555 
z
M 5766 4845 
L 634 4845 
L 634 -538 
L 1082 -538 
L 1082 -262 
L 5318 -262 
L 5318 -538 
L 5766 -538 
L 5766 4845 
z
M 1082 147 
L 1082 4435 
L 5318 4435 
L 5318 147 
L 1082 147 
z
" transform="scale(0.015625)"/>
       <path id="PingFangHK-Regular-5408" d="M 3034 5235 
C 2278 4346 1338 3603 198 3002 
L 442 2560 
C 1581 3200 2502 3949 3200 4819 
C 3955 3898 4864 3149 5933 2573 
L 6182 3014 
C 5120 3552 4179 4294 3366 5235 
L 3034 5235 
z
M 5222 1946 
L 1178 1946 
L 1178 -634 
L 1626 -634 
L 1626 -250 
L 4774 -250 
L 4774 -634 
L 5222 -634 
L 5222 1946 
z
M 1626 192 
L 1626 1510 
L 4774 1510 
L 4774 192 
L 1626 192 
z
M 1536 3200 
L 1536 2758 
L 4864 2758 
L 4864 3200 
L 1536 3200 
z
" transform="scale(0.015625)"/>
      </defs>
      <use xlink:href="#PingFangHK-Regular-8bad"/>
      <use xlink:href="#PingFangHK-Regular-7ec3" transform="translate(99.999985 0)"/>
      <use xlink:href="#PingFangHK-Regular-56de" transform="translate(199.999969 0)"/>
      <use xlink:href="#PingFangHK-Regular-5408" transform="translate(299.999954 0)"/>
     </g>
    </g>
   </g>
   <g id="matplotlib.axis_2">
    <g id="ytick_1">
     <g id="line2d_6">
      <defs>
       <path id="m7c5f27ac01" d="M 0 0 
L -3.5 0 
" style="stroke: #000000; stroke-width: 0.8"/>
      </defs>
      <g>
       <use xlink:href="#m7c5f27ac01" x="50.037188" y="195.879822" style="stroke: #000000; stroke-width: 0.8"/>
      </g>
     </g>
     <g id="text_7">
      <!-- 0 -->
      <g transform="translate(36.437188 199.88365) scale(0.11 -0.11)">
       <use xlink:href="#PingFangHK-Regular-30"/>
      </g>
     </g>
    </g>
    <g id="ytick_2">
     <g id="line2d_7">
      <g>
       <use xlink:href="#m7c5f27ac01" x="50.037188" y="164.385962" style="stroke: #000000; stroke-width: 0.8"/>
      </g>
     </g>
     <g id="text_8">
      <!-- 100 -->
      <g transform="translate(25.426875 168.38979) scale(0.11 -0.11)">
       <use xlink:href="#PingFangHK-Regular-31"/>
       <use xlink:href="#PingFangHK-Regular-30" transform="translate(40.099991 0)"/>
       <use xlink:href="#PingFangHK-Regular-30" transform="translate(100.099976 0)"/>
      </g>
     </g>
    </g>
    <g id="ytick_3">
     <g id="line2d_8">
      <g>
       <use xlink:href="#m7c5f27ac01" x="50.037188" y="132.892103" style="stroke: #000000; stroke-width: 0.8"/>
      </g>
     </g>
     <g id="text_9">
      <!-- 200 -->
      <g transform="translate(23.237188 136.895931) scale(0.11 -0.11)">
       <use xlink:href="#PingFangHK-Regular-32"/>
       <use xlink:href="#PingFangHK-Regular-30" transform="translate(59.999985 0)"/>
       <use xlink:href="#PingFangHK-Regular-30" transform="translate(119.999969 0)"/>
      </g>
     </g>
    </g>
    <g id="ytick_4">
     <g id="line2d_9">
      <g>
       <use xlink:href="#m7c5f27ac01" x="50.037188" y="101.398243" style="stroke: #000000; stroke-width: 0.8"/>
      </g>
     </g>
     <g id="text_10">
      <!-- 300 -->
      <g transform="translate(23.237188 105.402071) scale(0.11 -0.11)">
       <defs>
        <path id="PingFangHK-Regular-33" d="M 1965 4659 
C 1530 4659 1178 4538 909 4288 
C 627 4038 461 3693 422 3251 
L 941 3251 
C 973 3558 1075 3795 1254 3962 
C 1427 4128 1664 4205 1971 4205 
C 2266 4205 2502 4134 2669 3981 
C 2822 3840 2906 3642 2906 3386 
C 2906 3130 2822 2931 2662 2790 
C 2502 2656 2272 2586 1965 2586 
L 1613 2586 
L 1613 2176 
L 1984 2176 
C 2304 2176 2547 2106 2726 1952 
C 2906 1798 2995 1587 2995 1312 
C 2995 1043 2899 819 2720 640 
C 2522 454 2259 358 1933 358 
C 1645 358 1408 442 1216 595 
C 992 781 870 1056 858 1414 
L 326 1414 
C 365 902 544 512 870 243 
C 1146 26 1498 -90 1933 -90 
C 2406 -90 2790 45 3085 314 
C 3373 576 3520 915 3520 1331 
C 3520 1600 3443 1824 3290 2003 
C 3149 2182 2944 2310 2675 2394 
C 3174 2560 3424 2906 3424 3418 
C 3424 3802 3290 4102 3027 4326 
C 2758 4550 2400 4659 1965 4659 
z
" transform="scale(0.015625)"/>
       </defs>
       <use xlink:href="#PingFangHK-Regular-33"/>
       <use xlink:href="#PingFangHK-Regular-30" transform="translate(59.999985 0)"/>
       <use xlink:href="#PingFangHK-Regular-30" transform="translate(119.999969 0)"/>
      </g>
     </g>
    </g>
    <g id="ytick_5">
     <g id="line2d_10">
      <g>
       <use xlink:href="#m7c5f27ac01" x="50.037188" y="69.904383" style="stroke: #000000; stroke-width: 0.8"/>
      </g>
     </g>
     <g id="text_11">
      <!-- 400 -->
      <g transform="translate(23.237188 73.908211) scale(0.11 -0.11)">
       <defs>
        <path id="PingFangHK-Regular-34" d="M 2458 4570 
L 154 1536 
L 154 1037 
L 2451 1037 
L 2451 0 
L 2950 0 
L 2950 1037 
L 3693 1037 
L 3693 1466 
L 2950 1466 
L 2950 4570 
L 2458 4570 
z
M 2432 3885 
L 2451 3885 
L 2451 1466 
L 595 1466 
L 2432 3885 
z
" transform="scale(0.015625)"/>
       </defs>
       <use xlink:href="#PingFangHK-Regular-34"/>
       <use xlink:href="#PingFangHK-Regular-30" transform="translate(59.999985 0)"/>
       <use xlink:href="#PingFangHK-Regular-30" transform="translate(119.999969 0)"/>
      </g>
     </g>
    </g>
    <g id="ytick_6">
     <g id="line2d_11">
      <g>
       <use xlink:href="#m7c5f27ac01" x="50.037188" y="38.410524" style="stroke: #000000; stroke-width: 0.8"/>
      </g>
     </g>
     <g id="text_12">
      <!-- 500 -->
      <g transform="translate(23.237188 42.414352) scale(0.11 -0.11)">
       <use xlink:href="#PingFangHK-Regular-35"/>
       <use xlink:href="#PingFangHK-Regular-30" transform="translate(59.999985 0)"/>
       <use xlink:href="#PingFangHK-Regular-30" transform="translate(119.999969 0)"/>
      </g>
     </g>
    </g>
    <g id="text_13">
     <!-- Episode Reward -->
     <g style="fill: #16a34a" transform="translate(16.663594 161.429063) rotate(-90) scale(0.13 -0.13)">
      <defs>
       <path id="PingFangHK-Regular-45" d="M 461 4570 
L 461 0 
L 3808 0 
L 3808 454 
L 986 454 
L 986 2131 
L 3546 2131 
L 3546 2586 
L 986 2586 
L 986 4115 
L 3699 4115 
L 3699 4570 
L 461 4570 
z
" transform="scale(0.015625)"/>
       <path id="PingFangHK-Regular-70" d="M 1978 3398 
C 1478 3398 1114 3187 877 2765 
L 877 3309 
L 397 3309 
L 397 -1267 
L 909 -1267 
L 909 602 
C 1165 141 1530 -90 2003 -90 
C 2477 -90 2842 90 3110 435 
C 3354 755 3482 1158 3482 1645 
C 3482 2144 3354 2547 3104 2867 
C 2829 3226 2451 3398 1978 3398 
z
M 1914 2976 
C 2266 2976 2534 2848 2720 2579 
C 2874 2349 2957 2035 2957 1645 
C 2957 1248 2874 934 2707 704 
C 2522 461 2253 333 1894 333 
C 1587 333 1350 454 1171 685 
C 979 922 890 1229 890 1613 
L 890 1677 
C 890 2048 973 2355 1139 2586 
C 1318 2848 1581 2976 1914 2976 
z
" transform="scale(0.015625)"/>
       <path id="PingFangHK-Regular-69" d="M 819 4557 
C 710 4557 621 4525 544 4448 
C 467 4384 435 4294 435 4179 
C 435 4070 467 3981 544 3904 
C 621 3834 710 3795 819 3795 
C 928 3795 1018 3834 1094 3904 
C 1171 3981 1210 4070 1210 4179 
C 1210 4294 1171 4384 1094 4448 
C 1018 4525 928 4557 819 4557 
z
M 563 3309 
L 563 0 
L 1075 0 
L 1075 3309 
L 563 3309 
z
" transform="scale(0.015625)"/>
       <path id="PingFangHK-Regular-73" d="M 1568 3398 
C 1197 3398 890 3315 659 3149 
C 410 2982 288 2765 288 2483 
C 288 2202 410 1990 666 1837 
C 819 1734 1094 1638 1485 1542 
C 1843 1453 2080 1382 2189 1331 
C 2394 1229 2502 1088 2502 902 
C 2502 531 2202 339 1613 339 
C 1331 339 1120 390 979 493 
C 838 608 742 794 704 1056 
L 205 1056 
C 282 294 755 -90 1626 -90 
C 2560 -90 3027 256 3027 934 
C 3027 1222 2893 1446 2630 1613 
C 2458 1722 2176 1824 1779 1920 
C 1446 2010 1216 2080 1094 2138 
C 902 2234 813 2355 813 2496 
C 813 2643 883 2758 1024 2842 
C 1152 2931 1331 2970 1562 2970 
C 1824 2970 2029 2918 2170 2816 
C 2298 2726 2381 2573 2426 2368 
L 2925 2368 
C 2835 3059 2387 3398 1568 3398 
z
" transform="scale(0.015625)"/>
       <path id="PingFangHK-Regular-6f" d="M 1875 3398 
C 1376 3398 986 3232 691 2886 
C 410 2560 269 2150 269 1651 
C 269 1158 410 749 691 429 
C 986 83 1376 -90 1875 -90 
C 2368 -90 2765 83 3066 429 
C 3341 749 3482 1158 3482 1651 
C 3482 2150 3341 2560 3059 2886 
C 2765 3232 2368 3398 1875 3398 
z
M 1875 2970 
C 2221 2970 2496 2835 2701 2566 
C 2874 2323 2963 2022 2963 1651 
C 2963 1293 2874 986 2701 742 
C 2496 474 2221 339 1875 339 
C 1523 339 1248 474 1056 742 
C 877 986 794 1286 794 1651 
C 794 2022 877 2323 1056 2566 
C 1248 2835 1523 2970 1875 2970 
z
" transform="scale(0.015625)"/>
       <path id="PingFangHK-Regular-64" d="M 2842 4659 
L 2842 2701 
C 2586 3168 2221 3398 1747 3398 
C 1274 3398 909 3226 640 2867 
C 390 2547 269 2150 269 1664 
C 269 1165 390 755 640 435 
C 909 90 1286 -90 1773 -90 
C 2272 -90 2643 122 2874 544 
L 2874 0 
L 3354 0 
L 3354 4659 
L 2842 4659 
z
M 1856 2976 
C 2150 2976 2394 2861 2579 2618 
C 2758 2381 2854 2067 2854 1683 
L 2854 1619 
C 2854 1248 2771 947 2611 717 
C 2426 461 2170 333 1837 333 
C 1478 333 1210 467 1030 723 
C 870 954 794 1267 794 1664 
C 794 2061 870 2368 1037 2592 
C 1216 2848 1491 2976 1856 2976 
z
" transform="scale(0.015625)"/>
       <path id="PingFangHK-Regular-65" d="M 1760 3398 
C 1280 3398 902 3226 621 2880 
C 339 2554 205 2144 205 1658 
C 205 1120 346 698 640 378 
C 922 70 1306 -90 1779 -90 
C 2208 -90 2560 38 2835 282 
C 3059 486 3206 742 3283 1062 
L 2771 1062 
C 2688 832 2579 659 2438 544 
C 2272 410 2048 339 1779 339 
C 1466 339 1216 442 1037 646 
C 858 851 762 1139 736 1510 
L 3347 1510 
C 3334 2086 3206 2541 2963 2861 
C 2694 3219 2291 3398 1760 3398 
z
M 1773 2970 
C 2400 2970 2752 2618 2816 1907 
L 749 1907 
C 781 2234 883 2490 1062 2682 
C 1242 2874 1478 2970 1773 2970 
z
" transform="scale(0.015625)"/>
       <path id="PingFangHK-Regular-20" transform="scale(0.015625)"/>
       <path id="PingFangHK-Regular-52" d="M 461 4570 
L 461 0 
L 986 0 
L 986 1965 
L 2368 1965 
C 2656 1965 2874 1914 3027 1798 
C 3194 1683 3290 1485 3315 1216 
L 3373 608 
C 3392 352 3456 154 3558 0 
L 4128 0 
C 3994 166 3910 390 3885 672 
L 3814 1376 
C 3763 1837 3520 2112 3085 2208 
L 3085 2221 
C 3347 2285 3552 2413 3706 2618 
C 3846 2816 3917 3040 3917 3296 
C 3917 3718 3776 4038 3507 4256 
C 3245 4467 2886 4570 2432 4570 
L 461 4570 
z
M 986 4115 
L 2368 4115 
C 2720 4115 2982 4045 3149 3904 
C 3302 3770 3386 3558 3386 3277 
C 3386 3008 3302 2803 3142 2656 
C 2963 2502 2701 2419 2368 2419 
L 986 2419 
L 986 4115 
z
" transform="scale(0.015625)"/>
       <path id="PingFangHK-Regular-77" d="M 32 3309 
L 1158 0 
L 1638 0 
L 2419 2662 
L 3187 0 
L 3674 0 
L 4800 3309 
L 4237 3309 
L 3424 627 
L 2656 3309 
L 2176 3309 
L 1408 627 
L 595 3309 
L 32 3309 
z
" transform="scale(0.015625)"/>
       <path id="PingFangHK-Regular-61" d="M 1837 3398 
C 1440 3398 1126 3322 883 3168 
C 614 3002 442 2739 371 2394 
L 877 2355 
C 928 2566 1037 2726 1210 2829 
C 1363 2931 1562 2976 1805 2976 
C 2381 2976 2669 2701 2669 2144 
L 2669 1971 
L 1875 1958 
C 1376 1952 992 1856 723 1677 
C 416 1485 269 1203 269 826 
C 269 557 371 333 576 160 
C 774 -6 1037 -90 1370 -90 
C 1677 -90 1952 -19 2195 115 
C 2400 230 2573 378 2701 557 
L 2701 0 
L 3181 0 
L 3181 2125 
C 3181 2509 3078 2810 2886 3027 
C 2656 3277 2310 3398 1837 3398 
z
M 2669 1587 
L 2669 1306 
C 2669 1050 2547 819 2310 621 
C 2067 416 1792 314 1478 314 
C 1274 314 1107 365 979 461 
C 851 563 794 685 794 838 
C 794 1318 1165 1562 1907 1574 
L 2669 1587 
z
" transform="scale(0.015625)"/>
       <path id="PingFangHK-Regular-72" d="M 1850 3398 
C 1619 3398 1421 3328 1248 3187 
C 1107 3078 992 2925 902 2733 
L 902 3309 
L 397 3309 
L 397 0 
L 902 0 
L 902 1754 
C 902 2061 986 2323 1165 2541 
C 1338 2771 1555 2880 1811 2880 
C 1971 2880 2138 2861 2304 2810 
L 2304 3322 
C 2182 3373 2029 3398 1850 3398 
z
" transform="scale(0.015625)"/>
      </defs>
      <use xlink:href="#PingFangHK-Regular-45"/>
      <use xlink:href="#PingFangHK-Regular-70" transform="translate(63.699997 0)"/>
      <use xlink:href="#PingFangHK-Regular-69" transform="translate(122.299988 0)"/>
      <use xlink:href="#PingFangHK-Regular-73" transform="translate(147.899979 0)"/>
      <use xlink:href="#PingFangHK-Regular-6f" transform="translate(198.399963 0)"/>
      <use xlink:href="#PingFangHK-Regular-64" transform="translate(256.999954 0)"/>
      <use xlink:href="#PingFangHK-Regular-65" transform="translate(315.599945 0)"/>
      <use xlink:href="#PingFangHK-Regular-20" transform="translate(371.09993 0)"/>
      <use xlink:href="#PingFangHK-Regular-52" transform="translate(404.399918 0)"/>
      <use xlink:href="#PingFangHK-Regular-65" transform="translate(471.999908 0)"/>
      <use xlink:href="#PingFangHK-Regular-77" transform="translate(527.499893 0)"/>
      <use xlink:href="#PingFangHK-Regular-61" transform="translate(602.999878 0)"/>
      <use xlink:href="#PingFangHK-Regular-72" transform="translate(658.899872 0)"/>
      <use xlink:href="#PingFangHK-Regular-64" transform="translate(695.399857 0)"/>
     </g>
    </g>
   </g>
   <g id="line2d_12">
    <path d="M 63.331733 187.601018 
L 64.667868 183.226891 
L 66.004003 180.828943 
L 67.340139 179.937367 
L 68.676274 175.742339 
L 70.012409 175.179945 
L 71.348544 170.925316 
L 72.68468 165.524885 
L 74.020815 163.379795 
L 75.35695 160.592687 
L 76.693085 154.053451 
L 78.02922 153.1607 
L 80.701491 150.192029 
L 82.037626 146.351828 
L 83.373761 144.322258 
L 84.709896 140.913264 
L 86.046032 140.432904 
L 87.382167 133.105011 
L 88.718302 131.355382 
L 90.054437 129.83895 
L 91.390573 124.812151 
L 92.726708 120.271884 
L 94.062843 123.002187 
L 95.398978 121.78308 
L 96.735113 122.728455 
L 98.071249 122.273327 
L 99.407384 120.909186 
L 100.743519 117.893724 
L 102.079654 113.713342 
L 103.41579 110.902186 
L 104.751925 109.948459 
L 106.08806 110.823922 
L 107.424195 109.020244 
L 108.76033 110.969658 
L 110.096466 104.472269 
L 111.432601 100.978343 
L 112.768736 96.728763 
L 114.104871 92.882149 
L 115.441007 89.825818 
L 116.777142 89.82562 
L 118.113277 92.419191 
L 119.449412 93.251398 
L 120.785547 96.108509 
L 122.121683 93.947922 
L 123.457818 90.06076 
L 126.130088 84.193457 
L 127.466224 77.190648 
L 128.802359 76.296088 
L 130.138494 78.579207 
L 131.474629 77.536361 
L 132.810764 75.875772 
L 134.1469 78.356743 
L 135.483035 79.997961 
L 136.81917 78.400193 
L 138.155305 78.003465 
L 139.491441 74.995866 
L 140.827576 74.191634 
L 142.163711 74.058441 
L 143.499846 74.151305 
L 144.835981 70.492999 
L 146.172117 72.163265 
L 147.508252 72.191543 
L 148.844387 70.296499 
L 150.180522 71.039536 
L 151.516658 73.453542 
L 152.852793 73.991068 
L 154.188928 69.532384 
L 155.525063 67.416056 
L 156.861198 64.926499 
L 158.197334 61.540404 
L 159.533469 56.682447 
L 160.869604 58.758794 
L 163.541875 55.616014 
L 164.87801 57.612104 
L 166.214145 62.220941 
L 167.55028 60.310523 
L 168.886415 58.893925 
L 170.222551 58.879162 
L 171.558686 59.524646 
L 172.894821 56.540849 
L 175.567092 59.433254 
L 176.903227 57.588289 
L 178.239362 53.279598 
L 179.575497 51.48202 
L 180.911632 49.263601 
L 182.247768 47.312602 
L 183.583903 48.970723 
L 184.920038 51.105095 
L 186.256173 52.836326 
L 187.592309 53.414198 
L 188.928444 50.55599 
L 190.264579 48.812285 
L 191.600714 48.884699 
L 192.936849 48.228458 
L 194.272985 49.171553 
L 195.60912 51.818674 
L 196.945255 52.256449 
L 198.28139 53.683818 
L 199.617526 51.876039 
L 200.953661 51.120043 
L 202.289796 49.178676 
L 203.625931 49.27104 
L 204.962066 44.023294 
L 206.298202 45.246832 
L 207.634337 44.546385 
L 208.970472 46.070088 
L 210.306607 44.409629 
L 211.642743 45.98483 
L 212.978878 46.973129 
L 214.315013 46.004662 
L 215.651148 46.220375 
L 216.987283 48.342922 
L 218.323419 50.044011 
L 219.659554 45.144323 
L 220.995689 45.846775 
L 222.331824 47.018519 
L 223.66796 45.14908 
L 225.004095 43.736996 
L 226.34023 46.42704 
L 227.676365 44.405227 
L 229.0125 42.131325 
L 230.348636 42.396102 
L 231.684771 40.919482 
L 233.020906 40.193517 
L 234.357041 42.239297 
L 238.365447 45.712749 
L 239.701582 47.715736 
L 241.037717 49.492119 
L 242.373853 48.648554 
L 243.709988 49.801843 
L 245.046123 53.078141 
L 246.382258 50.668201 
L 247.718394 48.780896 
L 249.054529 48.01998 
L 251.726799 45.216011 
L 253.062934 47.652124 
L 254.39907 47.236074 
L 255.735205 48.343248 
L 257.07134 48.702029 
L 258.407475 47.278476 
L 259.743611 47.642198 
L 261.079746 46.713915 
L 262.415881 49.015589 
L 263.752016 47.934156 
L 265.088151 46.305696 
L 266.424287 42.081727 
L 267.760422 39.321423 
L 270.432692 38.410524 
L 273.104963 38.410524 
L 274.441098 40.596982 
L 275.777233 38.410524 
L 277.113368 38.410524 
L 278.449504 39.810546 
L 279.785639 40.537863 
L 281.121774 38.410524 
L 282.457909 38.939869 
L 283.794045 40.88903 
L 285.13018 40.157282 
L 286.466315 42.127507 
L 287.80245 45.108287 
L 289.138585 43.652575 
L 290.474721 44.659254 
L 291.810856 41.417248 
L 293.146991 41.566995 
L 295.819262 39.176452 
L 297.155397 38.410524 
L 298.491532 41.643316 
L 299.827667 39.06935 
L 301.163802 39.5713 
L 302.499938 40.434245 
L 303.836073 40.801305 
L 305.172208 38.410524 
L 306.508343 38.410524 
L 307.844479 39.703764 
L 309.180614 42.42927 
L 310.516749 41.713888 
L 311.852884 44.004119 
L 313.189019 42.360009 
L 314.525155 38.975445 
L 315.86129 38.410524 
L 318.53356 38.410524 
L 319.869695 43.202801 
L 321.205831 40.352822 
L 322.541966 42.152158 
L 323.878101 42.825243 
L 325.214236 40.046939 
L 326.550372 38.410524 
L 327.886507 39.778027 
L 329.222642 38.410524 
L 329.222642 38.410524 
" clip-path="url(#p09e1da437f)" style="fill: none; stroke: #16a34a; stroke-opacity: 0.9; stroke-width: 1.8; stroke-linecap: square"/>
   </g>
   <g id="patch_3">
    <path d="M 50.037188 202.178594 
L 50.037188 22.663594 
" style="fill: none; stroke: #000000; stroke-width: 0.8; stroke-linejoin: miter; stroke-linecap: square"/>
   </g>
   <g id="patch_4">
    <path d="M 50.037188 202.178594 
L 342.517187 202.178594 
" style="fill: none; stroke: #000000; stroke-width: 0.8; stroke-linejoin: miter; stroke-linecap: square"/>
   </g>
   <g id="text_14">
    <!-- Episode Reward -->
    <g transform="translate(147.269219 16.663594) scale(0.13 -0.13)">
     <use xlink:href="#PingFangHK-Regular-45"/>
     <use xlink:href="#PingFangHK-Regular-70" transform="translate(63.699997 0)"/>
     <use xlink:href="#PingFangHK-Regular-69" transform="translate(122.299988 0)"/>
     <use xlink:href="#PingFangHK-Regular-73" transform="translate(147.899979 0)"/>
     <use xlink:href="#PingFangHK-Regular-6f" transform="translate(198.399963 0)"/>
     <use xlink:href="#PingFangHK-Regular-64" transform="translate(256.999954 0)"/>
     <use xlink:href="#PingFangHK-Regular-65" transform="translate(315.599945 0)"/>
     <use xlink:href="#PingFangHK-Regular-20" transform="translate(371.09993 0)"/>
     <use xlink:href="#PingFangHK-Regular-52" transform="translate(404.399918 0)"/>
     <use xlink:href="#PingFangHK-Regular-65" transform="translate(471.999908 0)"/>
     <use xlink:href="#PingFangHK-Regular-77" transform="translate(527.499893 0)"/>
     <use xlink:href="#PingFangHK-Regular-61" transform="translate(602.999878 0)"/>
     <use xlink:href="#PingFangHK-Regular-72" transform="translate(658.899872 0)"/>
     <use xlink:href="#PingFangHK-Regular-64" transform="translate(695.399857 0)"/>
    </g>
   </g>
  </g>
 </g>
 <defs>
  <clipPath id="p09e1da437f">
   <rect x="50.037188" y="22.663594" width="292.48" height="179.515"/>
  </clipPath>
 </defs>
</svg>
