<?xml version="1.0" encoding="utf-8" standalone="no"?>
<!DOCTYPE svg PUBLIC "-//W3C//DTD SVG 1.1//EN"
  "http://www.w3.org/Graphics/SVG/1.1/DTD/svg11.dtd">
<svg xmlns:xlink="http://www.w3.org/1999/xlink" width="349.711875pt" height="241.675156pt" viewBox="0 0 349.711875 241.675156" xmlns="http://www.w3.org/2000/svg" version="1.1">
 <metadata>
  <rdf:RDF xmlns:dc="http://purl.org/dc/elements/1.1/" xmlns:cc="http://creativecommons.org/ns#" xmlns:rdf="http://www.w3.org/1999/02/22-rdf-syntax-ns#">
   <cc:Work>
    <dc:type rdf:resource="http://purl.org/dc/dcmitype/StillImage"/>
    <dc:date>2026-04-17T11:23:10.507912</dc:date>
    <dc:format>image/svg+xml</dc:format>
    <dc:creator>
     <cc:Agent>
      <dc:title>Matplotlib v3.10.8, https://matplotlib.org/</dc:title>
     </cc:Agent>
    </dc:creator>
   </cc:Work>
  </rdf:RDF>
 </metadata>
 <defs>
  <style type="text/css">*{stroke-linejoin: round; stroke-linecap: butt}</style>
 </defs>
 <g id="figure_1">
  <g id="patch_1">
   <path d="M 0 241.675156 
L 349.711875 241.675156 
L 349.711875 0 
L 0 0 
z
" style="fill: #ffffff"/>
  </g>
  <g id="axes_1">
   <g id="patch_2">
    <path d="M 46.341875 202.178594 
L 342.511875 202.178594 
L 342.511875 22.663594 
L 46.341875 22.663594 
z
" style="fill: #ffffff"/>
   </g>
   <g id="matplotlib.axis_1">
    <g id="xtick_1">
     <g id="line2d_1">
      <defs>
       <path id="m2d59e997a0" d="M 0 0 
L 0 3.5 
" style="stroke: #000000; stroke-width: 0.8"/>
      </defs>
      <g>
       <use xlink:href="#m2d59e997a0" x="59.804148" y="202.178594" style="stroke: #000000; stroke-width: 0.8"/>
      </g>
     </g>
     <g id="text_1">
      <!-- 0 -->
      <g transform="translate(56.504148 217.18625) scale(0.11 -0.11)">
       <defs>
        <path id="PingFangHK-Regular-30" d="M 1920 4659 
C 1370 4659 960 4422 685 3936 
C 442 3526 320 2976 320 2285 
C 320 1594 442 1043 685 634 
C 960 154 1370 -90 1920 -90 
C 2464 -90 2874 154 3155 634 
C 3398 1043 3520 1594 3520 2285 
C 3520 2976 3398 3526 3155 3936 
C 2874 4422 2464 4659 1920 4659 
z
M 1920 4211 
C 2330 4211 2624 3994 2803 3552 
C 2931 3245 3002 2822 3002 2285 
C 3002 1754 2931 1331 2803 1018 
C 2624 582 2330 358 1920 358 
C 1510 358 1216 582 1037 1018 
C 909 1331 845 1754 845 2285 
C 845 2822 909 3245 1037 3552 
C 1216 3994 1510 4211 1920 4211 
z
" transform="scale(0.015625)"/>
       </defs>
       <use xlink:href="#PingFangHK-Regular-30"/>
      </g>
     </g>
    </g>
    <g id="xtick_2">
     <g id="line2d_2">
      <g>
       <use xlink:href="#m2d59e997a0" x="127.453759" y="202.178594" style="stroke: #000000; stroke-width: 0.8"/>
      </g>
     </g>
     <g id="text_2">
      <!-- 50 -->
      <g transform="translate(120.853759 217.18625) scale(0.11 -0.11)">
       <defs>
        <path id="PingFangHK-Regular-35" d="M 672 4570 
L 429 2048 
L 928 2048 
C 1018 2227 1158 2368 1338 2458 
C 1510 2554 1702 2598 1920 2598 
C 2253 2598 2515 2502 2701 2298 
C 2893 2099 2995 1818 2995 1453 
C 2995 1133 2886 870 2682 666 
C 2470 461 2208 358 1888 358 
C 1606 358 1370 429 1190 563 
C 986 717 870 941 845 1229 
L 326 1229 
C 358 813 531 480 851 237 
C 1133 19 1478 -90 1882 -90 
C 2330 -90 2714 51 3021 326 
C 3347 621 3514 998 3514 1459 
C 3514 1952 3373 2336 3104 2618 
C 2835 2893 2483 3027 2048 3027 
C 1837 3027 1645 2995 1466 2918 
C 1267 2842 1101 2726 973 2573 
L 947 2573 
L 1101 4102 
L 3328 4102 
L 3328 4570 
L 672 4570 
z
" transform="scale(0.015625)"/>
       </defs>
       <use xlink:href="#PingFangHK-Regular-35"/>
       <use xlink:href="#PingFangHK-Regular-30" transform="translate(59.999985 0)"/>
      </g>
     </g>
    </g>
    <g id="xtick_3">
     <g id="line2d_3">
      <g>
       <use xlink:href="#m2d59e997a0" x="195.103371" y="202.178594" style="stroke: #000000; stroke-width: 0.8"/>
      </g>
     </g>
     <g id="text_3">
      <!-- 100 -->
      <g transform="translate(186.298215 217.18625) scale(0.11 -0.11)">
       <defs>
        <path id="PingFangHK-Regular-31" d="M 1472 4570 
C 1318 4397 1139 4243 922 4102 
C 704 3974 486 3885 282 3827 
L 282 3302 
C 710 3430 1069 3635 1357 3930 
L 1357 0 
L 1882 0 
L 1882 4570 
L 1472 4570 
z
" transform="scale(0.015625)"/>
       </defs>
       <use xlink:href="#PingFangHK-Regular-31"/>
       <use xlink:href="#PingFangHK-Regular-30" transform="translate(40.099991 0)"/>
       <use xlink:href="#PingFangHK-Regular-30" transform="translate(100.099976 0)"/>
      </g>
     </g>
    </g>
    <g id="xtick_4">
     <g id="line2d_4">
      <g>
       <use xlink:href="#m2d59e997a0" x="262.752983" y="202.178594" style="stroke: #000000; stroke-width: 0.8"/>
      </g>
     </g>
     <g id="text_4">
      <!-- 150 -->
      <g transform="translate(253.947827 217.18625) scale(0.11 -0.11)">
       <use xlink:href="#PingFangHK-Regular-31"/>
       <use xlink:href="#PingFangHK-Regular-35" transform="translate(40.099991 0)"/>
       <use xlink:href="#PingFangHK-Regular-30" transform="translate(100.099976 0)"/>
      </g>
     </g>
    </g>
    <g id="xtick_5">
     <g id="line2d_5">
      <g>
       <use xlink:href="#m2d59e997a0" x="330.402595" y="202.178594" style="stroke: #000000; stroke-width: 0.8"/>
      </g>
     </g>
     <g id="text_5">
      <!-- 200 -->
      <g transform="translate(320.502595 217.18625) scale(0.11 -0.11)">
       <defs>
        <path id="PingFangHK-Regular-32" d="M 1984 4659 
C 1523 4659 1146 4506 864 4198 
C 582 3898 435 3488 435 2976 
L 960 2976 
C 966 3379 1062 3686 1242 3891 
C 1408 4109 1651 4211 1965 4211 
C 2259 4211 2496 4134 2662 3981 
C 2829 3827 2912 3616 2912 3334 
C 2912 3040 2790 2765 2560 2515 
C 2438 2387 2202 2202 1843 1946 
C 1357 1613 1030 1338 851 1133 
C 544 794 397 416 397 0 
L 3443 0 
L 3443 467 
L 1043 467 
C 1126 774 1459 1126 2042 1517 
C 2515 1837 2829 2086 2989 2253 
C 3283 2573 3437 2931 3437 3328 
C 3437 3725 3296 4051 3027 4294 
C 2752 4538 2406 4659 1984 4659 
z
" transform="scale(0.015625)"/>
       </defs>
       <use xlink:href="#PingFangHK-Regular-32"/>
       <use xlink:href="#PingFangHK-Regular-30" transform="translate(59.999985 0)"/>
       <use xlink:href="#PingFangHK-Regular-30" transform="translate(119.999969 0)"/>
      </g>
     </g>
    </g>
    <g id="text_6">
     <!-- 训练回合 -->
     <g transform="translate(170.426875 232.099531) scale(0.12 -0.12)">
      <defs>
       <path id="PingFangHK-Regular-8bad" d="M 4083 4787 
L 4083 -218 
L 4525 -218 
L 4525 4787 
L 4083 4787 
z
M 5421 5101 
L 5421 -653 
L 5875 -653 
L 5875 5101 
L 5421 5101 
z
M 2810 5082 
L 2810 2266 
C 2797 1056 2541 179 2029 -371 
L 2374 -678 
C 2944 -58 3238 922 3251 2266 
L 3251 5082 
L 2810 5082 
z
M 1037 5165 
L 717 4851 
C 1178 4506 1549 4173 1818 3859 
L 2131 4179 
C 1837 4512 1472 4838 1037 5165 
z
M 288 3270 
L 288 2829 
L 1229 2829 
L 1229 339 
C 1229 230 1178 134 1088 51 
L 1267 -358 
C 1651 -77 2010 243 2349 602 
L 2227 1082 
C 2035 877 1850 691 1670 525 
L 1670 3270 
L 288 3270 
z
" transform="scale(0.015625)"/>
       <path id="PingFangHK-Regular-7ec3" d="M 2310 659 
C 1734 416 1050 218 269 77 
L 326 -384 
C 1069 -230 1734 -38 2310 205 
L 2310 659 
z
M 1344 5216 
C 1114 4461 845 3795 525 3213 
C 467 3130 403 3072 326 3034 
L 442 2611 
C 774 2669 1101 2733 1427 2797 
C 1107 2195 832 1773 608 1517 
C 550 1466 480 1421 403 1382 
L 525 954 
C 1114 1043 1722 1203 2362 1446 
L 2362 1862 
C 1933 1702 1504 1574 1075 1485 
C 1421 1939 1869 2701 2406 3770 
L 1984 3930 
C 1869 3680 1754 3443 1638 3213 
C 1382 3162 1126 3117 870 3078 
C 1178 3571 1478 4224 1786 5043 
L 1344 5216 
z
M 3085 1363 
C 2899 838 2630 326 2278 -179 
L 2675 -403 
C 2982 38 3251 570 3488 1197 
L 3085 1363 
z
M 5485 1370 
L 5075 1235 
C 5331 762 5568 218 5779 -397 
L 6170 -224 
C 5978 339 5747 870 5485 1370 
z
M 4058 -582 
C 4422 -582 4608 -410 4608 -70 
L 4608 1734 
L 5971 1734 
L 5971 2144 
L 4608 2144 
L 4608 3386 
L 3750 3386 
C 3827 3603 3904 3840 3981 4083 
L 5971 4083 
L 5971 4512 
L 4109 4512 
C 4166 4717 4224 4928 4282 5152 
L 3834 5235 
C 3770 4986 3712 4742 3648 4512 
L 2227 4512 
L 2227 4083 
L 3520 4083 
C 3443 3840 3366 3610 3290 3386 
L 2458 3386 
L 2458 2970 
L 3123 2970 
C 2989 2662 2848 2381 2707 2131 
L 2810 1734 
L 4166 1734 
L 4166 70 
C 4166 -96 4083 -179 3923 -179 
L 3309 -160 
L 3424 -582 
L 4058 -582 
z
M 3590 2970 
L 4166 2970 
L 4166 2144 
L 3219 2144 
C 3347 2400 3469 2675 3590 2970 
z
" transform="scale(0.015625)"/>
       <path id="PingFangHK-Regular-56de" d="M 1971 3443 
L 1971 1165 
L 4442 1165 
L 4442 3443 
L 1971 3443 
z
M 4006 1555 
L 2400 1555 
L 2400 3046 
L 4006 3046 
L 4006 1555 
z
M 5766 4845 
L 634 4845 
L 634 -538 
L 1082 -538 
L 1082 -262 
L 5318 -262 
L 5318 -538 
L 5766 -538 
L 5766 4845 
z
M 1082 147 
L 1082 4435 
L 5318 4435 
L 5318 147 
L 1082 147 
z
" transform="scale(0.015625)"/>
       <path id="PingFangHK-Regular-5408" d="M 3034 5235 
C 2278 4346 1338 3603 198 3002 
L 442 2560 
C 1581 3200 2502 3949 3200 4819 
C 3955 3898 4864 3149 5933 2573 
L 6182 3014 
C 5120 3552 4179 4294 3366 5235 
L 3034 5235 
z
M 5222 1946 
L 1178 1946 
L 1178 -634 
L 1626 -634 
L 1626 -250 
L 4774 -250 
L 4774 -634 
L 5222 -634 
L 5222 1946 
z
M 1626 192 
L 1626 1510 
L 4774 1510 
L 4774 192 
L 1626 192 
z
M 1536 3200 
L 1536 2758 
L 4864 2758 
L 4864 3200 
L 1536 3200 
z
" transform="scale(0.015625)"/>
      </defs>
      <use xlink:href="#PingFangHK-Regular-8bad"/>
      <use xlink:href="#PingFangHK-Regular-7ec3" transform="translate(99.999985 0)"/>
      <use xlink:href="#PingFangHK-Regular-56de" transform="translate(199.999969 0)"/>
      <use xlink:href="#PingFangHK-Regular-5408" transform="translate(299.999954 0)"/>
     </g>
    </g>
   </g>
   <g id="matplotlib.axis_2">
    <g id="ytick_1">
     <g id="line2d_6">
      <defs>
       <path id="m5fe652d9ff" d="M 0 0 
L -3.5 0 
" style="stroke: #000000; stroke-width: 0.8"/>
      </defs>
      <g>
       <use xlink:href="#m5fe652d9ff" x="46.341875" y="191.618888" style="stroke: #000000; stroke-width: 0.8"/>
      </g>
     </g>
     <g id="text_7">
      <!-- 0.0 -->
      <g transform="translate(23.237188 195.622716) scale(0.11 -0.11)">
       <defs>
        <path id="PingFangHK-Regular-2e" d="M 845 762 
C 730 762 640 723 570 646 
C 493 570 454 480 454 365 
C 454 256 493 166 570 90 
C 640 13 730 -26 845 -26 
C 947 -26 1043 13 1120 90 
C 1197 166 1235 256 1235 365 
C 1235 480 1197 570 1120 646 
C 1043 723 947 762 845 762 
z
" transform="scale(0.015625)"/>
       </defs>
       <use xlink:href="#PingFangHK-Regular-30"/>
       <use xlink:href="#PingFangHK-Regular-2e" transform="translate(59.999985 0)"/>
       <use xlink:href="#PingFangHK-Regular-30" transform="translate(86.399979 0)"/>
      </g>
     </g>
    </g>
    <g id="ytick_2">
     <g id="line2d_7">
      <g>
       <use xlink:href="#m5fe652d9ff" x="46.341875" y="149.380064" style="stroke: #000000; stroke-width: 0.8"/>
      </g>
     </g>
     <g id="text_8">
      <!-- 0.2 -->
      <g transform="translate(23.237188 153.383892) scale(0.11 -0.11)">
       <use xlink:href="#PingFangHK-Regular-30"/>
       <use xlink:href="#PingFangHK-Regular-2e" transform="translate(59.999985 0)"/>
       <use xlink:href="#PingFangHK-Regular-32" transform="translate(86.399979 0)"/>
      </g>
     </g>
    </g>
    <g id="ytick_3">
     <g id="line2d_8">
      <g>
       <use xlink:href="#m5fe652d9ff" x="46.341875" y="107.141241" style="stroke: #000000; stroke-width: 0.8"/>
      </g>
     </g>
     <g id="text_9">
      <!-- 0.4 -->
      <g transform="translate(23.237188 111.145069) scale(0.11 -0.11)">
       <defs>
        <path id="PingFangHK-Regular-34" d="M 2458 4570 
L 154 1536 
L 154 1037 
L 2451 1037 
L 2451 0 
L 2950 0 
L 2950 1037 
L 3693 1037 
L 3693 1466 
L 2950 1466 
L 2950 4570 
L 2458 4570 
z
M 2432 3885 
L 2451 3885 
L 2451 1466 
L 595 1466 
L 2432 3885 
z
" transform="scale(0.015625)"/>
       </defs>
       <use xlink:href="#PingFangHK-Regular-30"/>
       <use xlink:href="#PingFangHK-Regular-2e" transform="translate(59.999985 0)"/>
       <use xlink:href="#PingFangHK-Regular-34" transform="translate(86.399979 0)"/>
      </g>
     </g>
    </g>
    <g id="ytick_4">
     <g id="line2d_9">
      <g>
       <use xlink:href="#m5fe652d9ff" x="46.341875" y="64.902417" style="stroke: #000000; stroke-width: 0.8"/>
      </g>
     </g>
     <g id="text_10">
      <!-- 0.6 -->
      <g transform="translate(23.237188 68.906245) scale(0.11 -0.11)">
       <defs>
        <path id="PingFangHK-Regular-36" d="M 1984 4659 
C 1466 4659 1056 4422 755 3942 
C 467 3488 326 2893 326 2163 
C 326 1466 454 922 723 531 
C 1005 122 1421 -90 1978 -90 
C 2426 -90 2790 64 3085 358 
C 3373 653 3520 1030 3520 1478 
C 3520 1926 3386 2285 3123 2566 
C 2854 2848 2502 2989 2067 2989 
C 1798 2989 1562 2925 1357 2790 
C 1139 2662 979 2477 864 2240 
L 838 2240 
C 832 2323 832 2381 832 2406 
C 832 2925 928 3354 1133 3686 
C 1338 4045 1619 4218 1978 4218 
C 2509 4218 2822 3962 2925 3437 
L 3443 3437 
C 3315 4256 2829 4659 1984 4659 
z
M 1965 2554 
C 2278 2554 2528 2458 2720 2253 
C 2906 2061 3002 1805 3002 1478 
C 3002 1152 2906 883 2714 666 
C 2522 461 2272 352 1965 352 
C 1645 352 1395 461 1203 678 
C 1011 883 922 1146 922 1466 
C 922 1786 1018 2042 1216 2246 
C 1414 2451 1664 2554 1965 2554 
z
" transform="scale(0.015625)"/>
       </defs>
       <use xlink:href="#PingFangHK-Regular-30"/>
       <use xlink:href="#PingFangHK-Regular-2e" transform="translate(59.999985 0)"/>
       <use xlink:href="#PingFangHK-Regular-36" transform="translate(86.399979 0)"/>
      </g>
     </g>
    </g>
    <g id="ytick_5">
     <g id="line2d_10">
      <g>
       <use xlink:href="#m5fe652d9ff" x="46.341875" y="22.663594" style="stroke: #000000; stroke-width: 0.8"/>
      </g>
     </g>
     <g id="text_11">
      <!-- 0.8 -->
      <g transform="translate(23.237188 26.667422) scale(0.11 -0.11)">
       <defs>
        <path id="PingFangHK-Regular-38" d="M 1920 4659 
C 1440 4659 1069 4538 800 4288 
C 550 4064 429 3782 429 3450 
C 429 3206 486 3002 602 2835 
C 723 2656 902 2522 1146 2438 
L 1146 2426 
C 902 2368 704 2234 538 2029 
C 358 1811 269 1555 269 1261 
C 269 858 410 531 691 288 
C 979 38 1389 -90 1920 -90 
C 2445 -90 2854 38 3149 288 
C 3430 531 3571 858 3571 1261 
C 3571 1555 3482 1811 3302 2029 
C 3136 2234 2931 2368 2694 2426 
L 2694 2438 
C 2931 2522 3110 2656 3238 2835 
C 3354 3002 3411 3206 3411 3450 
C 3411 3782 3283 4064 3040 4288 
C 2771 4538 2394 4659 1920 4659 
z
M 1920 4230 
C 2240 4230 2496 4147 2682 3981 
C 2835 3840 2918 3654 2918 3430 
C 2918 3200 2848 3008 2707 2867 
C 2534 2701 2272 2611 1920 2611 
C 1562 2611 1299 2701 1133 2867 
C 992 3008 922 3200 922 3430 
C 922 3654 998 3840 1158 3981 
C 1338 4147 1594 4230 1920 4230 
z
M 1920 2202 
C 2285 2202 2573 2112 2778 1926 
C 2957 1760 3053 1536 3053 1261 
C 3053 992 2957 774 2778 608 
C 2573 429 2291 339 1920 339 
C 1549 339 1261 429 1069 602 
C 877 768 787 992 787 1261 
C 787 1536 877 1760 1069 1926 
C 1267 2112 1549 2202 1920 2202 
z
" transform="scale(0.015625)"/>
       </defs>
       <use xlink:href="#PingFangHK-Regular-30"/>
       <use xlink:href="#PingFangHK-Regular-2e" transform="translate(59.999985 0)"/>
       <use xlink:href="#PingFangHK-Regular-38" transform="translate(86.399979 0)"/>
      </g>
     </g>
    </g>
    <g id="text_12">
     <!-- Policy Entropy -->
     <g style="fill: #4c5cf0" transform="translate(16.663594 155.832969) rotate(-90) scale(0.13 -0.13)">
      <defs>
       <path id="PingFangHK-Regular-50" d="M 461 4570 
L 461 0 
L 986 0 
L 986 1869 
L 2323 1869 
C 3373 1869 3904 2323 3904 3226 
C 3904 4122 3379 4570 2330 4570 
L 461 4570 
z
M 986 4115 
L 2298 4115 
C 2662 4115 2931 4045 3110 3891 
C 3290 3757 3379 3533 3379 3226 
C 3379 2918 3290 2694 3117 2547 
C 2938 2400 2669 2323 2298 2323 
L 986 2323 
L 986 4115 
z
" transform="scale(0.015625)"/>
       <path id="PingFangHK-Regular-6f" d="M 1875 3398 
C 1376 3398 986 3232 691 2886 
C 410 2560 269 2150 269 1651 
C 269 1158 410 749 691 429 
C 986 83 1376 -90 1875 -90 
C 2368 -90 2765 83 3066 429 
C 3341 749 3482 1158 3482 1651 
C 3482 2150 3341 2560 3059 2886 
C 2765 3232 2368 3398 1875 3398 
z
M 1875 2970 
C 2221 2970 2496 2835 2701 2566 
C 2874 2323 2963 2022 2963 1651 
C 2963 1293 2874 986 2701 742 
C 2496 474 2221 339 1875 339 
C 1523 339 1248 474 1056 742 
C 877 986 794 1286 794 1651 
C 794 2022 877 2323 1056 2566 
C 1248 2835 1523 2970 1875 2970 
z
" transform="scale(0.015625)"/>
       <path id="PingFangHK-Regular-6c" d="M 499 4659 
L 499 0 
L 1005 0 
L 1005 4659 
L 499 4659 
z
" transform="scale(0.015625)"/>
       <path id="PingFangHK-Regular-69" d="M 819 4557 
C 710 4557 621 4525 544 4448 
C 467 4384 435 4294 435 4179 
C 435 4070 467 3981 544 3904 
C 621 3834 710 3795 819 3795 
C 928 3795 1018 3834 1094 3904 
C 1171 3981 1210 4070 1210 4179 
C 1210 4294 1171 4384 1094 4448 
C 1018 4525 928 4557 819 4557 
z
M 563 3309 
L 563 0 
L 1075 0 
L 1075 3309 
L 563 3309 
z
" transform="scale(0.015625)"/>
       <path id="PingFangHK-Regular-63" d="M 1824 3398 
C 1331 3398 941 3226 659 2874 
C 397 2554 269 2144 269 1638 
C 269 1133 397 723 659 410 
C 934 77 1318 -90 1818 -90 
C 2227 -90 2554 19 2803 230 
C 3059 448 3219 774 3296 1197 
L 2784 1197 
C 2707 627 2381 339 1818 339 
C 1485 339 1229 461 1056 691 
C 877 922 794 1242 794 1645 
C 794 2048 883 2368 1062 2605 
C 1248 2848 1504 2970 1824 2970 
C 2086 2970 2298 2912 2464 2784 
C 2624 2656 2726 2464 2771 2208 
L 3277 2208 
C 3219 2611 3066 2912 2810 3110 
C 2560 3302 2234 3398 1824 3398 
z
" transform="scale(0.015625)"/>
       <path id="PingFangHK-Regular-79" d="M 32 3309 
L 1344 77 
L 774 -1267 
L 1331 -1267 
L 3142 3309 
L 2579 3309 
L 1600 698 
L 589 3309 
L 32 3309 
z
" transform="scale(0.015625)"/>
       <path id="PingFangHK-Regular-20" transform="scale(0.015625)"/>
       <path id="PingFangHK-Regular-45" d="M 461 4570 
L 461 0 
L 3808 0 
L 3808 454 
L 986 454 
L 986 2131 
L 3546 2131 
L 3546 2586 
L 986 2586 
L 986 4115 
L 3699 4115 
L 3699 4570 
L 461 4570 
z
" transform="scale(0.015625)"/>
       <path id="PingFangHK-Regular-6e" d="M 1946 3398 
C 1728 3398 1530 3347 1350 3245 
C 1171 3149 1024 3008 909 2822 
L 909 3309 
L 397 3309 
L 397 0 
L 909 0 
L 909 1997 
C 928 2298 1024 2534 1203 2714 
C 1370 2880 1568 2963 1798 2963 
C 2374 2963 2669 2643 2669 1997 
L 2669 0 
L 3181 0 
L 3181 2035 
C 3181 2944 2765 3398 1946 3398 
z
" transform="scale(0.015625)"/>
       <path id="PingFangHK-Regular-74" d="M 1280 4378 
L 774 4166 
L 774 3309 
L 109 3309 
L 109 2880 
L 774 2880 
L 774 774 
C 774 525 826 339 934 211 
C 1050 70 1248 0 1517 0 
L 2016 0 
L 2016 429 
L 1594 429 
C 1478 429 1395 461 1350 512 
C 1299 563 1280 653 1280 774 
L 1280 2880 
L 2099 2880 
L 2099 3309 
L 1280 3309 
L 1280 4378 
z
" transform="scale(0.015625)"/>
       <path id="PingFangHK-Regular-72" d="M 1850 3398 
C 1619 3398 1421 3328 1248 3187 
C 1107 3078 992 2925 902 2733 
L 902 3309 
L 397 3309 
L 397 0 
L 902 0 
L 902 1754 
C 902 2061 986 2323 1165 2541 
C 1338 2771 1555 2880 1811 2880 
C 1971 2880 2138 2861 2304 2810 
L 2304 3322 
C 2182 3373 2029 3398 1850 3398 
z
" transform="scale(0.015625)"/>
       <path id="PingFangHK-Regular-70" d="M 1978 3398 
C 1478 3398 1114 3187 877 2765 
L 877 3309 
L 397 3309 
L 397 -1267 
L 909 -1267 
L 909 602 
C 1165 141 1530 -90 2003 -90 
C 2477 -90 2842 90 3110 435 
C 3354 755 3482 1158 3482 1645 
C 3482 2144 3354 2547 3104 2867 
C 2829 3226 2451 3398 1978 3398 
z
M 1914 2976 
C 2266 2976 2534 2848 2720 2579 
C 2874 2349 2957 2035 2957 1645 
C 2957 1248 2874 934 2707 704 
C 2522 461 2253 333 1894 333 
C 1587 333 1350 454 1171 685 
C 979 922 890 1229 890 1613 
L 890 1677 
C 890 2048 973 2355 1139 2586 
C 1318 2848 1581 2976 1914 2976 
z
" transform="scale(0.015625)"/>
      </defs>
      <use xlink:href="#PingFangHK-Regular-50"/>
      <use xlink:href="#PingFangHK-Regular-6f" transform="translate(64.199997 0)"/>
      <use xlink:href="#PingFangHK-Regular-6c" transform="translate(122.799988 0)"/>
      <use xlink:href="#PingFangHK-Regular-69" transform="translate(146.299973 0)"/>
      <use xlink:href="#PingFangHK-Regular-63" transform="translate(171.899963 0)"/>
      <use xlink:href="#PingFangHK-Regular-79" transform="translate(226.59996 0)"/>
      <use xlink:href="#PingFangHK-Regular-20" transform="translate(276.199951 0)"/>
      <use xlink:href="#PingFangHK-Regular-45" transform="translate(309.499939 0)"/>
      <use xlink:href="#PingFangHK-Regular-6e" transform="translate(373.199936 0)"/>
      <use xlink:href="#PingFangHK-Regular-74" transform="translate(429.09993 0)"/>
      <use xlink:href="#PingFangHK-Regular-72" transform="translate(464.599915 0)"/>
      <use xlink:href="#PingFangHK-Regular-6f" transform="translate(501.099899 0)"/>
      <use xlink:href="#PingFangHK-Regular-70" transform="translate(559.69989 0)"/>
      <use xlink:href="#PingFangHK-Regular-79" transform="translate(618.299881 0)"/>
     </g>
    </g>
   </g>
   <g id="line2d_11">
    <path d="M 59.804148 37.117656 
L 61.15714 39.990959 
L 62.510132 42.013991 
L 63.863124 41.622803 
L 65.216117 43.903508 
L 66.569109 43.65758 
L 67.922101 44.534304 
L 69.275093 45.991715 
L 70.628086 49.216641 
L 71.981078 51.316976 
L 73.33407 53.061123 
L 74.687062 54.481309 
L 77.393047 56.486264 
L 78.746039 58.206187 
L 80.099031 60.143584 
L 82.805016 62.842628 
L 84.158008 63.625191 
L 85.511 63.055108 
L 86.863992 64.657473 
L 88.216985 66.052165 
L 89.569977 68.782312 
L 90.922969 70.248605 
L 92.275961 72.460967 
L 93.628954 74.204191 
L 94.981946 75.341893 
L 96.334938 75.128553 
L 97.68793 76.512185 
L 99.040923 78.769762 
L 100.393915 78.549699 
L 101.746907 79.638504 
L 103.099899 81.108776 
L 104.452891 81.195969 
L 105.805884 80.959723 
L 107.158876 83.23097 
L 108.511868 84.898904 
L 109.86486 86.122214 
L 111.217853 88.338975 
L 112.570845 92.013187 
L 113.923837 91.731059 
L 116.629822 93.027289 
L 117.982814 94.956051 
L 119.335806 93.300409 
L 120.688798 95.899938 
L 122.04179 97.020203 
L 123.394783 99.82704 
L 124.747775 99.966156 
L 126.100767 102.22567 
L 127.453759 102.850789 
L 128.806752 103.343361 
L 130.159744 103.051077 
L 131.512736 103.017065 
L 132.865728 104.138654 
L 134.218721 105.732733 
L 135.571713 107.017722 
L 136.924705 107.425564 
L 138.277697 108.075543 
L 139.63069 107.859115 
L 140.983682 109.365412 
L 142.336674 109.876832 
L 143.689666 110.009973 
L 146.395651 113.774276 
L 147.748643 112.828139 
L 150.454627 115.849708 
L 151.80762 116.691471 
L 153.160612 115.8474 
L 154.513604 116.446078 
L 155.866596 117.382887 
L 157.219589 118.15348 
L 158.572581 118.084402 
L 159.925573 120.465274 
L 161.278565 121.96219 
L 162.631558 124.004748 
L 163.98455 124.450635 
L 168.043526 130.230359 
L 169.396519 129.136896 
L 170.749511 129.915104 
L 172.102503 130.143598 
L 173.455495 128.594165 
L 174.808488 128.664835 
L 176.16148 130.236446 
L 177.514472 130.75012 
L 178.867464 130.871064 
L 180.220457 131.90002 
L 181.573449 130.483841 
L 182.926441 130.744528 
L 184.279433 132.431051 
L 185.632425 132.556048 
L 186.985418 131.547174 
L 188.33841 133.185771 
L 189.691402 131.51933 
L 191.044394 132.222576 
L 192.397387 133.353803 
L 193.750379 135.589435 
L 196.456363 139.192571 
L 197.809356 138.412921 
L 199.162348 139.32787 
L 200.51534 139.745581 
L 201.868332 137.726164 
L 203.221325 139.49288 
L 204.574317 142.033149 
L 205.927309 142.941779 
L 207.280301 144.368762 
L 208.633293 144.878111 
L 209.986286 144.025109 
L 211.339278 143.948753 
L 212.69227 144.368666 
L 214.045262 141.388751 
L 215.398255 143.484036 
L 216.751247 144.826698 
L 219.457231 143.640402 
L 220.810224 146.291933 
L 223.516208 147.708288 
L 224.8692 147.868678 
L 226.222192 148.855707 
L 227.575185 150.826897 
L 230.281169 148.216232 
L 231.634161 149.306617 
L 232.987154 149.859358 
L 234.340146 148.651321 
L 235.693138 150.590601 
L 237.04613 152.749869 
L 238.399123 152.634771 
L 239.752115 153.987217 
L 241.105107 154.205022 
L 242.458099 155.190299 
L 243.811092 154.47908 
L 245.164084 155.206017 
L 246.517076 152.820224 
L 247.870068 154.381298 
L 249.22306 154.686986 
L 250.576053 155.473014 
L 251.929045 156.627825 
L 253.282037 158.948246 
L 254.635029 158.006104 
L 257.341014 154.824684 
L 258.694006 154.799163 
L 260.046998 152.369831 
L 261.399991 151.345118 
L 262.752983 152.459999 
L 264.105975 156.085023 
L 265.458967 155.816811 
L 266.81196 158.265049 
L 268.164952 162.159072 
L 269.517944 162.198629 
L 270.870936 160.702573 
L 272.223928 161.56348 
L 273.576921 161.35955 
L 274.929913 158.828932 
L 276.282905 159.559928 
L 277.635897 159.451821 
L 278.98889 159.593022 
L 280.341882 161.035683 
L 281.694874 162.063648 
L 283.047866 161.453657 
L 284.400859 162.36337 
L 285.753851 163.917407 
L 287.106843 162.99235 
L 288.459835 164.639752 
L 289.812827 165.207614 
L 292.518812 161.822385 
L 293.871804 163.542975 
L 295.224796 163.646639 
L 296.577789 162.97635 
L 297.930781 164.706406 
L 299.283773 164.44655 
L 300.636765 162.866769 
L 301.989758 161.879127 
L 303.34275 163.33149 
L 304.695742 164.317932 
L 306.048734 167.575989 
L 307.401727 169.836586 
L 308.754719 170.047355 
L 310.107711 170.125778 
L 311.460703 169.173352 
L 312.813695 166.862883 
L 314.166688 165.630202 
L 315.51968 165.08801 
L 318.225664 166.628855 
L 319.578657 168.055241 
L 320.931649 167.541564 
L 322.284641 168.346131 
L 323.637633 167.354137 
L 324.990626 165.97594 
L 326.343618 163.871672 
L 327.69661 164.857019 
L 329.049602 165.050993 
L 329.049602 165.050993 
" clip-path="url(#pf103ea550c)" style="fill: none; stroke: #4c5cf0; stroke-opacity: 0.9; stroke-width: 1.8; stroke-linecap: square"/>
   </g>
   <g id="line2d_12">
    <path d="M 46.341875 45.230281 
L 342.511875 45.230281 
" clip-path="url(#pf103ea550c)" style="fill: none; stroke-dasharray: 2.96,1.28; stroke-dashoffset: 0; stroke: #d1d5db; stroke-width: 0.8"/>
   </g>
   <g id="patch_3">
    <path d="M 46.341875 202.178594 
L 46.341875 22.663594 
" style="fill: none; stroke: #000000; stroke-width: 0.8; stroke-linejoin: miter; stroke-linecap: square"/>
   </g>
   <g id="patch_4">
    <path d="M 46.341875 202.178594 
L 342.511875 202.178594 
" style="fill: none; stroke: #000000; stroke-width: 0.8; stroke-linejoin: miter; stroke-linecap: square"/>
   </g>
   <g id="text_13">
    <!-- $\ln 2 \approx 0.69$（均匀随机） -->
    <g style="fill: #9ca3af" transform="translate(66.569109 39.559123) scale(0.09 -0.09)">
     <defs>
      <path id="Cmr10-6c" d="M 197 0 
L 197 225 
Q 416 225 556 259 
Q 697 294 697 428 
L 697 3788 
Q 697 3959 645 4036 
Q 594 4113 497 4130 
Q 400 4147 197 4147 
L 197 4372 
L 1147 4441 
L 1147 428 
Q 1147 294 1287 259 
Q 1428 225 1644 225 
L 1644 0 
L 197 0 
z
" transform="scale(0.015625)"/>
      <path id="Cmr10-6e" d="M 191 0 
L 191 225 
Q 409 225 550 259 
Q 691 294 691 428 
L 691 2175 
Q 691 2347 639 2423 
Q 588 2500 491 2517 
Q 394 2534 191 2534 
L 191 2759 
L 1119 2828 
L 1119 2203 
Q 1247 2478 1498 2653 
Q 1750 2828 2047 2828 
Q 2491 2828 2714 2615 
Q 2938 2403 2938 1966 
L 2938 428 
Q 2938 294 3078 259 
Q 3219 225 3438 225 
L 3438 0 
L 1972 0 
L 1972 225 
Q 2191 225 2331 259 
Q 2472 294 2472 428 
L 2472 1947 
Q 2472 2259 2381 2461 
Q 2291 2663 2009 2663 
Q 1638 2663 1398 2366 
Q 1159 2069 1159 1691 
L 1159 428 
Q 1159 294 1300 259 
Q 1441 225 1656 225 
L 1656 0 
L 191 0 
z
" transform="scale(0.015625)"/>
      <path id="Cmr10-32" d="M 319 0 
L 319 172 
Q 319 188 331 206 
L 1325 1306 
Q 1550 1550 1690 1715 
Q 1831 1881 1968 2097 
Q 2106 2313 2186 2536 
Q 2266 2759 2266 3009 
Q 2266 3272 2169 3511 
Q 2072 3750 1880 3894 
Q 1688 4038 1416 4038 
Q 1138 4038 916 3870 
Q 694 3703 603 3438 
Q 628 3444 672 3444 
Q 816 3444 917 3347 
Q 1019 3250 1019 3097 
Q 1019 2950 917 2848 
Q 816 2747 672 2747 
Q 522 2747 420 2851 
Q 319 2956 319 3097 
Q 319 3338 409 3548 
Q 500 3759 670 3923 
Q 841 4088 1055 4175 
Q 1269 4263 1509 4263 
Q 1875 4263 2190 4108 
Q 2506 3953 2690 3670 
Q 2875 3388 2875 3009 
Q 2875 2731 2753 2481 
Q 2631 2231 2440 2026 
Q 2250 1822 1953 1562 
Q 1656 1303 1563 1216 
L 838 519 
L 1453 519 
Q 1906 519 2211 526 
Q 2516 534 2534 550 
Q 2609 631 2688 1141 
L 2875 1141 
L 2694 0 
L 319 0 
z
" transform="scale(0.015625)"/>
      <path id="Cmsy10-bc" d="M 447 359 
Q 378 359 359 519 
L 359 556 
Q 359 847 501 1087 
Q 644 1328 891 1464 
Q 1138 1600 1422 1600 
Q 1766 1600 2130 1379 
Q 2494 1159 2853 937 
Q 3213 716 3553 716 
Q 3881 716 4157 919 
Q 4434 1122 4434 1441 
Q 4453 1600 4525 1600 
Q 4597 1600 4616 1441 
L 4616 1403 
Q 4616 1113 4472 872 
Q 4328 631 4083 495 
Q 3838 359 3553 359 
Q 3284 359 3048 470 
Q 2813 581 2495 795 
Q 2178 1009 1937 1125 
Q 1697 1241 1422 1241 
Q 1219 1241 1009 1150 
Q 800 1059 669 895 
Q 538 731 538 519 
Q 519 359 447 359 
z
M 447 1850 
Q 378 1850 359 2009 
L 359 2047 
Q 359 2338 501 2578 
Q 644 2819 891 2955 
Q 1138 3091 1422 3091 
Q 1766 3091 2130 2870 
Q 2494 2650 2853 2429 
Q 3213 2209 3553 2209 
Q 3881 2209 4157 2412 
Q 4434 2616 4434 2931 
Q 4453 3091 4525 3091 
Q 4597 3091 4616 2931 
L 4616 2894 
Q 4616 2603 4472 2362 
Q 4328 2122 4083 1986 
Q 3838 1850 3553 1850 
Q 3284 1850 3048 1961 
Q 2813 2072 2495 2286 
Q 2178 2500 1937 2615 
Q 1697 2731 1422 2731 
Q 1219 2731 1009 2640 
Q 800 2550 669 2386 
Q 538 2222 538 2009 
Q 519 1850 447 1850 
z
" transform="scale(0.015625)"/>
      <path id="Cmr10-30" d="M 1600 -141 
Q 816 -141 533 504 
Q 250 1150 250 2041 
Q 250 2597 351 3087 
Q 453 3578 754 3920 
Q 1056 4263 1600 4263 
Q 2022 4263 2290 4056 
Q 2559 3850 2700 3523 
Q 2841 3197 2892 2823 
Q 2944 2450 2944 2041 
Q 2944 1491 2842 1011 
Q 2741 531 2444 195 
Q 2147 -141 1600 -141 
z
M 1600 25 
Q 1956 25 2131 390 
Q 2306 756 2347 1200 
Q 2388 1644 2388 2144 
Q 2388 2625 2347 3031 
Q 2306 3438 2132 3767 
Q 1959 4097 1600 4097 
Q 1238 4097 1063 3765 
Q 888 3434 847 3029 
Q 806 2625 806 2144 
Q 806 1788 823 1472 
Q 841 1156 916 820 
Q 991 484 1158 254 
Q 1325 25 1600 25 
z
" transform="scale(0.015625)"/>
      <path id="Cmmi10-3a" d="M 538 353 
Q 538 497 644 600 
Q 750 703 891 703 
Q 978 703 1062 656 
Q 1147 609 1194 525 
Q 1241 441 1241 353 
Q 1241 213 1137 106 
Q 1034 0 891 0 
Q 750 0 644 106 
Q 538 213 538 353 
z
" transform="scale(0.015625)"/>
      <path id="Cmr10-36" d="M 1600 -141 
Q 1203 -141 937 70 
Q 672 281 526 617 
Q 381 953 325 1322 
Q 269 1691 269 2069 
Q 269 2575 466 3084 
Q 663 3594 1045 3928 
Q 1428 4263 1953 4263 
Q 2172 4263 2361 4180 
Q 2550 4097 2658 3936 
Q 2766 3775 2766 3547 
Q 2766 3416 2677 3327 
Q 2588 3238 2456 3238 
Q 2331 3238 2240 3328 
Q 2150 3419 2150 3547 
Q 2150 3672 2240 3762 
Q 2331 3853 2456 3853 
L 2491 3853 
Q 2409 3969 2261 4023 
Q 2113 4078 1953 4078 
Q 1759 4078 1595 3993 
Q 1431 3909 1300 3765 
Q 1169 3622 1081 3448 
Q 994 3275 945 3053 
Q 897 2831 884 2637 
Q 872 2444 872 2150 
Q 984 2413 1190 2580 
Q 1397 2747 1656 2747 
Q 1941 2747 2175 2631 
Q 2409 2516 2578 2311 
Q 2747 2106 2836 1843 
Q 2925 1581 2925 1313 
Q 2925 938 2758 598 
Q 2591 259 2287 59 
Q 1984 -141 1600 -141 
z
M 1600 63 
Q 1847 63 1997 175 
Q 2147 288 2217 473 
Q 2288 659 2305 848 
Q 2322 1038 2322 1313 
Q 2322 1675 2287 1931 
Q 2253 2188 2100 2383 
Q 1947 2578 1631 2578 
Q 1372 2578 1205 2403 
Q 1038 2228 961 1961 
Q 884 1694 884 1447 
Q 884 1363 891 1319 
Q 891 1309 889 1303 
Q 888 1297 884 1288 
Q 884 1013 940 731 
Q 997 450 1156 256 
Q 1316 63 1600 63 
z
" transform="scale(0.015625)"/>
      <path id="Cmr10-39" d="M 722 269 
Q 897 63 1331 63 
Q 1575 63 1786 228 
Q 1997 394 2113 634 
Q 2247 906 2284 1214 
Q 2322 1522 2322 1978 
Q 2213 1719 2008 1553 
Q 1803 1388 1538 1388 
Q 1166 1388 873 1589 
Q 581 1791 425 2120 
Q 269 2450 269 2822 
Q 269 3206 444 3539 
Q 619 3872 928 4067 
Q 1238 4263 1631 4263 
Q 2019 4263 2280 4052 
Q 2541 3841 2678 3508 
Q 2816 3175 2870 2803 
Q 2925 2431 2925 2069 
Q 2925 1575 2744 1061 
Q 2563 547 2202 203 
Q 1841 -141 1331 -141 
Q 953 -141 690 37 
Q 428 216 428 575 
Q 428 706 517 795 
Q 606 884 738 884 
Q 866 884 955 795 
Q 1044 706 1044 575 
Q 1044 450 953 359 
Q 863 269 738 269 
L 722 269 
z
M 1563 1556 
Q 1825 1556 1992 1732 
Q 2159 1909 2234 2171 
Q 2309 2434 2309 2694 
L 2309 2816 
L 2309 2841 
Q 2309 3322 2168 3700 
Q 2028 4078 1631 4078 
Q 1378 4078 1220 3967 
Q 1063 3856 988 3672 
Q 913 3488 892 3278 
Q 872 3069 872 2822 
Q 872 2459 906 2203 
Q 941 1947 1094 1751 
Q 1247 1556 1563 1556 
z
" transform="scale(0.015625)"/>
      <path id="PingFangHK-Regular-ff08" d="M 5440 5293 
C 5158 4883 4941 4442 4781 3974 
C 4589 3424 4499 2867 4499 2298 
C 4499 1741 4589 1184 4781 634 
C 4941 173 5158 -269 5440 -685 
L 5888 -685 
C 5632 -256 5427 186 5280 640 
C 5088 1203 4998 1760 4998 2304 
C 4998 2854 5088 3405 5280 3968 
C 5427 4429 5632 4870 5888 5293 
L 5440 5293 
z
" transform="scale(0.015625)"/>
      <path id="PingFangHK-Regular-5747" d="M 301 3526 
L 301 3078 
L 1005 3078 
L 1005 800 
C 755 736 499 685 230 640 
L 352 154 
C 1075 307 1747 506 2368 742 
L 2368 1222 
C 2074 1107 1779 1011 1472 922 
L 1472 3078 
L 2131 3078 
L 2131 3526 
L 1472 3526 
L 1472 5210 
L 1005 5210 
L 1005 3526 
L 301 3526 
z
M 3040 2758 
L 3040 2349 
L 4928 2349 
L 4928 2758 
L 3040 2758 
z
M 2925 1555 
L 2925 1152 
L 5037 1152 
L 5037 1555 
L 2925 1555 
z
M 3360 5267 
C 3168 4352 2797 3578 2253 2944 
L 2560 2547 
C 2880 2918 3142 3334 3360 3802 
L 5446 3802 
C 5434 1869 5402 717 5344 346 
C 5286 13 5101 -154 4781 -154 
C 4518 -154 4211 -141 3853 -128 
L 3968 -563 
C 4390 -576 4685 -589 4864 -589 
C 5408 -589 5715 -326 5786 186 
C 5856 698 5894 2048 5894 4250 
L 3546 4250 
C 3661 4557 3750 4877 3821 5210 
L 3360 5267 
z
" transform="scale(0.015625)"/>
      <path id="PingFangHK-Regular-5300" d="M 1882 5254 
C 1645 4301 1184 3494 499 2842 
L 806 2445 
C 1229 2867 1574 3347 1850 3885 
L 5178 3885 
C 5165 2502 5152 1619 5146 1229 
C 5114 621 5018 237 4864 77 
C 4710 -77 4467 -160 4141 -160 
C 3872 -160 3610 -154 3347 -154 
L 3475 -608 
C 3782 -595 4038 -595 4250 -595 
C 4730 -595 5062 -486 5242 -275 
C 5421 -70 5523 320 5562 902 
C 5587 1267 5619 2413 5651 4333 
L 2048 4333 
C 2157 4608 2246 4896 2323 5203 
L 1882 5254 
z
M 4294 1683 
C 3418 1254 2362 890 1133 595 
L 1325 160 
C 2554 480 3584 851 4403 1267 
L 4294 1683 
z
M 2118 3162 
L 1850 2835 
C 2515 2534 3059 2208 3488 1856 
L 3770 2189 
C 3309 2541 2758 2867 2118 3162 
z
" transform="scale(0.015625)"/>
      <path id="PingFangHK-Regular-968f" d="M 525 4986 
L 525 -582 
L 947 -582 
L 947 4570 
L 1690 4570 
C 1600 4070 1466 3507 1293 2886 
C 1574 2394 1722 1952 1722 1562 
C 1722 1414 1696 1312 1658 1248 
C 1606 1190 1536 1158 1434 1146 
C 1344 1146 1229 1152 1088 1165 
L 1222 736 
C 1581 742 1837 819 1984 973 
C 2086 1088 2138 1280 2138 1562 
C 2125 1952 1978 2413 1709 2950 
C 1869 3539 2003 4096 2112 4634 
L 2112 4986 
L 525 4986 
z
M 2682 5114 
L 2387 4832 
C 2714 4525 2976 4230 3168 3949 
L 3456 4237 
C 3245 4531 2989 4826 2682 5114 
z
M 2176 3616 
L 2176 3219 
L 2912 3219 
C 2771 2861 2592 2490 2387 2112 
L 2387 1786 
L 3104 1786 
C 3008 1344 2880 947 2720 602 
C 2464 550 2189 262 1901 -250 
L 2195 -518 
C 2470 -45 2682 186 2829 186 
C 2867 186 2912 166 2957 122 
C 3123 -83 3309 -237 3514 -339 
C 3693 -429 3949 -480 4294 -493 
C 4582 -506 4915 -512 5286 -512 
L 6061 -512 
L 6157 -77 
C 5773 -96 5466 -109 5229 -109 
L 4307 -109 
C 4019 -96 3795 -58 3642 13 
C 3482 102 3322 237 3168 416 
C 3136 448 3104 474 3078 499 
C 3251 851 3398 1306 3514 1862 
L 3514 2150 
L 2835 2150 
C 3021 2522 3187 2893 3334 3277 
L 3334 3616 
L 2176 3616 
z
M 3667 4563 
L 3667 4147 
L 4307 4147 
C 4096 3597 3795 3136 3405 2771 
L 3648 2458 
C 3763 2560 3878 2675 3994 2803 
L 3994 250 
L 4378 250 
L 4378 1363 
L 5402 1363 
L 5402 870 
C 5402 717 5344 634 5235 634 
C 5120 634 4992 646 4858 659 
L 4954 282 
L 5357 282 
C 5651 294 5798 448 5798 742 
L 5798 3533 
L 4467 3533 
C 4557 3718 4646 3923 4730 4147 
L 6061 4147 
L 6061 4563 
L 4864 4563 
C 4915 4755 4966 4954 5011 5165 
L 4582 5216 
C 4544 4992 4499 4774 4442 4563 
L 3667 4563 
z
M 4378 2253 
L 5402 2253 
L 5402 1722 
L 4378 1722 
L 4378 2253 
z
M 5402 2611 
L 4378 2611 
L 4378 3174 
L 5402 3174 
L 5402 2611 
z
" transform="scale(0.015625)"/>
      <path id="PingFangHK-Regular-673a" d="M 371 3974 
L 371 3533 
L 1306 3533 
C 1094 2733 742 2022 250 1402 
L 448 902 
C 806 1427 1101 2003 1325 2643 
L 1325 -608 
L 1786 -608 
L 1786 2765 
C 1965 2515 2176 2189 2419 1786 
L 2688 2182 
C 2381 2560 2080 2899 1786 3206 
L 1786 3533 
L 2579 3533 
L 2579 3974 
L 1786 3974 
L 1786 5222 
L 1325 5222 
L 1325 3974 
L 371 3974 
z
M 2278 -326 
L 2656 -666 
C 2957 -205 3162 269 3270 768 
C 3386 1242 3443 1830 3443 2534 
L 3443 4525 
L 4582 4525 
L 4582 70 
C 4582 -301 4787 -486 5197 -486 
L 5459 -486 
C 5664 -486 5818 -448 5920 -378 
C 6022 -288 6086 -134 6112 96 
C 6138 339 6157 685 6157 1146 
L 5734 1280 
C 5734 666 5715 301 5690 173 
C 5677 83 5645 26 5594 -13 
C 5549 -38 5491 -51 5414 -51 
L 5197 -51 
C 5094 -51 5050 6 5050 115 
L 5050 4960 
L 2982 4960 
L 2982 2534 
C 2982 1875 2938 1350 2854 960 
C 2746 506 2554 77 2278 -326 
z
" transform="scale(0.015625)"/>
      <path id="PingFangHK-Regular-ff09" d="M 512 5293 
C 768 4870 966 4429 1120 3968 
C 1306 3405 1402 2854 1402 2304 
C 1402 1760 1306 1203 1120 640 
C 966 186 768 -256 512 -685 
L 960 -685 
C 1235 -269 1453 173 1619 634 
C 1805 1184 1901 1741 1901 2298 
C 1901 2867 1805 3424 1619 3974 
C 1453 4442 1235 4883 960 5293 
L 512 5293 
z
" transform="scale(0.015625)"/>
     </defs>
     <use xlink:href="#Cmr10-6c" transform="translate(0 0.296875)"/>
     <use xlink:href="#Cmr10-6e" transform="translate(27.685547 0.296875)"/>
     <use xlink:href="#Cmr10-32" transform="translate(97.835579 0.296875)"/>
     <use xlink:href="#Cmsy10-bc" transform="translate(165.394173 0.296875)"/>
     <use xlink:href="#Cmr10-30" transform="translate(260.638313 0.296875)"/>
     <use xlink:href="#Cmmi10-3a" transform="translate(310.638313 0.296875)"/>
     <use xlink:href="#Cmr10-36" transform="translate(338.32386 0.296875)"/>
     <use xlink:href="#Cmr10-39" transform="translate(388.32386 0.296875)"/>
     <use xlink:href="#PingFangHK-Regular-ff08" transform="translate(438.32386 0.296875)"/>
     <use xlink:href="#PingFangHK-Regular-5747" transform="translate(538.323845 0.296875)"/>
     <use xlink:href="#PingFangHK-Regular-5300" transform="translate(638.32383 0.296875)"/>
     <use xlink:href="#PingFangHK-Regular-968f" transform="translate(738.323815 0.296875)"/>
     <use xlink:href="#PingFangHK-Regular-673a" transform="translate(838.323799 0.296875)"/>
     <use xlink:href="#PingFangHK-Regular-ff09" transform="translate(938.323784 0.296875)"/>
    </g>
   </g>
   <g id="text_14">
    <!-- Policy Entropy -->
    <g transform="translate(151.015 16.663594) scale(0.13 -0.13)">
     <use xlink:href="#PingFangHK-Regular-50"/>
     <use xlink:href="#PingFangHK-Regular-6f" transform="translate(64.199997 0)"/>
     <use xlink:href="#PingFangHK-Regular-6c" transform="translate(122.799988 0)"/>
     <use xlink:href="#PingFangHK-Regular-69" transform="translate(146.299973 0)"/>
     <use xlink:href="#PingFangHK-Regular-63" transform="translate(171.899963 0)"/>
     <use xlink:href="#PingFangHK-Regular-79" transform="translate(226.59996 0)"/>
     <use xlink:href="#PingFangHK-Regular-20" transform="translate(276.199951 0)"/>
     <use xlink:href="#PingFangHK-Regular-45" transform="translate(309.499939 0)"/>
     <use xlink:href="#PingFangHK-Regular-6e" transform="translate(373.199936 0)"/>
     <use xlink:href="#PingFangHK-Regular-74" transform="translate(429.09993 0)"/>
     <use xlink:href="#PingFangHK-Regular-72" transform="translate(464.599915 0)"/>
     <use xlink:href="#PingFangHK-Regular-6f" transform="translate(501.099899 0)"/>
     <use xlink:href="#PingFangHK-Regular-70" transform="translate(559.69989 0)"/>
     <use xlink:href="#PingFangHK-Regular-79" transform="translate(618.299881 0)"/>
    </g>
   </g>
  </g>
 </g>
 <defs>
  <clipPath id="pf103ea550c">
   <rect x="46.341875" y="22.663594" width="296.17" height="179.515"/>
  </clipPath>
 </defs>
</svg>
