<?xml version="1.0" encoding="utf-8" standalone="no"?>
<!DOCTYPE svg PUBLIC "-//W3C//DTD SVG 1.1//EN"
  "http://www.w3.org/Graphics/SVG/1.1/DTD/svg11.dtd">
<svg xmlns:xlink="http://www.w3.org/1999/xlink" width="349.717188pt" height="241.675156pt" viewBox="0 0 349.717188 241.675156" xmlns="http://www.w3.org/2000/svg" version="1.1">
 <metadata>
  <rdf:RDF xmlns:dc="http://purl.org/dc/elements/1.1/" xmlns:cc="http://creativecommons.org/ns#" xmlns:rdf="http://www.w3.org/1999/02/22-rdf-syntax-ns#">
   <cc:Work>
    <dc:type rdf:resource="http://purl.org/dc/dcmitype/StillImage"/>
    <dc:date>2026-04-17T11:23:10.544718</dc:date>
    <dc:format>image/svg+xml</dc:format>
    <dc:creator>
     <cc:Agent>
      <dc:title>Matplotlib v3.10.8, https://matplotlib.org/</dc:title>
     </cc:Agent>
    </dc:creator>
   </cc:Work>
  </rdf:RDF>
 </metadata>
 <defs>
  <style type="text/css">*{stroke-linejoin: round; stroke-linecap: butt}</style>
 </defs>
 <g id="figure_1">
  <g id="patch_1">
   <path d="M 0 241.675156 
L 349.717188 241.675156 
L 349.717188 0 
L 0 0 
z
" style="fill: #ffffff"/>
  </g>
  <g id="axes_1">
   <g id="patch_2">
    <path d="M 50.037188 202.178594 
L 342.517187 202.178594 
L 342.517187 22.663594 
L 50.037188 22.663594 
z
" style="fill: #ffffff"/>
   </g>
   <g id="matplotlib.axis_1">
    <g id="xtick_1">
     <g id="line2d_1">
      <defs>
       <path id="m416cc2646b" d="M 0 0 
L 0 3.5 
" style="stroke: #000000; stroke-width: 0.8"/>
      </defs>
      <g>
       <use xlink:href="#m416cc2646b" x="63.331733" y="202.178594" style="stroke: #000000; stroke-width: 0.8"/>
      </g>
     </g>
     <g id="text_1">
      <!-- 0 -->
      <g transform="translate(60.031733 217.18625) scale(0.11 -0.11)">
       <defs>
        <path id="PingFangHK-Regular-30" d="M 1920 4659 
C 1370 4659 960 4422 685 3936 
C 442 3526 320 2976 320 2285 
C 320 1594 442 1043 685 634 
C 960 154 1370 -90 1920 -90 
C 2464 -90 2874 154 3155 634 
C 3398 1043 3520 1594 3520 2285 
C 3520 2976 3398 3526 3155 3936 
C 2874 4422 2464 4659 1920 4659 
z
M 1920 4211 
C 2330 4211 2624 3994 2803 3552 
C 2931 3245 3002 2822 3002 2285 
C 3002 1754 2931 1331 2803 1018 
C 2624 582 2330 358 1920 358 
C 1510 358 1216 582 1037 1018 
C 909 1331 845 1754 845 2285 
C 845 2822 909 3245 1037 3552 
C 1216 3994 1510 4211 1920 4211 
z
" transform="scale(0.015625)"/>
       </defs>
       <use xlink:href="#PingFangHK-Regular-30"/>
      </g>
     </g>
    </g>
    <g id="xtick_2">
     <g id="line2d_2">
      <g>
       <use xlink:href="#m416cc2646b" x="130.138494" y="202.178594" style="stroke: #000000; stroke-width: 0.8"/>
      </g>
     </g>
     <g id="text_2">
      <!-- 50 -->
      <g transform="translate(123.538494 217.18625) scale(0.11 -0.11)">
       <defs>
        <path id="PingFangHK-Regular-35" d="M 672 4570 
L 429 2048 
L 928 2048 
C 1018 2227 1158 2368 1338 2458 
C 1510 2554 1702 2598 1920 2598 
C 2253 2598 2515 2502 2701 2298 
C 2893 2099 2995 1818 2995 1453 
C 2995 1133 2886 870 2682 666 
C 2470 461 2208 358 1888 358 
C 1606 358 1370 429 1190 563 
C 986 717 870 941 845 1229 
L 326 1229 
C 358 813 531 480 851 237 
C 1133 19 1478 -90 1882 -90 
C 2330 -90 2714 51 3021 326 
C 3347 621 3514 998 3514 1459 
C 3514 1952 3373 2336 3104 2618 
C 2835 2893 2483 3027 2048 3027 
C 1837 3027 1645 2995 1466 2918 
C 1267 2842 1101 2726 973 2573 
L 947 2573 
L 1101 4102 
L 3328 4102 
L 3328 4570 
L 672 4570 
z
" transform="scale(0.015625)"/>
       </defs>
       <use xlink:href="#PingFangHK-Regular-35"/>
       <use xlink:href="#PingFangHK-Regular-30" transform="translate(59.999985 0)"/>
      </g>
     </g>
    </g>
    <g id="xtick_3">
     <g id="line2d_3">
      <g>
       <use xlink:href="#m416cc2646b" x="196.945255" y="202.178594" style="stroke: #000000; stroke-width: 0.8"/>
      </g>
     </g>
     <g id="text_3">
      <!-- 100 -->
      <g transform="translate(188.140099 217.18625) scale(0.11 -0.11)">
       <defs>
        <path id="PingFangHK-Regular-31" d="M 1472 4570 
C 1318 4397 1139 4243 922 4102 
C 704 3974 486 3885 282 3827 
L 282 3302 
C 710 3430 1069 3635 1357 3930 
L 1357 0 
L 1882 0 
L 1882 4570 
L 1472 4570 
z
" transform="scale(0.015625)"/>
       </defs>
       <use xlink:href="#PingFangHK-Regular-31"/>
       <use xlink:href="#PingFangHK-Regular-30" transform="translate(40.099991 0)"/>
       <use xlink:href="#PingFangHK-Regular-30" transform="translate(100.099976 0)"/>
      </g>
     </g>
    </g>
    <g id="xtick_4">
     <g id="line2d_4">
      <g>
       <use xlink:href="#m416cc2646b" x="263.752016" y="202.178594" style="stroke: #000000; stroke-width: 0.8"/>
      </g>
     </g>
     <g id="text_4">
      <!-- 150 -->
      <g transform="translate(254.94686 217.18625) scale(0.11 -0.11)">
       <use xlink:href="#PingFangHK-Regular-31"/>
       <use xlink:href="#PingFangHK-Regular-35" transform="translate(40.099991 0)"/>
       <use xlink:href="#PingFangHK-Regular-30" transform="translate(100.099976 0)"/>
      </g>
     </g>
    </g>
    <g id="xtick_5">
     <g id="line2d_5">
      <g>
       <use xlink:href="#m416cc2646b" x="330.558777" y="202.178594" style="stroke: #000000; stroke-width: 0.8"/>
      </g>
     </g>
     <g id="text_5">
      <!-- 200 -->
      <g transform="translate(320.658777 217.18625) scale(0.11 -0.11)">
       <defs>
        <path id="PingFangHK-Regular-32" d="M 1984 4659 
C 1523 4659 1146 4506 864 4198 
C 582 3898 435 3488 435 2976 
L 960 2976 
C 966 3379 1062 3686 1242 3891 
C 1408 4109 1651 4211 1965 4211 
C 2259 4211 2496 4134 2662 3981 
C 2829 3827 2912 3616 2912 3334 
C 2912 3040 2790 2765 2560 2515 
C 2438 2387 2202 2202 1843 1946 
C 1357 1613 1030 1338 851 1133 
C 544 794 397 416 397 0 
L 3443 0 
L 3443 467 
L 1043 467 
C 1126 774 1459 1126 2042 1517 
C 2515 1837 2829 2086 2989 2253 
C 3283 2573 3437 2931 3437 3328 
C 3437 3725 3296 4051 3027 4294 
C 2752 4538 2406 4659 1984 4659 
z
" transform="scale(0.015625)"/>
       </defs>
       <use xlink:href="#PingFangHK-Regular-32"/>
       <use xlink:href="#PingFangHK-Regular-30" transform="translate(59.999985 0)"/>
       <use xlink:href="#PingFangHK-Regular-30" transform="translate(119.999969 0)"/>
      </g>
     </g>
    </g>
    <g id="text_6">
     <!-- 训练回合 -->
     <g transform="translate(172.277187 232.099531) scale(0.12 -0.12)">
      <defs>
       <path id="PingFangHK-Regular-8bad" d="M 4083 4787 
L 4083 -218 
L 4525 -218 
L 4525 4787 
L 4083 4787 
z
M 5421 5101 
L 5421 -653 
L 5875 -653 
L 5875 5101 
L 5421 5101 
z
M 2810 5082 
L 2810 2266 
C 2797 1056 2541 179 2029 -371 
L 2374 -678 
C 2944 -58 3238 922 3251 2266 
L 3251 5082 
L 2810 5082 
z
M 1037 5165 
L 717 4851 
C 1178 4506 1549 4173 1818 3859 
L 2131 4179 
C 1837 4512 1472 4838 1037 5165 
z
M 288 3270 
L 288 2829 
L 1229 2829 
L 1229 339 
C 1229 230 1178 134 1088 51 
L 1267 -358 
C 1651 -77 2010 243 2349 602 
L 2227 1082 
C 2035 877 1850 691 1670 525 
L 1670 3270 
L 288 3270 
z
" transform="scale(0.015625)"/>
       <path id="PingFangHK-Regular-7ec3" d="M 2310 659 
C 1734 416 1050 218 269 77 
L 326 -384 
C 1069 -230 1734 -38 2310 205 
L 2310 659 
z
M 1344 5216 
C 1114 4461 845 3795 525 3213 
C 467 3130 403 3072 326 3034 
L 442 2611 
C 774 2669 1101 2733 1427 2797 
C 1107 2195 832 1773 608 1517 
C 550 1466 480 1421 403 1382 
L 525 954 
C 1114 1043 1722 1203 2362 1446 
L 2362 1862 
C 1933 1702 1504 1574 1075 1485 
C 1421 1939 1869 2701 2406 3770 
L 1984 3930 
C 1869 3680 1754 3443 1638 3213 
C 1382 3162 1126 3117 870 3078 
C 1178 3571 1478 4224 1786 5043 
L 1344 5216 
z
M 3085 1363 
C 2899 838 2630 326 2278 -179 
L 2675 -403 
C 2982 38 3251 570 3488 1197 
L 3085 1363 
z
M 5485 1370 
L 5075 1235 
C 5331 762 5568 218 5779 -397 
L 6170 -224 
C 5978 339 5747 870 5485 1370 
z
M 4058 -582 
C 4422 -582 4608 -410 4608 -70 
L 4608 1734 
L 5971 1734 
L 5971 2144 
L 4608 2144 
L 4608 3386 
L 3750 3386 
C 3827 3603 3904 3840 3981 4083 
L 5971 4083 
L 5971 4512 
L 4109 4512 
C 4166 4717 4224 4928 4282 5152 
L 3834 5235 
C 3770 4986 3712 4742 3648 4512 
L 2227 4512 
L 2227 4083 
L 3520 4083 
C 3443 3840 3366 3610 3290 3386 
L 2458 3386 
L 2458 2970 
L 3123 2970 
C 2989 2662 2848 2381 2707 2131 
L 2810 1734 
L 4166 1734 
L 4166 70 
C 4166 -96 4083 -179 3923 -179 
L 3309 -160 
L 3424 -582 
L 4058 -582 
z
M 3590 2970 
L 4166 2970 
L 4166 2144 
L 3219 2144 
C 3347 2400 3469 2675 3590 2970 
z
" transform="scale(0.015625)"/>
       <path id="PingFangHK-Regular-56de" d="M 1971 3443 
L 1971 1165 
L 4442 1165 
L 4442 3443 
L 1971 3443 
z
M 4006 1555 
L 2400 1555 
L 2400 3046 
L 4006 3046 
L 4006 1555 
z
M 5766 4845 
L 634 4845 
L 634 -538 
L 1082 -538 
L 1082 -262 
L 5318 -262 
L 5318 -538 
L 5766 -538 
L 5766 4845 
z
M 1082 147 
L 1082 4435 
L 5318 4435 
L 5318 147 
L 1082 147 
z
" transform="scale(0.015625)"/>
       <path id="PingFangHK-Regular-5408" d="M 3034 5235 
C 2278 4346 1338 3603 198 3002 
L 442 2560 
C 1581 3200 2502 3949 3200 4819 
C 3955 3898 4864 3149 5933 2573 
L 6182 3014 
C 5120 3552 4179 4294 3366 5235 
L 3034 5235 
z
M 5222 1946 
L 1178 1946 
L 1178 -634 
L 1626 -634 
L 1626 -250 
L 4774 -250 
L 4774 -634 
L 5222 -634 
L 5222 1946 
z
M 1626 192 
L 1626 1510 
L 4774 1510 
L 4774 192 
L 1626 192 
z
M 1536 3200 
L 1536 2758 
L 4864 2758 
L 4864 3200 
L 1536 3200 
z
" transform="scale(0.015625)"/>
      </defs>
      <use xlink:href="#PingFangHK-Regular-8bad"/>
      <use xlink:href="#PingFangHK-Regular-7ec3" transform="translate(99.999985 0)"/>
      <use xlink:href="#PingFangHK-Regular-56de" transform="translate(199.999969 0)"/>
      <use xlink:href="#PingFangHK-Regular-5408" transform="translate(299.999954 0)"/>
     </g>
    </g>
   </g>
   <g id="matplotlib.axis_2">
    <g id="ytick_1">
     <g id="line2d_6">
      <defs>
       <path id="m137a20f6a4" d="M 0 0 
L -3.5 0 
" style="stroke: #000000; stroke-width: 0.8"/>
      </defs>
      <g>
       <use xlink:href="#m137a20f6a4" x="50.037188" y="202.178594" style="stroke: #000000; stroke-width: 0.8"/>
      </g>
     </g>
     <g id="text_7">
      <!-- 0 -->
      <g transform="translate(36.437188 206.182422) scale(0.11 -0.11)">
       <use xlink:href="#PingFangHK-Regular-30"/>
      </g>
     </g>
    </g>
    <g id="ytick_2">
     <g id="line2d_7">
      <g>
       <use xlink:href="#m137a20f6a4" x="50.037188" y="172.259427" style="stroke: #000000; stroke-width: 0.8"/>
      </g>
     </g>
     <g id="text_8">
      <!-- 100 -->
      <g transform="translate(25.426875 176.263255) scale(0.11 -0.11)">
       <use xlink:href="#PingFangHK-Regular-31"/>
       <use xlink:href="#PingFangHK-Regular-30" transform="translate(40.099991 0)"/>
       <use xlink:href="#PingFangHK-Regular-30" transform="translate(100.099976 0)"/>
      </g>
     </g>
    </g>
    <g id="ytick_3">
     <g id="line2d_8">
      <g>
       <use xlink:href="#m137a20f6a4" x="50.037188" y="142.34026" style="stroke: #000000; stroke-width: 0.8"/>
      </g>
     </g>
     <g id="text_9">
      <!-- 200 -->
      <g transform="translate(23.237188 146.344089) scale(0.11 -0.11)">
       <use xlink:href="#PingFangHK-Regular-32"/>
       <use xlink:href="#PingFangHK-Regular-30" transform="translate(59.999985 0)"/>
       <use xlink:href="#PingFangHK-Regular-30" transform="translate(119.999969 0)"/>
      </g>
     </g>
    </g>
    <g id="ytick_4">
     <g id="line2d_9">
      <g>
       <use xlink:href="#m137a20f6a4" x="50.037188" y="112.421094" style="stroke: #000000; stroke-width: 0.8"/>
      </g>
     </g>
     <g id="text_10">
      <!-- 300 -->
      <g transform="translate(23.237188 116.424922) scale(0.11 -0.11)">
       <defs>
        <path id="PingFangHK-Regular-33" d="M 1965 4659 
C 1530 4659 1178 4538 909 4288 
C 627 4038 461 3693 422 3251 
L 941 3251 
C 973 3558 1075 3795 1254 3962 
C 1427 4128 1664 4205 1971 4205 
C 2266 4205 2502 4134 2669 3981 
C 2822 3840 2906 3642 2906 3386 
C 2906 3130 2822 2931 2662 2790 
C 2502 2656 2272 2586 1965 2586 
L 1613 2586 
L 1613 2176 
L 1984 2176 
C 2304 2176 2547 2106 2726 1952 
C 2906 1798 2995 1587 2995 1312 
C 2995 1043 2899 819 2720 640 
C 2522 454 2259 358 1933 358 
C 1645 358 1408 442 1216 595 
C 992 781 870 1056 858 1414 
L 326 1414 
C 365 902 544 512 870 243 
C 1146 26 1498 -90 1933 -90 
C 2406 -90 2790 45 3085 314 
C 3373 576 3520 915 3520 1331 
C 3520 1600 3443 1824 3290 2003 
C 3149 2182 2944 2310 2675 2394 
C 3174 2560 3424 2906 3424 3418 
C 3424 3802 3290 4102 3027 4326 
C 2758 4550 2400 4659 1965 4659 
z
" transform="scale(0.015625)"/>
       </defs>
       <use xlink:href="#PingFangHK-Regular-33"/>
       <use xlink:href="#PingFangHK-Regular-30" transform="translate(59.999985 0)"/>
       <use xlink:href="#PingFangHK-Regular-30" transform="translate(119.999969 0)"/>
      </g>
     </g>
    </g>
    <g id="ytick_5">
     <g id="line2d_10">
      <g>
       <use xlink:href="#m137a20f6a4" x="50.037188" y="82.501927" style="stroke: #000000; stroke-width: 0.8"/>
      </g>
     </g>
     <g id="text_11">
      <!-- 400 -->
      <g transform="translate(23.237188 86.505755) scale(0.11 -0.11)">
       <defs>
        <path id="PingFangHK-Regular-34" d="M 2458 4570 
L 154 1536 
L 154 1037 
L 2451 1037 
L 2451 0 
L 2950 0 
L 2950 1037 
L 3693 1037 
L 3693 1466 
L 2950 1466 
L 2950 4570 
L 2458 4570 
z
M 2432 3885 
L 2451 3885 
L 2451 1466 
L 595 1466 
L 2432 3885 
z
" transform="scale(0.015625)"/>
       </defs>
       <use xlink:href="#PingFangHK-Regular-34"/>
       <use xlink:href="#PingFangHK-Regular-30" transform="translate(59.999985 0)"/>
       <use xlink:href="#PingFangHK-Regular-30" transform="translate(119.999969 0)"/>
      </g>
     </g>
    </g>
    <g id="ytick_6">
     <g id="line2d_11">
      <g>
       <use xlink:href="#m137a20f6a4" x="50.037188" y="52.58276" style="stroke: #000000; stroke-width: 0.8"/>
      </g>
     </g>
     <g id="text_12">
      <!-- 500 -->
      <g transform="translate(23.237188 56.586589) scale(0.11 -0.11)">
       <use xlink:href="#PingFangHK-Regular-35"/>
       <use xlink:href="#PingFangHK-Regular-30" transform="translate(59.999985 0)"/>
       <use xlink:href="#PingFangHK-Regular-30" transform="translate(119.999969 0)"/>
      </g>
     </g>
    </g>
    <g id="ytick_7">
     <g id="line2d_12">
      <g>
       <use xlink:href="#m137a20f6a4" x="50.037188" y="22.663594" style="stroke: #000000; stroke-width: 0.8"/>
      </g>
     </g>
     <g id="text_13">
      <!-- 600 -->
      <g transform="translate(23.237188 26.667422) scale(0.11 -0.11)">
       <defs>
        <path id="PingFangHK-Regular-36" d="M 1984 4659 
C 1466 4659 1056 4422 755 3942 
C 467 3488 326 2893 326 2163 
C 326 1466 454 922 723 531 
C 1005 122 1421 -90 1978 -90 
C 2426 -90 2790 64 3085 358 
C 3373 653 3520 1030 3520 1478 
C 3520 1926 3386 2285 3123 2566 
C 2854 2848 2502 2989 2067 2989 
C 1798 2989 1562 2925 1357 2790 
C 1139 2662 979 2477 864 2240 
L 838 2240 
C 832 2323 832 2381 832 2406 
C 832 2925 928 3354 1133 3686 
C 1338 4045 1619 4218 1978 4218 
C 2509 4218 2822 3962 2925 3437 
L 3443 3437 
C 3315 4256 2829 4659 1984 4659 
z
M 1965 2554 
C 2278 2554 2528 2458 2720 2253 
C 2906 2061 3002 1805 3002 1478 
C 3002 1152 2906 883 2714 666 
C 2522 461 2272 352 1965 352 
C 1645 352 1395 461 1203 678 
C 1011 883 922 1146 922 1466 
C 922 1786 1018 2042 1216 2246 
C 1414 2451 1664 2554 1965 2554 
z
" transform="scale(0.015625)"/>
       </defs>
       <use xlink:href="#PingFangHK-Regular-36"/>
       <use xlink:href="#PingFangHK-Regular-30" transform="translate(59.999985 0)"/>
       <use xlink:href="#PingFangHK-Regular-30" transform="translate(119.999969 0)"/>
      </g>
     </g>
    </g>
    <g id="text_14">
     <!-- Value Loss -->
     <g style="fill: #ef4444" transform="translate(16.663594 145.343594) rotate(-90) scale(0.13 -0.13)">
      <defs>
       <path id="PingFangHK-Regular-56" d="M 32 4570 
L 1722 0 
L 2368 0 
L 4058 4570 
L 3482 4570 
L 2054 570 
L 2035 570 
L 608 4570 
L 32 4570 
z
" transform="scale(0.015625)"/>
       <path id="PingFangHK-Regular-61" d="M 1837 3398 
C 1440 3398 1126 3322 883 3168 
C 614 3002 442 2739 371 2394 
L 877 2355 
C 928 2566 1037 2726 1210 2829 
C 1363 2931 1562 2976 1805 2976 
C 2381 2976 2669 2701 2669 2144 
L 2669 1971 
L 1875 1958 
C 1376 1952 992 1856 723 1677 
C 416 1485 269 1203 269 826 
C 269 557 371 333 576 160 
C 774 -6 1037 -90 1370 -90 
C 1677 -90 1952 -19 2195 115 
C 2400 230 2573 378 2701 557 
L 2701 0 
L 3181 0 
L 3181 2125 
C 3181 2509 3078 2810 2886 3027 
C 2656 3277 2310 3398 1837 3398 
z
M 2669 1587 
L 2669 1306 
C 2669 1050 2547 819 2310 621 
C 2067 416 1792 314 1478 314 
C 1274 314 1107 365 979 461 
C 851 563 794 685 794 838 
C 794 1318 1165 1562 1907 1574 
L 2669 1587 
z
" transform="scale(0.015625)"/>
       <path id="PingFangHK-Regular-6c" d="M 499 4659 
L 499 0 
L 1005 0 
L 1005 4659 
L 499 4659 
z
" transform="scale(0.015625)"/>
       <path id="PingFangHK-Regular-75" d="M 397 3309 
L 397 1261 
C 397 365 794 -90 1600 -90 
C 2048 -90 2406 115 2675 512 
L 2675 0 
L 3187 0 
L 3187 3309 
L 2675 3309 
L 2675 1293 
C 2637 1011 2528 781 2349 602 
C 2176 435 1978 346 1760 346 
C 1459 346 1242 429 1107 582 
C 973 736 909 973 909 1286 
L 909 3309 
L 397 3309 
z
" transform="scale(0.015625)"/>
       <path id="PingFangHK-Regular-65" d="M 1760 3398 
C 1280 3398 902 3226 621 2880 
C 339 2554 205 2144 205 1658 
C 205 1120 346 698 640 378 
C 922 70 1306 -90 1779 -90 
C 2208 -90 2560 38 2835 282 
C 3059 486 3206 742 3283 1062 
L 2771 1062 
C 2688 832 2579 659 2438 544 
C 2272 410 2048 339 1779 339 
C 1466 339 1216 442 1037 646 
C 858 851 762 1139 736 1510 
L 3347 1510 
C 3334 2086 3206 2541 2963 2861 
C 2694 3219 2291 3398 1760 3398 
z
M 1773 2970 
C 2400 2970 2752 2618 2816 1907 
L 749 1907 
C 781 2234 883 2490 1062 2682 
C 1242 2874 1478 2970 1773 2970 
z
" transform="scale(0.015625)"/>
       <path id="PingFangHK-Regular-20" transform="scale(0.015625)"/>
       <path id="PingFangHK-Regular-4c" d="M 461 4570 
L 461 0 
L 3622 0 
L 3622 454 
L 979 454 
L 979 4570 
L 461 4570 
z
" transform="scale(0.015625)"/>
       <path id="PingFangHK-Regular-6f" d="M 1875 3398 
C 1376 3398 986 3232 691 2886 
C 410 2560 269 2150 269 1651 
C 269 1158 410 749 691 429 
C 986 83 1376 -90 1875 -90 
C 2368 -90 2765 83 3066 429 
C 3341 749 3482 1158 3482 1651 
C 3482 2150 3341 2560 3059 2886 
C 2765 3232 2368 3398 1875 3398 
z
M 1875 2970 
C 2221 2970 2496 2835 2701 2566 
C 2874 2323 2963 2022 2963 1651 
C 2963 1293 2874 986 2701 742 
C 2496 474 2221 339 1875 339 
C 1523 339 1248 474 1056 742 
C 877 986 794 1286 794 1651 
C 794 2022 877 2323 1056 2566 
C 1248 2835 1523 2970 1875 2970 
z
" transform="scale(0.015625)"/>
       <path id="PingFangHK-Regular-73" d="M 1568 3398 
C 1197 3398 890 3315 659 3149 
C 410 2982 288 2765 288 2483 
C 288 2202 410 1990 666 1837 
C 819 1734 1094 1638 1485 1542 
C 1843 1453 2080 1382 2189 1331 
C 2394 1229 2502 1088 2502 902 
C 2502 531 2202 339 1613 339 
C 1331 339 1120 390 979 493 
C 838 608 742 794 704 1056 
L 205 1056 
C 282 294 755 -90 1626 -90 
C 2560 -90 3027 256 3027 934 
C 3027 1222 2893 1446 2630 1613 
C 2458 1722 2176 1824 1779 1920 
C 1446 2010 1216 2080 1094 2138 
C 902 2234 813 2355 813 2496 
C 813 2643 883 2758 1024 2842 
C 1152 2931 1331 2970 1562 2970 
C 1824 2970 2029 2918 2170 2816 
C 2298 2726 2381 2573 2426 2368 
L 2925 2368 
C 2835 3059 2387 3398 1568 3398 
z
" transform="scale(0.015625)"/>
      </defs>
      <use xlink:href="#PingFangHK-Regular-56"/>
      <use xlink:href="#PingFangHK-Regular-61" transform="translate(63.899994 0)"/>
      <use xlink:href="#PingFangHK-Regular-6c" transform="translate(119.799988 0)"/>
      <use xlink:href="#PingFangHK-Regular-75" transform="translate(143.299973 0)"/>
      <use xlink:href="#PingFangHK-Regular-65" transform="translate(199.299957 0)"/>
      <use xlink:href="#PingFangHK-Regular-20" transform="translate(254.799942 0)"/>
      <use xlink:href="#PingFangHK-Regular-4c" transform="translate(288.09993 0)"/>
      <use xlink:href="#PingFangHK-Regular-6f" transform="translate(346.899918 0)"/>
      <use xlink:href="#PingFangHK-Regular-73" transform="translate(405.499908 0)"/>
      <use xlink:href="#PingFangHK-Regular-73" transform="translate(455.999893 0)"/>
     </g>
    </g>
   </g>
   <g id="line2d_13">
    <path d="M 63.331733 47.862749 
L 64.667868 49.311008 
L 66.004003 51.255677 
L 67.340139 56.214369 
L 68.676274 57.356882 
L 70.012409 58.148173 
L 71.348544 59.76687 
L 72.68468 62.805581 
L 74.020815 60.122182 
L 76.693085 64.31458 
L 78.02922 70.205335 
L 79.365356 71.575811 
L 80.701491 73.695744 
L 82.037626 78.550622 
L 83.373761 79.967252 
L 84.709896 78.121866 
L 86.046032 84.595275 
L 87.382167 89.038359 
L 88.718302 92.556113 
L 90.054437 92.600391 
L 91.390573 96.448553 
L 92.726708 95.118488 
L 94.062843 96.161585 
L 95.398978 97.890819 
L 96.735113 99.997472 
L 98.071249 101.43148 
L 99.407384 101.615046 
L 100.743519 103.752721 
L 102.079654 100.942428 
L 103.41579 102.555861 
L 104.751925 101.809443 
L 106.08806 101.66961 
L 107.424195 103.20755 
L 108.76033 105.179643 
L 110.096466 105.694951 
L 111.432601 107.390989 
L 112.768736 110.265882 
L 114.104871 110.863539 
L 115.441007 111.736076 
L 116.777142 109.686615 
L 118.113277 112.962173 
L 119.449412 112.491155 
L 122.121683 114.738341 
L 123.457818 119.019574 
L 124.793953 116.760276 
L 126.130088 123.853855 
L 127.466224 125.375885 
L 128.802359 129.642851 
L 130.138494 131.691494 
L 131.474629 135.946077 
L 132.810764 133.116054 
L 134.1469 131.833938 
L 135.483035 127.651509 
L 136.81917 133.517639 
L 138.155305 133.751529 
L 139.491441 133.0022 
L 140.827576 135.164932 
L 142.163711 140.131833 
L 143.499846 138.411504 
L 144.835981 140.451947 
L 146.172117 140.602706 
L 147.508252 139.558795 
L 148.844387 139.631344 
L 150.180522 139.555497 
L 151.516658 138.531523 
L 152.852793 141.091455 
L 154.188928 142.858419 
L 155.525063 143.622714 
L 156.861198 144.029022 
L 158.197334 144.637929 
L 159.533469 147.092005 
L 160.869604 147.355747 
L 162.205739 146.190727 
L 163.541875 147.924104 
L 167.55028 148.858069 
L 168.886415 150.048757 
L 170.222551 149.027325 
L 172.894821 148.323168 
L 174.230956 152.052293 
L 175.567092 155.337559 
L 176.903227 155.808955 
L 178.239362 158.797929 
L 179.575497 158.360064 
L 180.911632 158.91384 
L 182.247768 157.11512 
L 183.583903 155.615583 
L 184.920038 156.502535 
L 186.256173 159.910382 
L 187.592309 158.067112 
L 188.928444 157.947948 
L 190.264579 160.61755 
L 191.600714 162.572553 
L 192.936849 160.059368 
L 194.272985 159.141649 
L 195.60912 165.065904 
L 196.945255 164.419365 
L 198.28139 163.169848 
L 200.953661 167.999274 
L 202.289796 167.437667 
L 203.625931 168.230568 
L 204.962066 165.771096 
L 206.298202 164.372031 
L 207.634337 167.286923 
L 208.970472 168.590213 
L 210.306607 171.858777 
L 211.642743 177.949276 
L 212.978878 175.816243 
L 214.315013 175.106066 
L 215.651148 174.197077 
L 216.987283 174.629072 
L 218.323419 173.636493 
L 219.659554 177.501879 
L 220.995689 179.741593 
L 222.331824 175.235507 
L 223.66796 174.62042 
L 225.004095 174.477561 
L 226.34023 173.684872 
L 227.676365 169.135648 
L 229.0125 170.120089 
L 230.348636 170.000835 
L 231.684771 168.479 
L 233.020906 169.099931 
L 234.357041 171.084164 
L 235.693177 173.328393 
L 237.029312 174.468658 
L 238.365447 177.506292 
L 239.701582 177.771125 
L 241.037717 181.154501 
L 242.373853 179.469267 
L 243.709988 178.001692 
L 245.046123 177.8754 
L 246.382258 179.05771 
L 247.718394 178.129061 
L 249.054529 181.092887 
L 250.390664 179.743482 
L 251.726799 180.767218 
L 253.062934 183.811089 
L 254.39907 182.558217 
L 255.735205 182.901605 
L 257.07134 184.563383 
L 258.407475 181.425418 
L 259.743611 178.647106 
L 261.079746 178.063944 
L 262.415881 179.59066 
L 263.752016 180.006398 
L 265.088151 182.530512 
L 266.424287 184.465103 
L 267.760422 185.02365 
L 269.096557 182.623457 
L 270.432692 186.446244 
L 271.768828 187.186841 
L 273.104963 184.848875 
L 274.441098 184.243817 
L 275.777233 186.669051 
L 277.113368 183.717972 
L 278.449504 184.443031 
L 279.785639 180.658942 
L 281.121774 181.92333 
L 282.457909 179.315022 
L 283.794045 177.994089 
L 285.13018 173.969055 
L 286.466315 177.569394 
L 287.80245 179.205927 
L 289.138585 179.655475 
L 290.474721 180.871185 
L 291.810856 180.392851 
L 293.146991 182.976184 
L 294.483126 183.514879 
L 295.819262 183.829874 
L 297.155397 181.838562 
L 298.491532 184.066862 
L 299.827667 184.184472 
L 301.163802 183.582941 
L 302.499938 185.818437 
L 303.836073 184.862426 
L 305.172208 183.659374 
L 306.508343 180.257866 
L 307.844479 179.648261 
L 309.180614 179.893496 
L 310.516749 181.333383 
L 311.852884 180.116477 
L 313.189019 181.478435 
L 314.525155 182.198049 
L 315.86129 179.393764 
L 317.197425 182.296933 
L 318.53356 184.022385 
L 319.869695 186.471402 
L 321.205831 188.294841 
L 322.541966 189.341659 
L 323.878101 188.190145 
L 325.214236 186.263616 
L 326.550372 185.606792 
L 327.886507 183.980829 
L 329.222642 185.111944 
L 329.222642 185.111944 
" clip-path="url(#p95e8307266)" style="fill: none; stroke: #ef4444; stroke-opacity: 0.9; stroke-width: 1.8; stroke-linecap: square"/>
   </g>
   <g id="patch_3">
    <path d="M 50.037188 202.178594 
L 50.037188 22.663594 
" style="fill: none; stroke: #000000; stroke-width: 0.8; stroke-linejoin: miter; stroke-linecap: square"/>
   </g>
   <g id="patch_4">
    <path d="M 50.037188 202.178594 
L 342.517187 202.178594 
" style="fill: none; stroke: #000000; stroke-width: 0.8; stroke-linejoin: miter; stroke-linecap: square"/>
   </g>
   <g id="text_15">
    <!-- Value Loss -->
    <g transform="translate(163.354687 16.663594) scale(0.13 -0.13)">
     <use xlink:href="#PingFangHK-Regular-56"/>
     <use xlink:href="#PingFangHK-Regular-61" transform="translate(63.899994 0)"/>
     <use xlink:href="#PingFangHK-Regular-6c" transform="translate(119.799988 0)"/>
     <use xlink:href="#PingFangHK-Regular-75" transform="translate(143.299973 0)"/>
     <use xlink:href="#PingFangHK-Regular-65" transform="translate(199.299957 0)"/>
     <use xlink:href="#PingFangHK-Regular-20" transform="translate(254.799942 0)"/>
     <use xlink:href="#PingFangHK-Regular-4c" transform="translate(288.09993 0)"/>
     <use xlink:href="#PingFangHK-Regular-6f" transform="translate(346.899918 0)"/>
     <use xlink:href="#PingFangHK-Regular-73" transform="translate(405.499908 0)"/>
     <use xlink:href="#PingFangHK-Regular-73" transform="translate(455.999893 0)"/>
    </g>
   </g>
  </g>
 </g>
 <defs>
  <clipPath id="p95e8307266">
   <rect x="50.037188" y="22.663594" width="292.48" height="179.515"/>
  </clipPath>
 </defs>
</svg>
