<?xml version="1.0" encoding="UTF-8"?>
<svg xmlns="http://www.w3.org/2000/svg" xmlns:xlink="http://www.w3.org/1999/xlink" width="281.71pt" height="205.17pt" viewBox="0 0 281.71 205.17">
<defs>
<g>
<g id="glyph-0-0">
<path d="M 4.5625 -2.203125 L 2 -2.203125 L 1.5625 -1.171875 C 1.445312 -0.910156 1.390625 -0.71875 1.390625 -0.59375 C 1.390625 -0.488281 1.4375 -0.398438 1.53125 -0.328125 C 1.625 -0.253906 1.832031 -0.207031 2.15625 -0.1875 L 2.15625 0 L 0.078125 0 L 0.078125 -0.1875 C 0.347656 -0.226562 0.523438 -0.289062 0.609375 -0.375 C 0.773438 -0.53125 0.957031 -0.84375 1.15625 -1.3125 L 3.484375 -6.75 L 3.65625 -6.75 L 5.953125 -1.265625 C 6.140625 -0.816406 6.304688 -0.523438 6.453125 -0.390625 C 6.609375 -0.265625 6.820312 -0.195312 7.09375 -0.1875 L 7.09375 0 L 4.484375 0 L 4.484375 -0.1875 C 4.742188 -0.195312 4.921875 -0.238281 5.015625 -0.3125 C 5.109375 -0.382812 5.15625 -0.472656 5.15625 -0.578125 C 5.15625 -0.722656 5.085938 -0.953125 4.953125 -1.265625 Z M 4.421875 -2.5625 L 3.3125 -5.234375 L 2.15625 -2.5625 Z M 4.421875 -2.5625 "/>
</g>
<g id="glyph-0-1">
<path d="M 4.09375 -1.6875 C 3.976562 -1.101562 3.742188 -0.648438 3.390625 -0.328125 C 3.035156 -0.015625 2.648438 0.140625 2.234375 0.140625 C 1.722656 0.140625 1.28125 -0.0703125 0.90625 -0.5 C 0.53125 -0.925781 0.34375 -1.5 0.34375 -2.21875 C 0.34375 -2.925781 0.550781 -3.5 0.96875 -3.9375 C 1.382812 -4.375 1.882812 -4.59375 2.46875 -4.59375 C 2.90625 -4.59375 3.265625 -4.472656 3.546875 -4.234375 C 3.828125 -4.003906 3.96875 -3.765625 3.96875 -3.515625 C 3.96875 -3.390625 3.925781 -3.289062 3.84375 -3.21875 C 3.769531 -3.144531 3.660156 -3.109375 3.515625 -3.109375 C 3.328125 -3.109375 3.1875 -3.171875 3.09375 -3.296875 C 3.03125 -3.359375 2.988281 -3.484375 2.96875 -3.671875 C 2.957031 -3.867188 2.894531 -4.019531 2.78125 -4.125 C 2.664062 -4.21875 2.507812 -4.265625 2.3125 -4.265625 C 1.988281 -4.265625 1.726562 -4.144531 1.53125 -3.90625 C 1.257812 -3.582031 1.125 -3.160156 1.125 -2.640625 C 1.125 -2.109375 1.253906 -1.640625 1.515625 -1.234375 C 1.773438 -0.828125 2.128906 -0.625 2.578125 -0.625 C 2.898438 -0.625 3.1875 -0.734375 3.4375 -0.953125 C 3.613281 -1.097656 3.785156 -1.367188 3.953125 -1.765625 Z M 4.09375 -1.6875 "/>
</g>
<g id="glyph-0-2">
<path d="M 1.609375 -5.921875 L 1.609375 -4.453125 L 2.640625 -4.453125 L 2.640625 -4.125 L 1.609375 -4.125 L 1.609375 -1.234375 C 1.609375 -0.941406 1.648438 -0.742188 1.734375 -0.640625 C 1.816406 -0.535156 1.921875 -0.484375 2.046875 -0.484375 C 2.148438 -0.484375 2.253906 -0.515625 2.359375 -0.578125 C 2.460938 -0.648438 2.539062 -0.753906 2.59375 -0.890625 L 2.78125 -0.890625 C 2.664062 -0.566406 2.503906 -0.320312 2.296875 -0.15625 C 2.085938 0 1.875 0.078125 1.65625 0.078125 C 1.507812 0.078125 1.363281 0.0351562 1.21875 -0.046875 C 1.070312 -0.128906 0.960938 -0.25 0.890625 -0.40625 C 0.828125 -0.5625 0.796875 -0.800781 0.796875 -1.125 L 0.796875 -4.125 L 0.09375 -4.125 L 0.09375 -4.28125 C 0.269531 -4.351562 0.453125 -4.472656 0.640625 -4.640625 C 0.828125 -4.804688 0.992188 -5.007812 1.140625 -5.25 C 1.210938 -5.375 1.316406 -5.597656 1.453125 -5.921875 Z M 1.609375 -5.921875 "/>
</g>
<g id="glyph-0-3">
<path d="M 2.5 -4.59375 C 3.164062 -4.59375 3.707031 -4.335938 4.125 -3.828125 C 4.46875 -3.378906 4.640625 -2.875 4.640625 -2.3125 C 4.640625 -1.914062 4.539062 -1.507812 4.34375 -1.09375 C 4.15625 -0.6875 3.894531 -0.378906 3.5625 -0.171875 C 3.226562 0.0351562 2.851562 0.140625 2.4375 0.140625 C 1.769531 0.140625 1.238281 -0.128906 0.84375 -0.671875 C 0.5 -1.117188 0.328125 -1.625 0.328125 -2.1875 C 0.328125 -2.59375 0.425781 -3 0.625 -3.40625 C 0.832031 -3.8125 1.101562 -4.109375 1.4375 -4.296875 C 1.769531 -4.492188 2.125 -4.59375 2.5 -4.59375 Z M 2.34375 -4.28125 C 2.164062 -4.28125 1.988281 -4.226562 1.8125 -4.125 C 1.644531 -4.019531 1.503906 -3.835938 1.390625 -3.578125 C 1.285156 -3.328125 1.234375 -3 1.234375 -2.59375 C 1.234375 -1.945312 1.363281 -1.382812 1.625 -0.90625 C 1.882812 -0.4375 2.222656 -0.203125 2.640625 -0.203125 C 2.960938 -0.203125 3.222656 -0.332031 3.421875 -0.59375 C 3.628906 -0.851562 3.734375 -1.300781 3.734375 -1.9375 C 3.734375 -2.726562 3.5625 -3.351562 3.21875 -3.8125 C 2.988281 -4.125 2.695312 -4.28125 2.34375 -4.28125 Z M 2.34375 -4.28125 "/>
</g>
<g id="glyph-0-4">
<path d="M 1.609375 -4.59375 L 1.609375 -3.59375 C 1.984375 -4.257812 2.367188 -4.59375 2.765625 -4.59375 C 2.941406 -4.59375 3.085938 -4.535156 3.203125 -4.421875 C 3.328125 -4.316406 3.390625 -4.191406 3.390625 -4.046875 C 3.390625 -3.921875 3.34375 -3.8125 3.25 -3.71875 C 3.164062 -3.632812 3.066406 -3.59375 2.953125 -3.59375 C 2.835938 -3.59375 2.707031 -3.648438 2.5625 -3.765625 C 2.425781 -3.878906 2.328125 -3.9375 2.265625 -3.9375 C 2.203125 -3.9375 2.132812 -3.898438 2.0625 -3.828125 C 1.914062 -3.703125 1.765625 -3.484375 1.609375 -3.171875 L 1.609375 -1.046875 C 1.609375 -0.796875 1.640625 -0.609375 1.703125 -0.484375 C 1.742188 -0.390625 1.816406 -0.3125 1.921875 -0.25 C 2.035156 -0.195312 2.191406 -0.171875 2.390625 -0.171875 L 2.390625 0 L 0.109375 0 L 0.109375 -0.171875 C 0.335938 -0.171875 0.507812 -0.207031 0.625 -0.28125 C 0.695312 -0.332031 0.75 -0.414062 0.78125 -0.53125 C 0.800781 -0.582031 0.8125 -0.738281 0.8125 -1 L 0.8125 -2.734375 C 0.8125 -3.253906 0.800781 -3.5625 0.78125 -3.65625 C 0.757812 -3.757812 0.71875 -3.832031 0.65625 -3.875 C 0.601562 -3.914062 0.535156 -3.9375 0.453125 -3.9375 C 0.347656 -3.9375 0.234375 -3.914062 0.109375 -3.875 L 0.0625 -4.046875 L 1.40625 -4.59375 Z M 1.609375 -4.59375 "/>
</g>
<g id="glyph-0-5">
<path d="M 2.078125 -6.234375 L 2.078125 -3.625 L 3.53125 -3.625 C 3.90625 -3.625 4.15625 -3.679688 4.28125 -3.796875 C 4.457031 -3.953125 4.554688 -4.21875 4.578125 -4.59375 L 4.75 -4.59375 L 4.75 -2.296875 L 4.578125 -2.296875 C 4.523438 -2.617188 4.476562 -2.820312 4.4375 -2.90625 C 4.375 -3.019531 4.273438 -3.109375 4.140625 -3.171875 C 4.015625 -3.242188 3.8125 -3.28125 3.53125 -3.28125 L 2.078125 -3.28125 L 2.078125 -1.09375 C 2.078125 -0.800781 2.085938 -0.625 2.109375 -0.5625 C 2.140625 -0.5 2.1875 -0.445312 2.25 -0.40625 C 2.320312 -0.375 2.445312 -0.359375 2.625 -0.359375 L 3.75 -0.359375 C 4.125 -0.359375 4.394531 -0.382812 4.5625 -0.4375 C 4.726562 -0.488281 4.890625 -0.59375 5.046875 -0.75 C 5.242188 -0.945312 5.453125 -1.25 5.671875 -1.65625 L 5.859375 -1.65625 L 5.296875 0 L 0.203125 0 L 0.203125 -0.1875 L 0.4375 -0.1875 C 0.59375 -0.1875 0.738281 -0.222656 0.875 -0.296875 C 0.976562 -0.347656 1.050781 -0.425781 1.09375 -0.53125 C 1.132812 -0.632812 1.15625 -0.84375 1.15625 -1.15625 L 1.15625 -5.453125 C 1.15625 -5.867188 1.109375 -6.125 1.015625 -6.21875 C 0.898438 -6.351562 0.707031 -6.421875 0.4375 -6.421875 L 0.203125 -6.421875 L 0.203125 -6.59375 L 5.296875 -6.59375 L 5.359375 -5.15625 L 5.171875 -5.15625 C 5.109375 -5.5 5.035156 -5.734375 4.953125 -5.859375 C 4.867188 -5.992188 4.742188 -6.097656 4.578125 -6.171875 C 4.453125 -6.210938 4.222656 -6.234375 3.890625 -6.234375 Z M 2.078125 -6.234375 "/>
</g>
<g id="glyph-0-6">
<path d="M 1.609375 -3.640625 C 2.128906 -4.273438 2.628906 -4.59375 3.109375 -4.59375 C 3.347656 -4.59375 3.554688 -4.53125 3.734375 -4.40625 C 3.910156 -4.28125 4.050781 -4.082031 4.15625 -3.8125 C 4.226562 -3.613281 4.265625 -3.3125 4.265625 -2.90625 L 4.265625 -1 C 4.265625 -0.71875 4.285156 -0.53125 4.328125 -0.4375 C 4.359375 -0.351562 4.414062 -0.285156 4.5 -0.234375 C 4.582031 -0.191406 4.726562 -0.171875 4.9375 -0.171875 L 4.9375 0 L 2.734375 0 L 2.734375 -0.171875 L 2.828125 -0.171875 C 3.035156 -0.171875 3.179688 -0.203125 3.265625 -0.265625 C 3.347656 -0.328125 3.40625 -0.421875 3.4375 -0.546875 C 3.445312 -0.597656 3.453125 -0.75 3.453125 -1 L 3.453125 -2.828125 C 3.453125 -3.234375 3.398438 -3.523438 3.296875 -3.703125 C 3.191406 -3.890625 3.015625 -3.984375 2.765625 -3.984375 C 2.378906 -3.984375 1.992188 -3.773438 1.609375 -3.359375 L 1.609375 -1 C 1.609375 -0.707031 1.628906 -0.523438 1.671875 -0.453125 C 1.710938 -0.359375 1.769531 -0.285156 1.84375 -0.234375 C 1.925781 -0.191406 2.09375 -0.171875 2.34375 -0.171875 L 2.34375 0 L 0.125 0 L 0.125 -0.171875 L 0.234375 -0.171875 C 0.453125 -0.171875 0.601562 -0.226562 0.6875 -0.34375 C 0.769531 -0.457031 0.8125 -0.675781 0.8125 -1 L 0.8125 -2.65625 C 0.8125 -3.195312 0.796875 -3.523438 0.765625 -3.640625 C 0.742188 -3.753906 0.707031 -3.832031 0.65625 -3.875 C 0.601562 -3.914062 0.535156 -3.9375 0.453125 -3.9375 C 0.367188 -3.9375 0.257812 -3.914062 0.125 -3.875 L 0.0625 -4.046875 L 1.40625 -4.59375 L 1.609375 -4.59375 Z M 1.609375 -3.640625 "/>
</g>
<g id="glyph-0-7">
<path d="M 0.078125 -4.453125 L 2.1875 -4.453125 L 2.1875 -4.28125 L 2.046875 -4.28125 C 1.921875 -4.28125 1.820312 -4.25 1.75 -4.1875 C 1.6875 -4.125 1.65625 -4.039062 1.65625 -3.9375 C 1.65625 -3.820312 1.6875 -3.6875 1.75 -3.53125 L 2.796875 -1.078125 L 3.828125 -3.625 C 3.910156 -3.8125 3.953125 -3.953125 3.953125 -4.046875 C 3.953125 -4.085938 3.9375 -4.125 3.90625 -4.15625 C 3.875 -4.195312 3.828125 -4.226562 3.765625 -4.25 C 3.710938 -4.269531 3.601562 -4.28125 3.4375 -4.28125 L 3.4375 -4.453125 L 4.890625 -4.453125 L 4.890625 -4.28125 C 4.722656 -4.269531 4.609375 -4.234375 4.546875 -4.171875 C 4.429688 -4.078125 4.328125 -3.914062 4.234375 -3.6875 L 2.65625 0.140625 L 2.453125 0.140625 L 0.859375 -3.625 C 0.785156 -3.800781 0.71875 -3.925781 0.65625 -4 C 0.59375 -4.082031 0.507812 -4.148438 0.40625 -4.203125 C 0.351562 -4.222656 0.242188 -4.25 0.078125 -4.28125 Z M 0.078125 -4.453125 "/>
</g>
<g id="glyph-0-8">
<path d="M 1.453125 -6.921875 C 1.585938 -6.921875 1.703125 -6.875 1.796875 -6.78125 C 1.890625 -6.6875 1.9375 -6.570312 1.9375 -6.4375 C 1.9375 -6.289062 1.890625 -6.171875 1.796875 -6.078125 C 1.703125 -5.984375 1.585938 -5.9375 1.453125 -5.9375 C 1.304688 -5.9375 1.1875 -5.984375 1.09375 -6.078125 C 1 -6.171875 0.953125 -6.289062 0.953125 -6.4375 C 0.953125 -6.570312 1 -6.6875 1.09375 -6.78125 C 1.1875 -6.875 1.304688 -6.921875 1.453125 -6.921875 Z M 1.84375 -4.59375 L 1.84375 -1 C 1.84375 -0.726562 1.863281 -0.546875 1.90625 -0.453125 C 1.945312 -0.359375 2.003906 -0.285156 2.078125 -0.234375 C 2.160156 -0.191406 2.3125 -0.171875 2.53125 -0.171875 L 2.53125 0 L 0.359375 0 L 0.359375 -0.171875 C 0.578125 -0.171875 0.722656 -0.191406 0.796875 -0.234375 C 0.867188 -0.273438 0.925781 -0.34375 0.96875 -0.4375 C 1.019531 -0.539062 1.046875 -0.726562 1.046875 -1 L 1.046875 -2.71875 C 1.046875 -3.207031 1.03125 -3.523438 1 -3.671875 C 0.976562 -3.773438 0.941406 -3.84375 0.890625 -3.875 C 0.835938 -3.914062 0.769531 -3.9375 0.6875 -3.9375 C 0.601562 -3.9375 0.492188 -3.914062 0.359375 -3.875 L 0.296875 -4.046875 L 1.640625 -4.59375 Z M 1.84375 -4.59375 "/>
</g>
<g id="glyph-0-9">
<path d="M 1.640625 -3.640625 C 1.960938 -3.960938 2.148438 -4.148438 2.203125 -4.203125 C 2.347656 -4.328125 2.503906 -4.421875 2.671875 -4.484375 C 2.847656 -4.554688 3.019531 -4.59375 3.1875 -4.59375 C 3.46875 -4.59375 3.707031 -4.507812 3.90625 -4.34375 C 4.101562 -4.1875 4.238281 -3.953125 4.3125 -3.640625 C 4.644531 -4.023438 4.925781 -4.28125 5.15625 -4.40625 C 5.382812 -4.53125 5.617188 -4.59375 5.859375 -4.59375 C 6.097656 -4.59375 6.304688 -4.53125 6.484375 -4.40625 C 6.671875 -4.28125 6.820312 -4.082031 6.9375 -3.8125 C 7 -3.625 7.03125 -3.328125 7.03125 -2.921875 L 7.03125 -1 C 7.03125 -0.726562 7.054688 -0.539062 7.109375 -0.4375 C 7.140625 -0.363281 7.195312 -0.300781 7.28125 -0.25 C 7.363281 -0.195312 7.503906 -0.171875 7.703125 -0.171875 L 7.703125 0 L 5.515625 0 L 5.515625 -0.171875 L 5.609375 -0.171875 C 5.796875 -0.171875 5.941406 -0.207031 6.046875 -0.28125 C 6.117188 -0.332031 6.175781 -0.414062 6.21875 -0.53125 C 6.226562 -0.59375 6.234375 -0.75 6.234375 -1 L 6.234375 -2.921875 C 6.234375 -3.285156 6.1875 -3.539062 6.09375 -3.6875 C 5.96875 -3.894531 5.765625 -4 5.484375 -4 C 5.316406 -4 5.144531 -3.957031 4.96875 -3.875 C 4.800781 -3.789062 4.59375 -3.628906 4.34375 -3.390625 L 4.328125 -3.34375 L 4.34375 -3.140625 L 4.34375 -1 C 4.34375 -0.695312 4.359375 -0.507812 4.390625 -0.4375 C 4.421875 -0.363281 4.484375 -0.300781 4.578125 -0.25 C 4.671875 -0.195312 4.832031 -0.171875 5.0625 -0.171875 L 5.0625 0 L 2.8125 0 L 2.8125 -0.171875 C 3.0625 -0.171875 3.226562 -0.195312 3.3125 -0.25 C 3.40625 -0.3125 3.472656 -0.40625 3.515625 -0.53125 C 3.523438 -0.582031 3.53125 -0.738281 3.53125 -1 L 3.53125 -2.921875 C 3.53125 -3.285156 3.476562 -3.546875 3.375 -3.703125 C 3.226562 -3.910156 3.03125 -4.015625 2.78125 -4.015625 C 2.601562 -4.015625 2.429688 -3.96875 2.265625 -3.875 C 1.992188 -3.738281 1.785156 -3.578125 1.640625 -3.390625 L 1.640625 -1 C 1.640625 -0.707031 1.65625 -0.519531 1.6875 -0.4375 C 1.726562 -0.351562 1.789062 -0.285156 1.875 -0.234375 C 1.957031 -0.191406 2.117188 -0.171875 2.359375 -0.171875 L 2.359375 0 L 0.15625 0 L 0.15625 -0.171875 C 0.363281 -0.171875 0.503906 -0.191406 0.578125 -0.234375 C 0.660156 -0.285156 0.722656 -0.359375 0.765625 -0.453125 C 0.804688 -0.546875 0.828125 -0.726562 0.828125 -1 L 0.828125 -2.71875 C 0.828125 -3.207031 0.8125 -3.519531 0.78125 -3.65625 C 0.757812 -3.769531 0.722656 -3.84375 0.671875 -3.875 C 0.628906 -3.914062 0.566406 -3.9375 0.484375 -3.9375 C 0.390625 -3.9375 0.28125 -3.914062 0.15625 -3.875 L 0.078125 -4.046875 L 1.421875 -4.59375 L 1.640625 -4.59375 Z M 1.640625 -3.640625 "/>
</g>
<g id="glyph-0-10">
<path d="M 1.0625 -2.78125 C 1.0625 -2.113281 1.222656 -1.59375 1.546875 -1.21875 C 1.867188 -0.84375 2.25 -0.65625 2.6875 -0.65625 C 2.976562 -0.65625 3.226562 -0.734375 3.4375 -0.890625 C 3.65625 -1.054688 3.835938 -1.332031 3.984375 -1.71875 L 4.140625 -1.625 C 4.078125 -1.175781 3.878906 -0.769531 3.546875 -0.40625 C 3.222656 -0.0390625 2.8125 0.140625 2.3125 0.140625 C 1.78125 0.140625 1.320312 -0.0664062 0.9375 -0.484375 C 0.5625 -0.898438 0.375 -1.460938 0.375 -2.171875 C 0.375 -2.929688 0.566406 -3.523438 0.953125 -3.953125 C 1.347656 -4.378906 1.835938 -4.59375 2.421875 -4.59375 C 2.921875 -4.59375 3.332031 -4.425781 3.65625 -4.09375 C 3.976562 -3.769531 4.140625 -3.332031 4.140625 -2.78125 Z M 1.0625 -3.0625 L 3.125 -3.0625 C 3.101562 -3.34375 3.066406 -3.546875 3.015625 -3.671875 C 2.941406 -3.847656 2.820312 -3.988281 2.65625 -4.09375 C 2.5 -4.195312 2.332031 -4.25 2.15625 -4.25 C 1.882812 -4.25 1.640625 -4.144531 1.421875 -3.9375 C 1.210938 -3.726562 1.09375 -3.4375 1.0625 -3.0625 Z M 1.0625 -3.0625 "/>
</g>
<g id="glyph-0-11">
<path d="M 6 -6.75 L 6.15625 -4.5 L 6 -4.5 C 5.800781 -5.175781 5.515625 -5.660156 5.140625 -5.953125 C 4.765625 -6.253906 4.316406 -6.40625 3.796875 -6.40625 C 3.359375 -6.40625 2.960938 -6.289062 2.609375 -6.0625 C 2.253906 -5.84375 1.972656 -5.488281 1.765625 -5 C 1.566406 -4.519531 1.46875 -3.914062 1.46875 -3.1875 C 1.46875 -2.59375 1.5625 -2.078125 1.75 -1.640625 C 1.945312 -1.203125 2.238281 -0.863281 2.625 -0.625 C 3.007812 -0.394531 3.445312 -0.28125 3.9375 -0.28125 C 4.363281 -0.28125 4.738281 -0.367188 5.0625 -0.546875 C 5.394531 -0.734375 5.757812 -1.097656 6.15625 -1.640625 L 6.296875 -1.546875 C 5.972656 -0.960938 5.585938 -0.53125 5.140625 -0.25 C 4.703125 0.0195312 4.179688 0.15625 3.578125 0.15625 C 2.484375 0.15625 1.632812 -0.25 1.03125 -1.0625 C 0.582031 -1.664062 0.359375 -2.378906 0.359375 -3.203125 C 0.359375 -3.859375 0.503906 -4.460938 0.796875 -5.015625 C 1.097656 -5.566406 1.503906 -5.992188 2.015625 -6.296875 C 2.535156 -6.597656 3.101562 -6.75 3.71875 -6.75 C 4.195312 -6.75 4.664062 -6.632812 5.125 -6.40625 C 5.257812 -6.332031 5.359375 -6.296875 5.421875 -6.296875 C 5.503906 -6.296875 5.582031 -6.328125 5.65625 -6.390625 C 5.738281 -6.472656 5.796875 -6.59375 5.828125 -6.75 Z M 6 -6.75 "/>
</g>
<g id="glyph-1-0">
<path d="M 2.765625 -0.40625 C 2.585938 -0.21875 2.414062 -0.0820312 2.25 0 C 2.082031 0.0703125 1.90625 0.109375 1.71875 0.109375 C 1.332031 0.109375 0.992188 -0.0507812 0.703125 -0.375 C 0.410156 -0.707031 0.265625 -1.128906 0.265625 -1.640625 C 0.265625 -2.148438 0.425781 -2.613281 0.75 -3.03125 C 1.070312 -3.457031 1.484375 -3.671875 1.984375 -3.671875 C 2.296875 -3.671875 2.554688 -3.570312 2.765625 -3.375 L 2.765625 -4.03125 C 2.765625 -4.4375 2.753906 -4.6875 2.734375 -4.78125 C 2.710938 -4.875 2.679688 -4.9375 2.640625 -4.96875 C 2.597656 -5 2.546875 -5.015625 2.484375 -5.015625 C 2.421875 -5.015625 2.332031 -5 2.21875 -4.96875 L 2.171875 -5.09375 L 3.234375 -5.53125 L 3.40625 -5.53125 L 3.40625 -1.40625 C 3.40625 -0.988281 3.414062 -0.734375 3.4375 -0.640625 C 3.457031 -0.554688 3.488281 -0.492188 3.53125 -0.453125 C 3.570312 -0.421875 3.625 -0.40625 3.6875 -0.40625 C 3.75 -0.40625 3.84375 -0.425781 3.96875 -0.46875 L 4 -0.328125 L 2.953125 0.109375 L 2.765625 0.109375 Z M 2.765625 -0.671875 L 2.765625 -2.515625 C 2.753906 -2.691406 2.707031 -2.847656 2.625 -2.984375 C 2.550781 -3.128906 2.445312 -3.238281 2.3125 -3.3125 C 2.1875 -3.394531 2.0625 -3.4375 1.9375 -3.4375 C 1.707031 -3.4375 1.503906 -3.332031 1.328125 -3.125 C 1.097656 -2.851562 0.984375 -2.457031 0.984375 -1.9375 C 0.984375 -1.414062 1.09375 -1.015625 1.3125 -0.734375 C 1.539062 -0.453125 1.796875 -0.3125 2.078125 -0.3125 C 2.316406 -0.3125 2.546875 -0.429688 2.765625 -0.671875 Z M 2.765625 -0.671875 "/>
</g>
<g id="glyph-1-1">
<path d="M 0.84375 -2.21875 C 0.84375 -1.6875 0.972656 -1.273438 1.234375 -0.984375 C 1.492188 -0.679688 1.796875 -0.53125 2.140625 -0.53125 C 2.378906 -0.53125 2.582031 -0.59375 2.75 -0.71875 C 2.925781 -0.84375 3.070312 -1.0625 3.1875 -1.375 L 3.3125 -1.296875 C 3.257812 -0.941406 3.097656 -0.617188 2.828125 -0.328125 C 2.566406 -0.0351562 2.242188 0.109375 1.859375 0.109375 C 1.421875 0.109375 1.050781 -0.0546875 0.75 -0.390625 C 0.445312 -0.722656 0.296875 -1.171875 0.296875 -1.734375 C 0.296875 -2.347656 0.453125 -2.820312 0.765625 -3.15625 C 1.078125 -3.5 1.46875 -3.671875 1.9375 -3.671875 C 2.34375 -3.671875 2.671875 -3.539062 2.921875 -3.28125 C 3.179688 -3.019531 3.3125 -2.664062 3.3125 -2.21875 Z M 0.84375 -2.453125 L 2.5 -2.453125 C 2.488281 -2.679688 2.460938 -2.84375 2.421875 -2.9375 C 2.347656 -3.070312 2.25 -3.179688 2.125 -3.265625 C 2 -3.347656 1.863281 -3.390625 1.71875 -3.390625 C 1.507812 -3.390625 1.316406 -3.304688 1.140625 -3.140625 C 0.972656 -2.972656 0.875 -2.742188 0.84375 -2.453125 Z M 0.84375 -2.453125 "/>
</g>
<g id="glyph-1-2">
<path d="M 3.28125 -1.359375 C 3.175781 -0.890625 2.984375 -0.523438 2.703125 -0.265625 C 2.429688 -0.015625 2.125 0.109375 1.78125 0.109375 C 1.375 0.109375 1.019531 -0.0546875 0.71875 -0.390625 C 0.414062 -0.734375 0.265625 -1.195312 0.265625 -1.78125 C 0.265625 -2.34375 0.429688 -2.796875 0.765625 -3.140625 C 1.097656 -3.492188 1.5 -3.671875 1.96875 -3.671875 C 2.320312 -3.671875 2.609375 -3.578125 2.828125 -3.390625 C 3.054688 -3.203125 3.171875 -3.007812 3.171875 -2.8125 C 3.171875 -2.71875 3.140625 -2.640625 3.078125 -2.578125 C 3.015625 -2.515625 2.925781 -2.484375 2.8125 -2.484375 C 2.65625 -2.484375 2.539062 -2.53125 2.46875 -2.625 C 2.425781 -2.6875 2.394531 -2.789062 2.375 -2.9375 C 2.363281 -3.09375 2.3125 -3.210938 2.21875 -3.296875 C 2.125 -3.367188 2 -3.40625 1.84375 -3.40625 C 1.582031 -3.40625 1.375 -3.3125 1.21875 -3.125 C 1.007812 -2.863281 0.90625 -2.523438 0.90625 -2.109375 C 0.90625 -1.679688 1.007812 -1.304688 1.21875 -0.984375 C 1.425781 -0.660156 1.707031 -0.5 2.0625 -0.5 C 2.3125 -0.5 2.539062 -0.585938 2.75 -0.765625 C 2.894531 -0.878906 3.03125 -1.09375 3.15625 -1.40625 Z M 3.28125 -1.359375 "/>
</g>
<g id="glyph-1-3">
<path d="M 1.15625 -5.53125 C 1.257812 -5.53125 1.347656 -5.488281 1.421875 -5.40625 C 1.503906 -5.332031 1.546875 -5.242188 1.546875 -5.140625 C 1.546875 -5.035156 1.503906 -4.941406 1.421875 -4.859375 C 1.347656 -4.785156 1.257812 -4.75 1.15625 -4.75 C 1.050781 -4.75 0.957031 -4.785156 0.875 -4.859375 C 0.800781 -4.941406 0.765625 -5.035156 0.765625 -5.140625 C 0.765625 -5.242188 0.800781 -5.332031 0.875 -5.40625 C 0.945312 -5.488281 1.039062 -5.53125 1.15625 -5.53125 Z M 1.484375 -3.671875 L 1.484375 -0.8125 C 1.484375 -0.582031 1.5 -0.429688 1.53125 -0.359375 C 1.5625 -0.285156 1.609375 -0.226562 1.671875 -0.1875 C 1.734375 -0.15625 1.847656 -0.140625 2.015625 -0.140625 L 2.015625 0 L 0.28125 0 L 0.28125 -0.140625 C 0.457031 -0.140625 0.578125 -0.15625 0.640625 -0.1875 C 0.703125 -0.21875 0.75 -0.269531 0.78125 -0.34375 C 0.8125 -0.425781 0.828125 -0.582031 0.828125 -0.8125 L 0.828125 -2.171875 C 0.828125 -2.566406 0.816406 -2.820312 0.796875 -2.9375 C 0.773438 -3.007812 0.742188 -3.0625 0.703125 -3.09375 C 0.671875 -3.132812 0.617188 -3.15625 0.546875 -3.15625 C 0.472656 -3.15625 0.382812 -3.132812 0.28125 -3.09375 L 0.234375 -3.234375 L 1.3125 -3.671875 Z M 1.484375 -3.671875 "/>
</g>
<g id="glyph-1-4">
<path d="M 2.546875 -3.671875 L 2.546875 -2.453125 L 2.421875 -2.453125 C 2.328125 -2.835938 2.203125 -3.097656 2.046875 -3.234375 C 1.890625 -3.367188 1.691406 -3.4375 1.453125 -3.4375 C 1.273438 -3.4375 1.128906 -3.390625 1.015625 -3.296875 C 0.898438 -3.203125 0.84375 -3.097656 0.84375 -2.984375 C 0.84375 -2.835938 0.882812 -2.710938 0.96875 -2.609375 C 1.050781 -2.492188 1.21875 -2.378906 1.46875 -2.265625 L 2.03125 -1.984375 C 2.5625 -1.734375 2.828125 -1.394531 2.828125 -0.96875 C 2.828125 -0.644531 2.703125 -0.382812 2.453125 -0.1875 C 2.203125 0.0078125 1.925781 0.109375 1.625 0.109375 C 1.40625 0.109375 1.160156 0.0703125 0.890625 0 C 0.796875 -0.03125 0.722656 -0.046875 0.671875 -0.046875 C 0.609375 -0.046875 0.5625 -0.0117188 0.53125 0.046875 L 0.40625 0.046875 L 0.40625 -1.21875 L 0.53125 -1.21875 C 0.601562 -0.851562 0.738281 -0.578125 0.9375 -0.390625 C 1.144531 -0.210938 1.378906 -0.125 1.640625 -0.125 C 1.816406 -0.125 1.960938 -0.175781 2.078125 -0.28125 C 2.191406 -0.382812 2.25 -0.507812 2.25 -0.65625 C 2.25 -0.832031 2.1875 -0.984375 2.0625 -1.109375 C 1.9375 -1.234375 1.679688 -1.390625 1.296875 -1.578125 C 0.921875 -1.765625 0.675781 -1.929688 0.5625 -2.078125 C 0.445312 -2.222656 0.390625 -2.410156 0.390625 -2.640625 C 0.390625 -2.929688 0.488281 -3.175781 0.6875 -3.375 C 0.894531 -3.570312 1.15625 -3.671875 1.46875 -3.671875 C 1.613281 -3.671875 1.785156 -3.640625 1.984375 -3.578125 C 2.109375 -3.535156 2.195312 -3.515625 2.25 -3.515625 C 2.289062 -3.515625 2.320312 -3.523438 2.34375 -3.546875 C 2.363281 -3.566406 2.390625 -3.609375 2.421875 -3.671875 Z M 2.546875 -3.671875 "/>
</g>
<g id="glyph-1-5">
<path d="M 2.265625 -0.515625 C 1.898438 -0.234375 1.671875 -0.0664062 1.578125 -0.015625 C 1.441406 0.046875 1.289062 0.078125 1.125 0.078125 C 0.882812 0.078125 0.679688 -0.00390625 0.515625 -0.171875 C 0.359375 -0.347656 0.28125 -0.570312 0.28125 -0.84375 C 0.28125 -1.019531 0.320312 -1.171875 0.40625 -1.296875 C 0.507812 -1.472656 0.691406 -1.640625 0.953125 -1.796875 C 1.210938 -1.953125 1.648438 -2.140625 2.265625 -2.359375 L 2.265625 -2.5 C 2.265625 -2.851562 2.207031 -3.097656 2.09375 -3.234375 C 1.988281 -3.367188 1.828125 -3.4375 1.609375 -3.4375 C 1.441406 -3.4375 1.3125 -3.390625 1.21875 -3.296875 C 1.113281 -3.210938 1.0625 -3.113281 1.0625 -3 L 1.078125 -2.765625 C 1.078125 -2.648438 1.046875 -2.554688 0.984375 -2.484375 C 0.921875 -2.421875 0.84375 -2.390625 0.75 -2.390625 C 0.65625 -2.390625 0.578125 -2.421875 0.515625 -2.484375 C 0.453125 -2.554688 0.421875 -2.65625 0.421875 -2.78125 C 0.421875 -3 0.535156 -3.203125 0.765625 -3.390625 C 0.992188 -3.578125 1.3125 -3.671875 1.71875 -3.671875 C 2.039062 -3.671875 2.300781 -3.617188 2.5 -3.515625 C 2.65625 -3.429688 2.769531 -3.300781 2.84375 -3.125 C 2.882812 -3.019531 2.90625 -2.796875 2.90625 -2.453125 L 2.90625 -1.234375 C 2.90625 -0.898438 2.910156 -0.691406 2.921875 -0.609375 C 2.941406 -0.535156 2.960938 -0.484375 2.984375 -0.453125 C 3.015625 -0.429688 3.050781 -0.421875 3.09375 -0.421875 C 3.132812 -0.421875 3.171875 -0.429688 3.203125 -0.453125 C 3.253906 -0.484375 3.359375 -0.578125 3.515625 -0.734375 L 3.515625 -0.515625 C 3.222656 -0.128906 2.945312 0.0625 2.6875 0.0625 C 2.5625 0.0625 2.457031 0.0195312 2.375 -0.0625 C 2.300781 -0.144531 2.265625 -0.296875 2.265625 -0.515625 Z M 2.265625 -0.765625 L 2.265625 -2.125 C 1.878906 -1.96875 1.628906 -1.859375 1.515625 -1.796875 C 1.304688 -1.679688 1.15625 -1.5625 1.0625 -1.4375 C 0.976562 -1.3125 0.9375 -1.175781 0.9375 -1.03125 C 0.9375 -0.84375 0.988281 -0.6875 1.09375 -0.5625 C 1.207031 -0.4375 1.335938 -0.375 1.484375 -0.375 C 1.679688 -0.375 1.941406 -0.503906 2.265625 -0.765625 Z M 2.265625 -0.765625 "/>
</g>
<g id="glyph-1-6">
<path d="M 1.28125 -4.734375 L 1.28125 -3.5625 L 2.109375 -3.5625 L 2.109375 -3.296875 L 1.28125 -3.296875 L 1.28125 -0.984375 C 1.28125 -0.753906 1.3125 -0.597656 1.375 -0.515625 C 1.445312 -0.429688 1.535156 -0.390625 1.640625 -0.390625 C 1.722656 -0.390625 1.800781 -0.414062 1.875 -0.46875 C 1.957031 -0.519531 2.023438 -0.597656 2.078125 -0.703125 L 2.21875 -0.703125 C 2.132812 -0.453125 2.007812 -0.257812 1.84375 -0.125 C 1.675781 0 1.503906 0.0625 1.328125 0.0625 C 1.203125 0.0625 1.082031 0.0273438 0.96875 -0.03125 C 0.863281 -0.101562 0.78125 -0.203125 0.71875 -0.328125 C 0.664062 -0.453125 0.640625 -0.640625 0.640625 -0.890625 L 0.640625 -3.296875 L 0.078125 -3.296875 L 0.078125 -3.421875 C 0.222656 -3.472656 0.367188 -3.566406 0.515625 -3.703125 C 0.660156 -3.847656 0.796875 -4.007812 0.921875 -4.1875 C 0.972656 -4.289062 1.050781 -4.472656 1.15625 -4.734375 Z M 1.28125 -4.734375 "/>
</g>
<g id="glyph-1-7">
<path d="M 2 -3.671875 C 2.53125 -3.671875 2.960938 -3.460938 3.296875 -3.046875 C 3.566406 -2.703125 3.703125 -2.300781 3.703125 -1.84375 C 3.703125 -1.53125 3.625 -1.207031 3.46875 -0.875 C 3.320312 -0.550781 3.113281 -0.304688 2.84375 -0.140625 C 2.570312 0.0234375 2.273438 0.109375 1.953125 0.109375 C 1.410156 0.109375 0.984375 -0.101562 0.671875 -0.53125 C 0.398438 -0.894531 0.265625 -1.300781 0.265625 -1.75 C 0.265625 -2.070312 0.34375 -2.394531 0.5 -2.71875 C 0.664062 -3.039062 0.878906 -3.28125 1.140625 -3.4375 C 1.410156 -3.59375 1.695312 -3.671875 2 -3.671875 Z M 1.875 -3.421875 C 1.738281 -3.421875 1.597656 -3.378906 1.453125 -3.296875 C 1.316406 -3.210938 1.207031 -3.066406 1.125 -2.859375 C 1.039062 -2.660156 1 -2.398438 1 -2.078125 C 1 -1.554688 1.097656 -1.109375 1.296875 -0.734375 C 1.503906 -0.359375 1.773438 -0.171875 2.109375 -0.171875 C 2.367188 -0.171875 2.578125 -0.273438 2.734375 -0.484375 C 2.898438 -0.691406 2.984375 -1.046875 2.984375 -1.546875 C 2.984375 -2.179688 2.847656 -2.679688 2.578125 -3.046875 C 2.390625 -3.296875 2.15625 -3.421875 1.875 -3.421875 Z M 1.875 -3.421875 "/>
</g>
<g id="glyph-1-8">
<path d="M 1.28125 -2.921875 C 1.707031 -3.421875 2.109375 -3.671875 2.484375 -3.671875 C 2.679688 -3.671875 2.847656 -3.617188 2.984375 -3.515625 C 3.117188 -3.421875 3.226562 -3.265625 3.3125 -3.046875 C 3.375 -2.890625 3.40625 -2.648438 3.40625 -2.328125 L 3.40625 -0.8125 C 3.40625 -0.582031 3.421875 -0.425781 3.453125 -0.34375 C 3.484375 -0.28125 3.53125 -0.226562 3.59375 -0.1875 C 3.65625 -0.15625 3.773438 -0.140625 3.953125 -0.140625 L 3.953125 0 L 2.1875 0 L 2.1875 -0.140625 L 2.265625 -0.140625 C 2.429688 -0.140625 2.546875 -0.164062 2.609375 -0.21875 C 2.671875 -0.269531 2.71875 -0.34375 2.75 -0.4375 C 2.757812 -0.476562 2.765625 -0.601562 2.765625 -0.8125 L 2.765625 -2.265625 C 2.765625 -2.585938 2.722656 -2.820312 2.640625 -2.96875 C 2.554688 -3.113281 2.410156 -3.1875 2.203125 -3.1875 C 1.898438 -3.1875 1.59375 -3.019531 1.28125 -2.6875 L 1.28125 -0.8125 C 1.28125 -0.5625 1.296875 -0.410156 1.328125 -0.359375 C 1.367188 -0.285156 1.421875 -0.226562 1.484375 -0.1875 C 1.546875 -0.15625 1.675781 -0.140625 1.875 -0.140625 L 1.875 0 L 0.109375 0 L 0.109375 -0.140625 L 0.1875 -0.140625 C 0.363281 -0.140625 0.484375 -0.1875 0.546875 -0.28125 C 0.609375 -0.375 0.640625 -0.550781 0.640625 -0.8125 L 0.640625 -2.125 C 0.640625 -2.550781 0.628906 -2.8125 0.609375 -2.90625 C 0.597656 -3 0.570312 -3.0625 0.53125 -3.09375 C 0.488281 -3.132812 0.429688 -3.15625 0.359375 -3.15625 C 0.285156 -3.15625 0.203125 -3.132812 0.109375 -3.09375 L 0.046875 -3.234375 L 1.125 -3.671875 L 1.28125 -3.671875 Z M 1.28125 -2.921875 "/>
</g>
<g id="glyph-1-9">
<path d="M 1.3125 -2.90625 C 1.570312 -3.164062 1.722656 -3.316406 1.765625 -3.359375 C 1.878906 -3.453125 2.003906 -3.523438 2.140625 -3.578125 C 2.273438 -3.640625 2.410156 -3.671875 2.546875 -3.671875 C 2.765625 -3.671875 2.953125 -3.601562 3.109375 -3.46875 C 3.273438 -3.34375 3.382812 -3.15625 3.4375 -2.90625 C 3.707031 -3.21875 3.929688 -3.421875 4.109375 -3.515625 C 4.296875 -3.617188 4.488281 -3.671875 4.6875 -3.671875 C 4.875 -3.671875 5.039062 -3.617188 5.1875 -3.515625 C 5.332031 -3.421875 5.453125 -3.265625 5.546875 -3.046875 C 5.597656 -2.898438 5.625 -2.664062 5.625 -2.34375 L 5.625 -0.8125 C 5.625 -0.582031 5.640625 -0.425781 5.671875 -0.34375 C 5.703125 -0.289062 5.75 -0.242188 5.8125 -0.203125 C 5.882812 -0.160156 6 -0.140625 6.15625 -0.140625 L 6.15625 0 L 4.40625 0 L 4.40625 -0.140625 L 4.484375 -0.140625 C 4.628906 -0.140625 4.75 -0.171875 4.84375 -0.234375 C 4.894531 -0.273438 4.9375 -0.335938 4.96875 -0.421875 C 4.976562 -0.472656 4.984375 -0.601562 4.984375 -0.8125 L 4.984375 -2.34375 C 4.984375 -2.632812 4.945312 -2.835938 4.875 -2.953125 C 4.769531 -3.117188 4.609375 -3.203125 4.390625 -3.203125 C 4.253906 -3.203125 4.113281 -3.164062 3.96875 -3.09375 C 3.832031 -3.03125 3.664062 -2.90625 3.46875 -2.71875 L 3.46875 -0.8125 C 3.46875 -0.5625 3.476562 -0.40625 3.5 -0.34375 C 3.53125 -0.289062 3.582031 -0.242188 3.65625 -0.203125 C 3.738281 -0.160156 3.867188 -0.140625 4.046875 -0.140625 L 4.046875 0 L 2.25 0 L 2.25 -0.140625 C 2.445312 -0.140625 2.582031 -0.160156 2.65625 -0.203125 C 2.726562 -0.253906 2.78125 -0.328125 2.8125 -0.421875 C 2.820312 -0.460938 2.828125 -0.59375 2.828125 -0.8125 L 2.828125 -2.34375 C 2.828125 -2.632812 2.785156 -2.84375 2.703125 -2.96875 C 2.585938 -3.132812 2.425781 -3.21875 2.21875 -3.21875 C 2.082031 -3.21875 1.945312 -3.175781 1.8125 -3.09375 C 1.59375 -2.988281 1.425781 -2.863281 1.3125 -2.71875 L 1.3125 -0.8125 C 1.3125 -0.570312 1.328125 -0.414062 1.359375 -0.34375 C 1.390625 -0.28125 1.4375 -0.226562 1.5 -0.1875 C 1.5625 -0.15625 1.691406 -0.140625 1.890625 -0.140625 L 1.890625 0 L 0.125 0 L 0.125 -0.140625 C 0.289062 -0.140625 0.40625 -0.15625 0.46875 -0.1875 C 0.53125 -0.226562 0.578125 -0.285156 0.609375 -0.359375 C 0.648438 -0.429688 0.671875 -0.582031 0.671875 -0.8125 L 0.671875 -2.171875 C 0.671875 -2.554688 0.65625 -2.804688 0.625 -2.921875 C 0.613281 -3.003906 0.585938 -3.0625 0.546875 -3.09375 C 0.503906 -3.132812 0.453125 -3.15625 0.390625 -3.15625 C 0.316406 -3.15625 0.226562 -3.132812 0.125 -3.09375 L 0.0625 -3.234375 L 1.140625 -3.671875 L 1.3125 -3.671875 Z M 1.3125 -2.90625 "/>
</g>
<g id="glyph-1-10">
<path d="M 0.0625 -3.5625 L 1.75 -3.5625 L 1.75 -3.421875 L 1.640625 -3.421875 C 1.535156 -3.421875 1.457031 -3.394531 1.40625 -3.34375 C 1.351562 -3.289062 1.328125 -3.222656 1.328125 -3.140625 C 1.328125 -3.054688 1.351562 -2.953125 1.40625 -2.828125 L 2.234375 -0.859375 L 3.0625 -2.90625 C 3.125 -3.039062 3.15625 -3.148438 3.15625 -3.234375 C 3.15625 -3.265625 3.144531 -3.289062 3.125 -3.3125 C 3.09375 -3.351562 3.054688 -3.378906 3.015625 -3.390625 C 2.972656 -3.410156 2.882812 -3.421875 2.75 -3.421875 L 2.75 -3.5625 L 3.90625 -3.5625 L 3.90625 -3.421875 C 3.769531 -3.410156 3.675781 -3.382812 3.625 -3.34375 C 3.539062 -3.257812 3.460938 -3.128906 3.390625 -2.953125 L 2.125 0.109375 L 1.96875 0.109375 L 0.6875 -2.90625 C 0.632812 -3.039062 0.582031 -3.140625 0.53125 -3.203125 C 0.476562 -3.265625 0.410156 -3.316406 0.328125 -3.359375 C 0.285156 -3.378906 0.195312 -3.398438 0.0625 -3.421875 Z M 0.0625 -3.5625 "/>
</g>
<g id="glyph-1-11">
<path d="M 1.46875 -5.53125 L 1.46875 -0.8125 C 1.46875 -0.582031 1.484375 -0.429688 1.515625 -0.359375 C 1.554688 -0.285156 1.609375 -0.226562 1.671875 -0.1875 C 1.742188 -0.15625 1.867188 -0.140625 2.046875 -0.140625 L 2.046875 0 L 0.296875 0 L 0.296875 -0.140625 C 0.460938 -0.140625 0.578125 -0.15625 0.640625 -0.1875 C 0.703125 -0.21875 0.75 -0.269531 0.78125 -0.34375 C 0.8125 -0.425781 0.828125 -0.582031 0.828125 -0.8125 L 0.828125 -4.046875 C 0.828125 -4.441406 0.816406 -4.6875 0.796875 -4.78125 C 0.785156 -4.875 0.757812 -4.9375 0.71875 -4.96875 C 0.675781 -5 0.625 -5.015625 0.5625 -5.015625 C 0.488281 -5.015625 0.398438 -5 0.296875 -4.96875 L 0.234375 -5.09375 L 1.296875 -5.53125 Z M 1.46875 -5.53125 "/>
</g>
<g id="glyph-1-12">
<path d="M 3.375 -3.5625 L 3.375 -1.40625 C 3.375 -0.988281 3.382812 -0.734375 3.40625 -0.640625 C 3.425781 -0.554688 3.457031 -0.492188 3.5 -0.453125 C 3.539062 -0.421875 3.585938 -0.40625 3.640625 -0.40625 C 3.722656 -0.40625 3.816406 -0.425781 3.921875 -0.46875 L 3.96875 -0.328125 L 2.90625 0.109375 L 2.734375 0.109375 L 2.734375 -0.640625 C 2.421875 -0.304688 2.1875 -0.0976562 2.03125 -0.015625 C 1.875 0.0664062 1.703125 0.109375 1.515625 0.109375 C 1.316406 0.109375 1.144531 0.0507812 1 -0.0625 C 0.851562 -0.175781 0.75 -0.320312 0.6875 -0.5 C 0.632812 -0.6875 0.609375 -0.945312 0.609375 -1.28125 L 0.609375 -2.875 C 0.609375 -3.039062 0.585938 -3.15625 0.546875 -3.21875 C 0.515625 -3.28125 0.460938 -3.328125 0.390625 -3.359375 C 0.316406 -3.398438 0.1875 -3.421875 0 -3.421875 L 0 -3.5625 L 1.25 -3.5625 L 1.25 -1.171875 C 1.25 -0.847656 1.304688 -0.632812 1.421875 -0.53125 C 1.546875 -0.425781 1.6875 -0.375 1.84375 -0.375 C 1.957031 -0.375 2.082031 -0.40625 2.21875 -0.46875 C 2.363281 -0.539062 2.535156 -0.675781 2.734375 -0.875 L 2.734375 -2.890625 C 2.734375 -3.097656 2.695312 -3.234375 2.625 -3.296875 C 2.550781 -3.367188 2.394531 -3.410156 2.15625 -3.421875 L 2.15625 -3.5625 Z M 3.375 -3.5625 "/>
</g>
<g id="glyph-2-0">
<path d="M 3.125 -3.03125 C 3.046875 -3.171875 2.828125 -3.515625 2.328125 -3.515625 C 1.390625 -3.515625 0.34375 -2.40625 0.34375 -1.234375 C 0.34375 -0.390625 0.875 0.078125 1.484375 0.078125 C 2 0.078125 2.4375 -0.328125 2.578125 -0.484375 C 2.71875 0.0625 3.265625 0.078125 3.359375 0.078125 C 3.734375 0.078125 3.90625 -0.21875 3.96875 -0.359375 C 4.140625 -0.640625 4.25 -1.109375 4.25 -1.140625 C 4.25 -1.1875 4.21875 -1.25 4.125 -1.25 C 4.03125 -1.25 4.015625 -1.1875 3.953125 -1 C 3.84375 -0.5625 3.703125 -0.140625 3.390625 -0.140625 C 3.203125 -0.140625 3.125 -0.296875 3.125 -0.515625 C 3.125 -0.65625 3.203125 -0.921875 3.25 -1.125 C 3.296875 -1.328125 3.421875 -1.796875 3.453125 -1.9375 L 3.609375 -2.546875 C 3.65625 -2.734375 3.734375 -3.078125 3.734375 -3.109375 C 3.734375 -3.296875 3.578125 -3.359375 3.484375 -3.359375 C 3.359375 -3.359375 3.15625 -3.28125 3.125 -3.03125 Z M 2.578125 -0.859375 C 2.1875 -0.3125 1.765625 -0.140625 1.515625 -0.140625 C 1.140625 -0.140625 0.96875 -0.484375 0.96875 -0.890625 C 0.96875 -1.265625 1.171875 -2.125 1.359375 -2.46875 C 1.578125 -2.953125 1.96875 -3.296875 2.34375 -3.296875 C 2.859375 -3.296875 3.015625 -2.703125 3.015625 -2.609375 C 3.015625 -2.578125 2.8125 -1.796875 2.765625 -1.59375 C 2.65625 -1.21875 2.65625 -1.203125 2.578125 -0.859375 Z M 2.578125 -0.859375 "/>
</g>
<g id="glyph-2-1">
<path d="M 5.34375 -4.5 C 5.734375 -5.09375 6.046875 -5.15625 6.359375 -5.171875 C 6.453125 -5.1875 6.484375 -5.265625 6.484375 -5.328125 C 6.484375 -5.359375 6.46875 -5.4375 6.359375 -5.4375 C 6.265625 -5.4375 6.296875 -5.421875 5.71875 -5.421875 C 5.21875 -5.421875 5 -5.4375 4.96875 -5.4375 C 4.921875 -5.4375 4.8125 -5.4375 4.8125 -5.296875 C 4.8125 -5.1875 4.90625 -5.171875 4.953125 -5.171875 C 5.15625 -5.15625 5.265625 -5.078125 5.265625 -4.9375 C 5.265625 -4.8125 5.203125 -4.703125 5.15625 -4.640625 L 2.5625 -0.71875 L 1.90625 -4.828125 C 1.890625 -4.890625 1.890625 -4.9375 1.890625 -4.953125 C 1.890625 -5.0625 2.015625 -5.171875 2.421875 -5.171875 C 2.515625 -5.171875 2.609375 -5.171875 2.609375 -5.328125 C 2.609375 -5.359375 2.59375 -5.4375 2.484375 -5.4375 C 2.421875 -5.4375 2.09375 -5.421875 2.03125 -5.421875 L 1.53125 -5.421875 C 0.8125 -5.421875 0.703125 -5.4375 0.640625 -5.4375 C 0.609375 -5.4375 0.484375 -5.4375 0.484375 -5.296875 C 0.484375 -5.171875 0.59375 -5.171875 0.703125 -5.171875 C 1.109375 -5.171875 1.125 -5.109375 1.15625 -4.90625 L 1.9375 -0.0625 C 1.953125 0.109375 1.96875 0.171875 2.125 0.171875 C 2.25 0.171875 2.296875 0.09375 2.359375 0.015625 Z M 5.34375 -4.5 "/>
</g>
<g id="glyph-2-2">
<path d="M 3.21875 -3 C 3.03125 -2.96875 2.859375 -2.828125 2.859375 -2.625 C 2.859375 -2.484375 2.953125 -2.375 3.125 -2.375 C 3.25 -2.375 3.5 -2.46875 3.5 -2.828125 C 3.5 -3.3125 2.984375 -3.515625 2.484375 -3.515625 C 1.421875 -3.515625 1.078125 -2.75 1.078125 -2.34375 C 1.078125 -2.265625 1.078125 -1.984375 1.375 -1.765625 C 1.5625 -1.625 1.703125 -1.59375 2.109375 -1.515625 C 2.390625 -1.453125 2.84375 -1.375 2.84375 -0.96875 C 2.84375 -0.75 2.6875 -0.5 2.46875 -0.34375 C 2.171875 -0.15625 1.78125 -0.140625 1.65625 -0.140625 C 1.46875 -0.140625 0.921875 -0.171875 0.71875 -0.5 C 1.125 -0.515625 1.1875 -0.84375 1.1875 -0.9375 C 1.1875 -1.171875 0.96875 -1.234375 0.875 -1.234375 C 0.75 -1.234375 0.421875 -1.125 0.421875 -0.6875 C 0.421875 -0.21875 0.921875 0.078125 1.65625 0.078125 C 3.046875 0.078125 3.34375 -0.90625 3.34375 -1.234375 C 3.34375 -1.953125 2.5625 -2.109375 2.265625 -2.15625 C 1.875 -2.234375 1.5625 -2.28125 1.5625 -2.625 C 1.5625 -2.765625 1.703125 -3.296875 2.484375 -3.296875 C 2.78125 -3.296875 3.09375 -3.203125 3.21875 -3 Z M 3.21875 -3 "/>
</g>
<g id="glyph-3-0">
<path d="M 2.65625 1.984375 C 2.71875 1.984375 2.8125 1.984375 2.8125 1.890625 C 2.8125 1.859375 2.8125 1.859375 2.703125 1.75 C 1.609375 0.71875 1.34375 -0.75 1.34375 -1.984375 C 1.34375 -4.28125 2.28125 -5.359375 2.6875 -5.734375 C 2.8125 -5.828125 2.8125 -5.84375 2.8125 -5.875 C 2.8125 -5.921875 2.78125 -5.96875 2.703125 -5.96875 C 2.578125 -5.96875 2.171875 -5.5625 2.109375 -5.5 C 1.046875 -4.375 0.828125 -2.953125 0.828125 -1.984375 C 0.828125 -0.203125 1.5625 1.234375 2.65625 1.984375 Z M 2.65625 1.984375 "/>
</g>
<g id="glyph-3-1">
<path d="M 2.46875 -1.984375 C 2.46875 -2.75 2.328125 -3.65625 1.84375 -4.59375 C 1.453125 -5.328125 0.71875 -5.96875 0.578125 -5.96875 C 0.5 -5.96875 0.484375 -5.921875 0.484375 -5.875 C 0.484375 -5.84375 0.484375 -5.828125 0.578125 -5.734375 C 1.6875 -4.671875 1.9375 -3.21875 1.9375 -1.984375 C 1.9375 0.296875 1 1.375 0.59375 1.75 C 0.484375 1.84375 0.484375 1.859375 0.484375 1.890625 C 0.484375 1.9375 0.5 1.984375 0.578125 1.984375 C 0.703125 1.984375 1.109375 1.578125 1.171875 1.515625 C 2.234375 0.390625 2.46875 -1.03125 2.46875 -1.984375 Z M 2.46875 -1.984375 "/>
</g>
<g id="glyph-4-0">
<path d="M 2.546875 -0.578125 C 2.140625 -0.253906 1.882812 -0.0703125 1.78125 -0.03125 C 1.625 0.0390625 1.457031 0.078125 1.28125 0.078125 C 1 0.078125 0.765625 -0.015625 0.578125 -0.203125 C 0.398438 -0.390625 0.3125 -0.640625 0.3125 -0.953125 C 0.3125 -1.148438 0.359375 -1.316406 0.453125 -1.453125 C 0.566406 -1.648438 0.769531 -1.835938 1.0625 -2.015625 C 1.363281 -2.191406 1.859375 -2.40625 2.546875 -2.65625 L 2.546875 -2.8125 C 2.546875 -3.21875 2.484375 -3.492188 2.359375 -3.640625 C 2.234375 -3.785156 2.050781 -3.859375 1.8125 -3.859375 C 1.625 -3.859375 1.476562 -3.8125 1.375 -3.71875 C 1.257812 -3.613281 1.203125 -3.5 1.203125 -3.375 L 1.21875 -3.125 C 1.21875 -2.988281 1.179688 -2.882812 1.109375 -2.8125 C 1.035156 -2.738281 0.945312 -2.703125 0.84375 -2.703125 C 0.726562 -2.703125 0.632812 -2.738281 0.5625 -2.8125 C 0.5 -2.882812 0.46875 -2.988281 0.46875 -3.125 C 0.46875 -3.375 0.597656 -3.601562 0.859375 -3.8125 C 1.117188 -4.019531 1.476562 -4.125 1.9375 -4.125 C 2.289062 -4.125 2.582031 -4.066406 2.8125 -3.953125 C 2.988281 -3.859375 3.117188 -3.71875 3.203125 -3.53125 C 3.253906 -3.40625 3.28125 -3.144531 3.28125 -2.75 L 3.28125 -1.390625 C 3.28125 -1.003906 3.285156 -0.769531 3.296875 -0.6875 C 3.304688 -0.601562 3.328125 -0.546875 3.359375 -0.515625 C 3.398438 -0.484375 3.441406 -0.46875 3.484375 -0.46875 C 3.535156 -0.46875 3.578125 -0.476562 3.609375 -0.5 C 3.671875 -0.539062 3.789062 -0.648438 3.96875 -0.828125 L 3.96875 -0.578125 C 3.632812 -0.140625 3.320312 0.078125 3.03125 0.078125 C 2.882812 0.078125 2.769531 0.0273438 2.6875 -0.0625 C 2.601562 -0.164062 2.554688 -0.335938 2.546875 -0.578125 Z M 2.546875 -0.859375 L 2.546875 -2.390625 C 2.109375 -2.210938 1.828125 -2.085938 1.703125 -2.015625 C 1.472656 -1.890625 1.304688 -1.753906 1.203125 -1.609375 C 1.109375 -1.472656 1.0625 -1.320312 1.0625 -1.15625 C 1.0625 -0.945312 1.125 -0.769531 1.25 -0.625 C 1.375 -0.488281 1.515625 -0.421875 1.671875 -0.421875 C 1.898438 -0.421875 2.191406 -0.566406 2.546875 -0.859375 Z M 2.546875 -0.859375 "/>
</g>
<g id="glyph-4-1">
<path d="M 3.6875 -1.53125 C 3.582031 -1 3.367188 -0.585938 3.046875 -0.296875 C 2.734375 -0.015625 2.382812 0.125 2 0.125 C 1.550781 0.125 1.15625 -0.0664062 0.8125 -0.453125 C 0.476562 -0.835938 0.3125 -1.351562 0.3125 -2 C 0.3125 -2.632812 0.5 -3.144531 0.875 -3.53125 C 1.25 -3.925781 1.695312 -4.125 2.21875 -4.125 C 2.613281 -4.125 2.9375 -4.019531 3.1875 -3.8125 C 3.445312 -3.601562 3.578125 -3.390625 3.578125 -3.171875 C 3.578125 -3.054688 3.539062 -2.960938 3.46875 -2.890625 C 3.394531 -2.828125 3.296875 -2.796875 3.171875 -2.796875 C 2.992188 -2.796875 2.863281 -2.847656 2.78125 -2.953125 C 2.726562 -3.015625 2.691406 -3.128906 2.671875 -3.296875 C 2.660156 -3.472656 2.601562 -3.609375 2.5 -3.703125 C 2.394531 -3.796875 2.253906 -3.84375 2.078125 -3.84375 C 1.785156 -3.84375 1.550781 -3.734375 1.375 -3.515625 C 1.132812 -3.222656 1.015625 -2.84375 1.015625 -2.375 C 1.015625 -1.894531 1.128906 -1.472656 1.359375 -1.109375 C 1.597656 -0.742188 1.921875 -0.5625 2.328125 -0.5625 C 2.609375 -0.5625 2.863281 -0.660156 3.09375 -0.859375 C 3.25 -0.992188 3.40625 -1.234375 3.5625 -1.578125 Z M 3.6875 -1.53125 "/>
</g>
<g id="glyph-4-2">
<path d="M 1.4375 -5.328125 L 1.4375 -4.015625 L 2.375 -4.015625 L 2.375 -3.703125 L 1.4375 -3.703125 L 1.4375 -1.109375 C 1.4375 -0.847656 1.472656 -0.671875 1.546875 -0.578125 C 1.628906 -0.484375 1.726562 -0.4375 1.84375 -0.4375 C 1.9375 -0.4375 2.03125 -0.46875 2.125 -0.53125 C 2.21875 -0.59375 2.285156 -0.679688 2.328125 -0.796875 L 2.5 -0.796875 C 2.40625 -0.515625 2.265625 -0.300781 2.078125 -0.15625 C 1.890625 -0.0078125 1.695312 0.0625 1.5 0.0625 C 1.363281 0.0625 1.226562 0.0234375 1.09375 -0.046875 C 0.96875 -0.117188 0.875 -0.222656 0.8125 -0.359375 C 0.75 -0.503906 0.71875 -0.71875 0.71875 -1 L 0.71875 -3.703125 L 0.09375 -3.703125 L 0.09375 -3.84375 C 0.25 -3.914062 0.410156 -4.023438 0.578125 -4.171875 C 0.742188 -4.328125 0.894531 -4.507812 1.03125 -4.71875 C 1.09375 -4.832031 1.1875 -5.035156 1.3125 -5.328125 Z M 1.4375 -5.328125 "/>
</g>
<g id="glyph-4-3">
<path d="M 1.296875 -6.234375 C 1.421875 -6.234375 1.523438 -6.1875 1.609375 -6.09375 C 1.703125 -6.007812 1.75 -5.90625 1.75 -5.78125 C 1.75 -5.65625 1.703125 -5.550781 1.609375 -5.46875 C 1.523438 -5.382812 1.421875 -5.34375 1.296875 -5.34375 C 1.171875 -5.34375 1.066406 -5.382812 0.984375 -5.46875 C 0.898438 -5.550781 0.859375 -5.65625 0.859375 -5.78125 C 0.859375 -5.90625 0.898438 -6.007812 0.984375 -6.09375 C 1.066406 -6.1875 1.171875 -6.234375 1.296875 -6.234375 Z M 1.671875 -4.125 L 1.671875 -0.90625 C 1.671875 -0.65625 1.6875 -0.488281 1.71875 -0.40625 C 1.757812 -0.320312 1.8125 -0.257812 1.875 -0.21875 C 1.945312 -0.175781 2.078125 -0.15625 2.265625 -0.15625 L 2.265625 0 L 0.328125 0 L 0.328125 -0.15625 C 0.523438 -0.15625 0.65625 -0.171875 0.71875 -0.203125 C 0.78125 -0.242188 0.832031 -0.304688 0.875 -0.390625 C 0.914062 -0.484375 0.9375 -0.65625 0.9375 -0.90625 L 0.9375 -2.453125 C 0.9375 -2.890625 0.921875 -3.171875 0.890625 -3.296875 C 0.867188 -3.390625 0.835938 -3.453125 0.796875 -3.484375 C 0.753906 -3.523438 0.695312 -3.546875 0.625 -3.546875 C 0.539062 -3.546875 0.441406 -3.523438 0.328125 -3.484375 L 0.265625 -3.640625 L 1.46875 -4.125 Z M 1.671875 -4.125 "/>
</g>
<g id="glyph-4-4">
<path d="M 2.25 -4.125 C 2.851562 -4.125 3.335938 -3.894531 3.703125 -3.4375 C 4.015625 -3.039062 4.171875 -2.585938 4.171875 -2.078125 C 4.171875 -1.722656 4.082031 -1.359375 3.90625 -0.984375 C 3.738281 -0.617188 3.503906 -0.34375 3.203125 -0.15625 C 2.898438 0.0273438 2.5625 0.125 2.1875 0.125 C 1.582031 0.125 1.101562 -0.113281 0.75 -0.59375 C 0.445312 -1 0.296875 -1.457031 0.296875 -1.96875 C 0.296875 -2.332031 0.382812 -2.695312 0.5625 -3.0625 C 0.75 -3.425781 0.992188 -3.691406 1.296875 -3.859375 C 1.597656 -4.035156 1.914062 -4.125 2.25 -4.125 Z M 2.109375 -3.84375 C 1.953125 -3.84375 1.796875 -3.796875 1.640625 -3.703125 C 1.484375 -3.609375 1.351562 -3.445312 1.25 -3.21875 C 1.15625 -2.988281 1.109375 -2.691406 1.109375 -2.328125 C 1.109375 -1.742188 1.222656 -1.238281 1.453125 -0.8125 C 1.691406 -0.394531 2 -0.1875 2.375 -0.1875 C 2.664062 -0.1875 2.898438 -0.300781 3.078125 -0.53125 C 3.265625 -0.769531 3.359375 -1.175781 3.359375 -1.75 C 3.359375 -2.457031 3.207031 -3.015625 2.90625 -3.421875 C 2.695312 -3.703125 2.429688 -3.84375 2.109375 -3.84375 Z M 2.109375 -3.84375 "/>
</g>
<g id="glyph-4-5">
<path d="M 1.453125 -3.28125 C 1.921875 -3.84375 2.367188 -4.125 2.796875 -4.125 C 3.015625 -4.125 3.203125 -4.066406 3.359375 -3.953125 C 3.515625 -3.847656 3.640625 -3.671875 3.734375 -3.421875 C 3.796875 -3.242188 3.828125 -2.976562 3.828125 -2.625 L 3.828125 -0.90625 C 3.828125 -0.65625 3.847656 -0.484375 3.890625 -0.390625 C 3.921875 -0.316406 3.972656 -0.257812 4.046875 -0.21875 C 4.117188 -0.175781 4.25 -0.15625 4.4375 -0.15625 L 4.4375 0 L 2.46875 0 L 2.46875 -0.15625 L 2.546875 -0.15625 C 2.734375 -0.15625 2.863281 -0.179688 2.9375 -0.234375 C 3.007812 -0.296875 3.0625 -0.382812 3.09375 -0.5 C 3.101562 -0.539062 3.109375 -0.675781 3.109375 -0.90625 L 3.109375 -2.546875 C 3.109375 -2.910156 3.0625 -3.175781 2.96875 -3.34375 C 2.875 -3.507812 2.710938 -3.59375 2.484375 -3.59375 C 2.140625 -3.59375 1.796875 -3.398438 1.453125 -3.015625 L 1.453125 -0.90625 C 1.453125 -0.632812 1.46875 -0.46875 1.5 -0.40625 C 1.539062 -0.320312 1.597656 -0.257812 1.671875 -0.21875 C 1.742188 -0.175781 1.890625 -0.15625 2.109375 -0.15625 L 2.109375 0 L 0.125 0 L 0.125 -0.15625 L 0.203125 -0.15625 C 0.410156 -0.15625 0.550781 -0.207031 0.625 -0.3125 C 0.695312 -0.414062 0.734375 -0.613281 0.734375 -0.90625 L 0.734375 -2.390625 C 0.734375 -2.878906 0.71875 -3.175781 0.6875 -3.28125 C 0.664062 -3.382812 0.632812 -3.453125 0.59375 -3.484375 C 0.550781 -3.523438 0.488281 -3.546875 0.40625 -3.546875 C 0.320312 -3.546875 0.226562 -3.523438 0.125 -3.484375 L 0.046875 -3.640625 L 1.265625 -4.125 L 1.453125 -4.125 Z M 1.453125 -3.28125 "/>
</g>
<g id="glyph-4-6">
<path d="M 2.875 -4.125 L 2.875 -2.765625 L 2.734375 -2.765625 C 2.617188 -3.191406 2.472656 -3.484375 2.296875 -3.640625 C 2.128906 -3.796875 1.910156 -3.875 1.640625 -3.875 C 1.429688 -3.875 1.265625 -3.816406 1.140625 -3.703125 C 1.015625 -3.597656 0.953125 -3.476562 0.953125 -3.34375 C 0.953125 -3.1875 1 -3.050781 1.09375 -2.9375 C 1.1875 -2.8125 1.367188 -2.679688 1.640625 -2.546875 L 2.28125 -2.234375 C 2.875 -1.941406 3.171875 -1.5625 3.171875 -1.09375 C 3.171875 -0.726562 3.03125 -0.429688 2.75 -0.203125 C 2.476562 0.0117188 2.171875 0.125 1.828125 0.125 C 1.585938 0.125 1.3125 0.078125 1 -0.015625 C 0.894531 -0.0351562 0.8125 -0.046875 0.75 -0.046875 C 0.6875 -0.046875 0.632812 -0.0078125 0.59375 0.0625 L 0.453125 0.0625 L 0.453125 -1.375 L 0.59375 -1.375 C 0.675781 -0.957031 0.832031 -0.644531 1.0625 -0.4375 C 1.300781 -0.238281 1.5625 -0.140625 1.84375 -0.140625 C 2.039062 -0.140625 2.203125 -0.195312 2.328125 -0.3125 C 2.460938 -0.425781 2.53125 -0.566406 2.53125 -0.734375 C 2.53125 -0.941406 2.457031 -1.113281 2.3125 -1.25 C 2.175781 -1.382812 1.894531 -1.554688 1.46875 -1.765625 C 1.039062 -1.972656 0.765625 -2.164062 0.640625 -2.34375 C 0.503906 -2.507812 0.4375 -2.71875 0.4375 -2.96875 C 0.4375 -3.300781 0.546875 -3.578125 0.765625 -3.796875 C 0.992188 -4.015625 1.289062 -4.125 1.65625 -4.125 C 1.8125 -4.125 2.003906 -4.09375 2.234375 -4.03125 C 2.378906 -3.988281 2.476562 -3.96875 2.53125 -3.96875 C 2.570312 -3.96875 2.601562 -3.976562 2.625 -4 C 2.65625 -4.019531 2.691406 -4.0625 2.734375 -4.125 Z M 2.875 -4.125 "/>
</g>
<g id="glyph-4-7">
<path d="M 0.953125 -2.5 C 0.953125 -1.90625 1.097656 -1.4375 1.390625 -1.09375 C 1.679688 -0.757812 2.023438 -0.59375 2.421875 -0.59375 C 2.679688 -0.59375 2.90625 -0.664062 3.09375 -0.8125 C 3.289062 -0.957031 3.457031 -1.203125 3.59375 -1.546875 L 3.734375 -1.46875 C 3.671875 -1.0625 3.488281 -0.691406 3.1875 -0.359375 C 2.894531 -0.0351562 2.523438 0.125 2.078125 0.125 C 1.597656 0.125 1.1875 -0.0625 0.84375 -0.4375 C 0.5 -0.8125 0.328125 -1.316406 0.328125 -1.953125 C 0.328125 -2.640625 0.503906 -3.175781 0.859375 -3.5625 C 1.210938 -3.945312 1.65625 -4.140625 2.1875 -4.140625 C 2.632812 -4.140625 3.003906 -3.988281 3.296875 -3.6875 C 3.585938 -3.394531 3.734375 -3 3.734375 -2.5 Z M 0.953125 -2.75 L 2.8125 -2.75 C 2.800781 -3.007812 2.769531 -3.191406 2.71875 -3.296875 C 2.644531 -3.460938 2.535156 -3.59375 2.390625 -3.6875 C 2.242188 -3.78125 2.09375 -3.828125 1.9375 -3.828125 C 1.695312 -3.828125 1.476562 -3.734375 1.28125 -3.546875 C 1.09375 -3.359375 0.984375 -3.09375 0.953125 -2.75 Z M 0.953125 -2.75 "/>
</g>
<g id="glyph-4-8">
<path d="M 1.453125 -4.125 L 1.453125 -3.234375 C 1.785156 -3.828125 2.128906 -4.125 2.484375 -4.125 C 2.648438 -4.125 2.785156 -4.078125 2.890625 -3.984375 C 2.992188 -3.890625 3.046875 -3.773438 3.046875 -3.640625 C 3.046875 -3.523438 3.003906 -3.425781 2.921875 -3.34375 C 2.847656 -3.269531 2.757812 -3.234375 2.65625 -3.234375 C 2.550781 -3.234375 2.4375 -3.28125 2.3125 -3.375 C 2.1875 -3.476562 2.09375 -3.53125 2.03125 -3.53125 C 1.976562 -3.53125 1.921875 -3.503906 1.859375 -3.453125 C 1.734375 -3.328125 1.597656 -3.128906 1.453125 -2.859375 L 1.453125 -0.9375 C 1.453125 -0.71875 1.476562 -0.550781 1.53125 -0.4375 C 1.570312 -0.351562 1.640625 -0.285156 1.734375 -0.234375 C 1.835938 -0.179688 1.976562 -0.15625 2.15625 -0.15625 L 2.15625 0 L 0.09375 0 L 0.09375 -0.15625 C 0.300781 -0.15625 0.457031 -0.1875 0.5625 -0.25 C 0.632812 -0.300781 0.679688 -0.378906 0.703125 -0.484375 C 0.722656 -0.523438 0.734375 -0.664062 0.734375 -0.90625 L 0.734375 -2.453125 C 0.734375 -2.921875 0.722656 -3.195312 0.703125 -3.28125 C 0.679688 -3.375 0.644531 -3.441406 0.59375 -3.484375 C 0.539062 -3.523438 0.476562 -3.546875 0.40625 -3.546875 C 0.3125 -3.546875 0.207031 -3.523438 0.09375 -3.484375 L 0.0625 -3.640625 L 1.265625 -4.125 Z M 1.453125 -4.125 "/>
</g>
<g id="glyph-4-9">
<path d="M 0.0625 -4.015625 L 1.734375 -4.015625 L 1.734375 -3.84375 C 1.578125 -3.832031 1.472656 -3.804688 1.421875 -3.765625 C 1.378906 -3.722656 1.359375 -3.660156 1.359375 -3.578125 C 1.359375 -3.484375 1.382812 -3.375 1.4375 -3.25 L 2.296875 -0.9375 L 3.15625 -2.8125 L 2.9375 -3.40625 C 2.863281 -3.582031 2.769531 -3.707031 2.65625 -3.78125 C 2.59375 -3.820312 2.472656 -3.84375 2.296875 -3.84375 L 2.296875 -4.015625 L 4.203125 -4.015625 L 4.203125 -3.84375 C 3.992188 -3.84375 3.84375 -3.804688 3.75 -3.734375 C 3.695312 -3.691406 3.671875 -3.617188 3.671875 -3.515625 C 3.671875 -3.453125 3.679688 -3.390625 3.703125 -3.328125 L 4.609375 -1.03125 L 5.46875 -3.25 C 5.519531 -3.40625 5.546875 -3.53125 5.546875 -3.625 C 5.546875 -3.675781 5.515625 -3.722656 5.453125 -3.765625 C 5.398438 -3.816406 5.289062 -3.84375 5.125 -3.84375 L 5.125 -4.015625 L 6.390625 -4.015625 L 6.390625 -3.84375 C 6.140625 -3.8125 5.953125 -3.640625 5.828125 -3.328125 L 4.5 0.125 L 4.3125 0.125 L 3.3125 -2.4375 L 2.140625 0.125 L 1.984375 0.125 L 0.6875 -3.25 C 0.601562 -3.457031 0.519531 -3.597656 0.4375 -3.671875 C 0.351562 -3.753906 0.226562 -3.8125 0.0625 -3.84375 Z M 0.0625 -4.015625 "/>
</g>
<g id="glyph-4-10">
<path d="M 3.109375 -0.453125 C 2.910156 -0.242188 2.71875 -0.09375 2.53125 0 C 2.351562 0.0820312 2.15625 0.125 1.9375 0.125 C 1.5 0.125 1.113281 -0.0546875 0.78125 -0.421875 C 0.457031 -0.796875 0.296875 -1.269531 0.296875 -1.84375 C 0.296875 -2.414062 0.476562 -2.941406 0.84375 -3.421875 C 1.207031 -3.898438 1.671875 -4.140625 2.234375 -4.140625 C 2.585938 -4.140625 2.878906 -4.023438 3.109375 -3.796875 L 3.109375 -4.53125 C 3.109375 -4.988281 3.097656 -5.269531 3.078125 -5.375 C 3.054688 -5.488281 3.019531 -5.5625 2.96875 -5.59375 C 2.925781 -5.632812 2.867188 -5.65625 2.796875 -5.65625 C 2.722656 -5.65625 2.625 -5.628906 2.5 -5.578125 L 2.4375 -5.734375 L 3.640625 -6.234375 L 3.84375 -6.234375 L 3.84375 -1.59375 C 3.84375 -1.125 3.851562 -0.835938 3.875 -0.734375 C 3.894531 -0.628906 3.925781 -0.554688 3.96875 -0.515625 C 4.019531 -0.472656 4.078125 -0.453125 4.140625 -0.453125 C 4.222656 -0.453125 4.328125 -0.476562 4.453125 -0.53125 L 4.5 -0.375 L 3.3125 0.125 L 3.109375 0.125 Z M 3.109375 -0.75 L 3.109375 -2.828125 C 3.097656 -3.023438 3.046875 -3.203125 2.953125 -3.359375 C 2.867188 -3.523438 2.753906 -3.648438 2.609375 -3.734375 C 2.460938 -3.816406 2.320312 -3.859375 2.1875 -3.859375 C 1.925781 -3.859375 1.695312 -3.742188 1.5 -3.515625 C 1.226562 -3.210938 1.09375 -2.769531 1.09375 -2.1875 C 1.09375 -1.59375 1.222656 -1.140625 1.484375 -0.828125 C 1.742188 -0.515625 2.03125 -0.359375 2.34375 -0.359375 C 2.601562 -0.359375 2.859375 -0.488281 3.109375 -0.75 Z M 3.109375 -0.75 "/>
</g>
<g id="glyph-4-11">
<path d="M 0.484375 1.5 L 0.484375 1.296875 C 0.785156 1.203125 1.015625 1.050781 1.171875 0.84375 C 1.335938 0.632812 1.421875 0.410156 1.421875 0.171875 C 1.421875 0.117188 1.410156 0.0703125 1.390625 0.03125 C 1.367188 0.0078125 1.347656 0 1.328125 0 C 1.296875 0 1.222656 0.0234375 1.109375 0.078125 C 1.054688 0.109375 1.003906 0.125 0.953125 0.125 C 0.804688 0.125 0.691406 0.0820312 0.609375 0 C 0.523438 -0.0820312 0.484375 -0.203125 0.484375 -0.359375 C 0.484375 -0.492188 0.535156 -0.613281 0.640625 -0.71875 C 0.753906 -0.820312 0.890625 -0.875 1.046875 -0.875 C 1.234375 -0.875 1.398438 -0.789062 1.546875 -0.625 C 1.703125 -0.457031 1.78125 -0.230469 1.78125 0.046875 C 1.78125 0.347656 1.675781 0.625 1.46875 0.875 C 1.257812 1.132812 0.929688 1.34375 0.484375 1.5 Z M 0.484375 1.5 "/>
</g>
<g id="glyph-4-12">
<path d="M 0.125 -4.015625 L 2 -4.015625 L 2 -3.84375 C 1.882812 -3.84375 1.800781 -3.820312 1.75 -3.78125 C 1.707031 -3.75 1.6875 -3.695312 1.6875 -3.625 C 1.6875 -3.550781 1.734375 -3.441406 1.828125 -3.296875 C 1.867188 -3.253906 1.921875 -3.179688 1.984375 -3.078125 L 2.265625 -2.625 L 2.59375 -3.078125 C 2.800781 -3.367188 2.90625 -3.550781 2.90625 -3.625 C 2.90625 -3.6875 2.878906 -3.738281 2.828125 -3.78125 C 2.785156 -3.820312 2.707031 -3.84375 2.59375 -3.84375 L 2.59375 -4.015625 L 3.953125 -4.015625 L 3.953125 -3.84375 C 3.804688 -3.84375 3.679688 -3.804688 3.578125 -3.734375 C 3.429688 -3.628906 3.234375 -3.410156 2.984375 -3.078125 L 2.4375 -2.359375 L 3.4375 -0.921875 C 3.6875 -0.566406 3.863281 -0.351562 3.96875 -0.28125 C 4.070312 -0.207031 4.207031 -0.164062 4.375 -0.15625 L 4.375 0 L 2.484375 0 L 2.484375 -0.15625 C 2.617188 -0.15625 2.722656 -0.1875 2.796875 -0.25 C 2.847656 -0.289062 2.875 -0.34375 2.875 -0.40625 C 2.875 -0.476562 2.78125 -0.648438 2.59375 -0.921875 L 2 -1.78125 L 1.359375 -0.921875 C 1.160156 -0.648438 1.0625 -0.488281 1.0625 -0.4375 C 1.0625 -0.375 1.09375 -0.3125 1.15625 -0.25 C 1.226562 -0.195312 1.328125 -0.164062 1.453125 -0.15625 L 1.453125 0 L 0.15625 0 L 0.15625 -0.15625 C 0.257812 -0.164062 0.347656 -0.203125 0.421875 -0.265625 C 0.535156 -0.347656 0.722656 -0.566406 0.984375 -0.921875 L 1.828125 -2.03125 L 1.0625 -3.140625 C 0.84375 -3.453125 0.675781 -3.644531 0.5625 -3.71875 C 0.445312 -3.800781 0.300781 -3.84375 0.125 -3.84375 Z M 0.125 -4.015625 "/>
</g>
<g id="glyph-4-13">
<path d="M 5.1875 -5.9375 L 5.25 -4.546875 L 5.09375 -4.546875 C 5.0625 -4.785156 5.015625 -4.960938 4.953125 -5.078125 C 4.867188 -5.242188 4.75 -5.363281 4.59375 -5.4375 C 4.445312 -5.519531 4.25 -5.5625 4 -5.5625 L 3.171875 -5.5625 L 3.171875 -1.03125 C 3.171875 -0.664062 3.207031 -0.4375 3.28125 -0.34375 C 3.394531 -0.21875 3.566406 -0.15625 3.796875 -0.15625 L 4 -0.15625 L 4 0 L 1.484375 0 L 1.484375 -0.15625 L 1.6875 -0.15625 C 1.945312 -0.15625 2.128906 -0.234375 2.234375 -0.390625 C 2.296875 -0.484375 2.328125 -0.695312 2.328125 -1.03125 L 2.328125 -5.5625 L 1.609375 -5.5625 C 1.335938 -5.5625 1.140625 -5.539062 1.015625 -5.5 C 0.867188 -5.445312 0.738281 -5.34375 0.625 -5.1875 C 0.519531 -5.03125 0.457031 -4.816406 0.4375 -4.546875 L 0.265625 -4.546875 L 0.34375 -5.9375 Z M 5.1875 -5.9375 "/>
</g>
<g id="glyph-4-14">
<path d="M 0.15625 0 L 0.15625 -0.15625 L 0.375 -0.15625 C 0.625 -0.15625 0.800781 -0.238281 0.90625 -0.40625 C 0.96875 -0.5 1 -0.710938 1 -1.046875 L 1 -4.890625 C 1 -5.253906 0.960938 -5.484375 0.890625 -5.578125 C 0.773438 -5.710938 0.601562 -5.78125 0.375 -5.78125 L 0.15625 -5.78125 L 0.15625 -5.9375 L 2.578125 -5.9375 C 3.460938 -5.9375 4.132812 -5.832031 4.59375 -5.625 C 5.0625 -5.425781 5.4375 -5.09375 5.71875 -4.625 C 6 -4.15625 6.140625 -3.613281 6.140625 -3 C 6.140625 -2.175781 5.882812 -1.484375 5.375 -0.921875 C 4.8125 -0.304688 3.957031 0 2.8125 0 Z M 1.84375 -0.421875 C 2.21875 -0.347656 2.53125 -0.3125 2.78125 -0.3125 C 3.457031 -0.3125 4.019531 -0.546875 4.46875 -1.015625 C 4.914062 -1.492188 5.140625 -2.140625 5.140625 -2.953125 C 5.140625 -3.773438 4.914062 -4.421875 4.46875 -4.890625 C 4.019531 -5.367188 3.445312 -5.609375 2.75 -5.609375 C 2.488281 -5.609375 2.1875 -5.566406 1.84375 -5.484375 Z M 1.84375 -0.421875 "/>
</g>
<g id="glyph-4-15">
<path d="M 2.78125 1.75 L 2.78125 1.921875 C 2.34375 1.691406 1.976562 1.429688 1.6875 1.140625 C 1.257812 0.710938 0.929688 0.210938 0.703125 -0.359375 C 0.484375 -0.929688 0.375 -1.53125 0.375 -2.15625 C 0.375 -3.050781 0.59375 -3.875 1.03125 -4.625 C 1.476562 -5.375 2.0625 -5.910156 2.78125 -6.234375 L 2.78125 -6.046875 C 2.425781 -5.847656 2.128906 -5.578125 1.890625 -5.234375 C 1.660156 -4.890625 1.488281 -4.453125 1.375 -3.921875 C 1.269531 -3.390625 1.21875 -2.835938 1.21875 -2.265625 C 1.21875 -1.640625 1.265625 -1.070312 1.359375 -0.5625 C 1.429688 -0.15625 1.519531 0.164062 1.625 0.40625 C 1.738281 0.65625 1.882812 0.890625 2.0625 1.109375 C 2.25 1.335938 2.488281 1.550781 2.78125 1.75 Z M 2.78125 1.75 "/>
</g>
<g id="glyph-4-16">
<path d="M 0.203125 -6.046875 L 0.203125 -6.234375 C 0.640625 -6.015625 1.007812 -5.753906 1.3125 -5.453125 C 1.726562 -5.023438 2.050781 -4.523438 2.28125 -3.953125 C 2.507812 -3.378906 2.625 -2.78125 2.625 -2.15625 C 2.625 -1.25 2.398438 -0.425781 1.953125 0.3125 C 1.503906 1.0625 0.921875 1.597656 0.203125 1.921875 L 0.203125 1.75 C 0.554688 1.550781 0.847656 1.28125 1.078125 0.9375 C 1.316406 0.59375 1.492188 0.152344 1.609375 -0.375 C 1.722656 -0.90625 1.78125 -1.457031 1.78125 -2.03125 C 1.78125 -2.644531 1.726562 -3.210938 1.625 -3.734375 C 1.550781 -4.128906 1.457031 -4.445312 1.34375 -4.6875 C 1.238281 -4.9375 1.09375 -5.171875 0.90625 -5.390625 C 0.726562 -5.617188 0.492188 -5.835938 0.203125 -6.046875 Z M 0.203125 -6.046875 "/>
</g>
<g id="glyph-5-0">
<path d="M 3.421875 -3.40625 C 3.25 -3.734375 2.984375 -3.96875 2.578125 -3.96875 C 1.53125 -3.96875 0.375 -2.71875 0.375 -1.359375 C 0.375 -0.375 1 0.09375 1.609375 0.09375 C 2.1875 0.09375 2.65625 -0.390625 2.8125 -0.5625 C 2.90625 -0.0625 3.359375 0.09375 3.640625 0.09375 C 3.90625 0.09375 4.125 -0.015625 4.328125 -0.390625 C 4.484375 -0.6875 4.609375 -1.25 4.609375 -1.28125 C 4.609375 -1.328125 4.578125 -1.390625 4.5 -1.390625 C 4.390625 -1.390625 4.375 -1.34375 4.34375 -1.171875 C 4.140625 -0.390625 3.953125 -0.125 3.671875 -0.125 C 3.4375 -0.125 3.390625 -0.34375 3.390625 -0.53125 C 3.390625 -0.703125 3.4375 -0.890625 3.515625 -1.203125 L 3.734375 -2.125 C 3.796875 -2.34375 3.96875 -3.015625 4 -3.15625 C 4.03125 -3.28125 4.09375 -3.5 4.09375 -3.53125 C 4.09375 -3.671875 3.96875 -3.78125 3.8125 -3.78125 C 3.6875 -3.78125 3.46875 -3.71875 3.421875 -3.40625 Z M 2.84375 -1.09375 C 2.796875 -0.921875 2.796875 -0.921875 2.65625 -0.75 C 2.328125 -0.359375 1.96875 -0.125 1.625 -0.125 C 1.1875 -0.125 1.046875 -0.578125 1.046875 -0.96875 C 1.046875 -1.40625 1.296875 -2.4375 1.515625 -2.875 C 1.796875 -3.40625 2.21875 -3.734375 2.578125 -3.734375 C 3.171875 -3.734375 3.3125 -3.015625 3.3125 -2.953125 C 3.3125 -2.921875 3.296875 -2.859375 3.28125 -2.828125 Z M 2.84375 -1.09375 "/>
</g>
<g id="glyph-5-1">
<path d="M 3.5625 -3.359375 C 3.171875 -3.3125 3.140625 -3.015625 3.140625 -2.953125 C 3.140625 -2.796875 3.25 -2.6875 3.421875 -2.6875 C 3.671875 -2.6875 3.84375 -2.890625 3.84375 -3.1875 C 3.84375 -3.625 3.40625 -3.96875 2.75 -3.96875 C 1.546875 -3.96875 1.203125 -3.0625 1.203125 -2.65625 C 1.203125 -2.3125 1.375 -2.140625 1.484375 -2.03125 C 1.671875 -1.859375 1.90625 -1.796875 2.234375 -1.734375 C 2.640625 -1.65625 2.71875 -1.640625 2.890625 -1.53125 C 3.03125 -1.421875 3.109375 -1.28125 3.109375 -1.078125 C 3.109375 -0.859375 2.890625 -0.125 1.8125 -0.125 C 1.609375 -0.125 0.984375 -0.15625 0.78125 -0.5625 C 1.234375 -0.5625 1.3125 -0.921875 1.3125 -1.046875 C 1.3125 -1.3125 1.078125 -1.375 0.984375 -1.375 C 0.8125 -1.375 0.46875 -1.25 0.46875 -0.78125 C 0.46875 -0.21875 1.046875 0.09375 1.796875 0.09375 C 3.3125 0.09375 3.640625 -1 3.640625 -1.390625 C 3.640625 -1.734375 3.453125 -1.953125 3.34375 -2.046875 C 3.109375 -2.296875 2.828125 -2.34375 2.515625 -2.40625 C 2.40625 -2.4375 2.203125 -2.46875 2.171875 -2.484375 C 1.890625 -2.546875 1.71875 -2.71875 1.71875 -2.953125 C 1.71875 -3.046875 1.78125 -3.34375 2.03125 -3.53125 C 2.28125 -3.734375 2.625 -3.734375 2.75 -3.734375 C 3.0625 -3.734375 3.421875 -3.640625 3.5625 -3.359375 Z M 3.5625 -3.359375 "/>
</g>
<g id="glyph-5-2">
<path d="M 3.625 -3.625 C 3.328125 -3.578125 3.171875 -3.328125 3.171875 -3.140625 C 3.171875 -2.96875 3.296875 -2.8125 3.53125 -2.8125 C 3.765625 -2.8125 4.015625 -3.015625 4.015625 -3.359375 C 4.015625 -3.703125 3.6875 -3.96875 3.25 -3.96875 C 2.578125 -3.96875 2.203125 -3.46875 2.078125 -3.296875 C 1.96875 -3.78125 1.5625 -3.96875 1.234375 -3.96875 C 0.90625 -3.96875 0.703125 -3.765625 0.546875 -3.453125 C 0.375 -3.125 0.265625 -2.625 0.265625 -2.578125 C 0.265625 -2.5 0.328125 -2.46875 0.390625 -2.46875 C 0.484375 -2.46875 0.5 -2.515625 0.546875 -2.703125 C 0.71875 -3.40625 0.90625 -3.734375 1.203125 -3.734375 C 1.484375 -3.734375 1.484375 -3.453125 1.484375 -3.3125 C 1.484375 -3.125 1.40625 -2.859375 1.359375 -2.625 C 1.296875 -2.390625 1.203125 -2 1.171875 -1.890625 L 0.8125 -0.421875 C 0.75 -0.203125 0.75 -0.1875 0.75 -0.15625 C 0.75 -0.046875 0.828125 0.09375 1.015625 0.09375 C 1.3125 0.09375 1.375 -0.140625 1.4375 -0.40625 C 1.546875 -0.796875 1.546875 -0.8125 1.625 -1.171875 C 1.96875 -2.515625 2.015625 -2.734375 2.03125 -2.78125 C 2.09375 -2.890625 2.5 -3.734375 3.25 -3.734375 C 3.453125 -3.734375 3.578125 -3.671875 3.625 -3.625 Z M 3.625 -3.625 "/>
</g>
<g id="glyph-6-0">
<path d="M 1.875 -2.8125 C 1.921875 -2.90625 1.9375 -2.96875 1.9375 -3 C 1.9375 -3.1875 1.765625 -3.34375 1.5625 -3.34375 C 1.328125 -3.34375 1.25 -3.140625 1.234375 -3.046875 L 0.390625 -0.484375 C 0.390625 -0.453125 0.359375 -0.40625 0.359375 -0.390625 C 0.359375 -0.28125 0.609375 -0.234375 0.609375 -0.234375 C 0.671875 -0.234375 0.6875 -0.28125 0.71875 -0.328125 Z M 1.875 -2.8125 "/>
</g>
</g>
<clipPath id="clip-0">
<path clip-rule="nonzero" d="M 155 64 L 281.710938 64 L 281.710938 141 L 155 141 Z M 155 64 "/>
</clipPath>
<clipPath id="clip-1">
<path clip-rule="nonzero" d="M 0 132 L 127 132 L 127 205.171875 L 0 205.171875 Z M 0 132 "/>
</clipPath>
</defs>
<path fill-rule="nonzero" fill="rgb(96.998596%, 96.998596%, 96.998596%)" fill-opacity="1" stroke-width="0.99628" stroke-linecap="butt" stroke-linejoin="miter" stroke="rgb(29.998779%, 29.998779%, 29.998779%)" stroke-opacity="1" stroke-miterlimit="10" d="M 43.054592 92.126479 L -43.054783 92.126479 C -47.457126 92.126479 -51.023533 88.560072 -51.023533 84.157729 L -51.023533 51.907729 C -51.023533 47.505385 -47.457126 43.938979 -43.054783 43.938979 L 43.054592 43.938979 C 47.456936 43.938979 51.023342 47.505385 51.023342 51.907729 L 51.023342 84.157729 C 51.023342 88.560072 47.456936 92.126479 43.054592 92.126479 Z M 43.054592 92.126479 " transform="matrix(1, 0, 0, -1, 61.48447, 102.58351)"/>
<g fill="rgb(0%, 0%, 0%)" fill-opacity="1">
<use xlink:href="#glyph-0-0" x="50.14242" y="32.88924"/>
<use xlink:href="#glyph-0-1" x="57.335446" y="32.88924"/>
<use xlink:href="#glyph-0-2" x="61.758858" y="32.88924"/>
<use xlink:href="#glyph-0-3" x="64.528472" y="32.88924"/>
<use xlink:href="#glyph-0-4" x="69.509792" y="32.88924"/>
</g>
<g fill="rgb(0%, 0%, 0%)" fill-opacity="1">
<use xlink:href="#glyph-1-0" x="35.55637" y="42.85188"/>
<use xlink:href="#glyph-1-1" x="39.541426" y="42.85188"/>
<use xlink:href="#glyph-1-2" x="43.080156" y="42.85188"/>
<use xlink:href="#glyph-1-3" x="46.618885" y="42.85188"/>
<use xlink:href="#glyph-1-0" x="48.834577" y="42.85188"/>
<use xlink:href="#glyph-1-1" x="52.819633" y="42.85188"/>
<use xlink:href="#glyph-1-4" x="56.358362" y="42.85188"/>
</g>
<g fill="rgb(0%, 0%, 0%)" fill-opacity="1">
<use xlink:href="#glyph-1-5" x="61.451264" y="42.85188"/>
<use xlink:href="#glyph-1-2" x="64.989994" y="42.85188"/>
<use xlink:href="#glyph-1-6" x="68.528723" y="42.85188"/>
<use xlink:href="#glyph-1-3" x="70.744414" y="42.85188"/>
<use xlink:href="#glyph-1-7" x="72.960106" y="42.85188"/>
<use xlink:href="#glyph-1-8" x="76.945162" y="42.85188"/>
</g>
<g fill="rgb(0%, 0%, 0%)" fill-opacity="1">
<use xlink:href="#glyph-2-0" x="82.91394" y="42.85188"/>
</g>
<path fill-rule="nonzero" fill="rgb(96.998596%, 96.998596%, 96.998596%)" fill-opacity="1" d="M 263.28125 78.488281 L 177.171875 78.488281 C 172.769531 78.488281 169.203125 82.058594 169.203125 86.460938 L 169.203125 118.707031 C 169.203125 123.109375 172.769531 126.679688 177.171875 126.679688 L 263.28125 126.679688 C 267.683594 126.679688 271.25 123.109375 271.25 118.707031 L 271.25 86.460938 C 271.25 82.058594 267.683594 78.488281 263.28125 78.488281 Z M 263.28125 78.488281 "/>
<g clip-path="url(#clip-0)">
<path fill="none" stroke-width="0.99628" stroke-linecap="butt" stroke-linejoin="miter" stroke="rgb(29.998779%, 29.998779%, 29.998779%)" stroke-opacity="1" stroke-miterlimit="10" d="M 201.79678 24.095229 L 115.687405 24.095229 C 111.285061 24.095229 107.718655 20.524916 107.718655 16.122572 L 107.718655 -16.123521 C 107.718655 -20.525865 111.285061 -24.096178 115.687405 -24.096178 L 201.79678 -24.096178 C 206.199124 -24.096178 209.76553 -20.525865 209.76553 -16.123521 L 209.76553 16.122572 C 209.76553 20.524916 206.199124 24.095229 201.79678 24.095229 Z M 201.79678 24.095229 " transform="matrix(1, 0, 0, -1, 61.48447, 102.58351)"/>
</g>
<g fill="rgb(0%, 0%, 0%)" fill-opacity="1">
<use xlink:href="#glyph-0-5" x="194.21799" y="105.97417"/>
<use xlink:href="#glyph-0-6" x="200.305163" y="105.97417"/>
<use xlink:href="#glyph-0-7" x="205.286483" y="105.97417"/>
<use xlink:href="#glyph-0-8" x="210.267803" y="105.97417"/>
<use xlink:href="#glyph-0-4" x="213.037417" y="105.97417"/>
<use xlink:href="#glyph-0-3" x="216.354976" y="105.97417"/>
<use xlink:href="#glyph-0-6" x="221.336296" y="105.97417"/>
<use xlink:href="#glyph-0-9" x="226.317616" y="105.97417"/>
<use xlink:href="#glyph-0-10" x="234.06855" y="105.97417"/>
<use xlink:href="#glyph-0-6" x="238.491962" y="105.97417"/>
<use xlink:href="#glyph-0-2" x="243.473282" y="105.97417"/>
</g>
<path fill-rule="nonzero" fill="rgb(96.998596%, 96.998596%, 96.998596%)" fill-opacity="1" d="M 104.539062 146.519531 L 18.429688 146.519531 C 14.027344 146.519531 10.460938 150.089844 10.460938 154.492188 L 10.460938 186.738281 C 10.460938 191.140625 14.027344 194.710938 18.429688 194.710938 L 104.539062 194.710938 C 108.941406 194.710938 112.507812 191.140625 112.507812 186.738281 L 112.507812 154.492188 C 112.507812 150.089844 108.941406 146.519531 104.539062 146.519531 Z M 104.539062 146.519531 "/>
<g clip-path="url(#clip-1)">
<path fill="none" stroke-width="0.99628" stroke-linecap="butt" stroke-linejoin="miter" stroke="rgb(29.998779%, 29.998779%, 29.998779%)" stroke-opacity="1" stroke-miterlimit="10" d="M 43.054592 -43.936021 L -43.054783 -43.936021 C -47.457126 -43.936021 -51.023533 -47.506334 -51.023533 -51.908678 L -51.023533 -84.154771 C -51.023533 -88.557115 -47.457126 -92.127428 -43.054783 -92.127428 L 43.054592 -92.127428 C 47.456936 -92.127428 51.023342 -88.557115 51.023342 -84.154771 L 51.023342 -51.908678 C 51.023342 -47.506334 47.456936 -43.936021 43.054592 -43.936021 Z M 43.054592 -43.936021 " transform="matrix(1, 0, 0, -1, 61.48447, 102.58351)"/>
</g>
<g fill="rgb(0%, 0%, 0%)" fill-opacity="1">
<use xlink:href="#glyph-0-11" x="50.13986" y="168.0969"/>
<use xlink:href="#glyph-0-4" x="56.784941" y="168.0969"/>
<use xlink:href="#glyph-0-8" x="60.1025" y="168.0969"/>
<use xlink:href="#glyph-0-2" x="62.872114" y="168.0969"/>
<use xlink:href="#glyph-0-8" x="65.641728" y="168.0969"/>
<use xlink:href="#glyph-0-1" x="68.411342" y="168.0969"/>
</g>
<g fill="rgb(0%, 0%, 0%)" fill-opacity="1">
<use xlink:href="#glyph-1-1" x="27.37467" y="178.05954"/>
<use xlink:href="#glyph-1-4" x="30.9134" y="178.05954"/>
<use xlink:href="#glyph-1-6" x="34.013773" y="178.05954"/>
<use xlink:href="#glyph-1-3" x="36.229464" y="178.05954"/>
<use xlink:href="#glyph-1-9" x="38.445156" y="178.05954"/>
<use xlink:href="#glyph-1-5" x="44.645903" y="178.05954"/>
<use xlink:href="#glyph-1-6" x="48.184632" y="178.05954"/>
<use xlink:href="#glyph-1-1" x="50.400324" y="178.05954"/>
<use xlink:href="#glyph-1-4" x="53.939053" y="178.05954"/>
</g>
<g fill="rgb(0%, 0%, 0%)" fill-opacity="1">
<use xlink:href="#glyph-1-10" x="59.031955" y="178.05954"/>
<use xlink:href="#glyph-1-5" x="63.017011" y="178.05954"/>
<use xlink:href="#glyph-1-11" x="66.555741" y="178.05954"/>
<use xlink:href="#glyph-1-12" x="68.771432" y="178.05954"/>
<use xlink:href="#glyph-1-1" x="72.756488" y="178.05954"/>
</g>
<g fill="rgb(0%, 0%, 0%)" fill-opacity="1">
<use xlink:href="#glyph-2-1" x="78.27753" y="178.05954"/>
</g>
<g fill="rgb(0%, 0%, 0%)" fill-opacity="1">
<use xlink:href="#glyph-3-0" x="85.09097" y="178.05954"/>
</g>
<g fill="rgb(0%, 0%, 0%)" fill-opacity="1">
<use xlink:href="#glyph-2-2" x="88.38422" y="178.05954"/>
</g>
<g fill="rgb(0%, 0%, 0%)" fill-opacity="1">
<use xlink:href="#glyph-3-1" x="92.30014" y="178.05954"/>
</g>
<path fill="none" stroke-width="1.0959" stroke-linecap="butt" stroke-linejoin="miter" stroke="rgb(29.998779%, 29.998779%, 29.998779%)" stroke-opacity="1" stroke-miterlimit="10" d="M 54.663967 65.579604 L 100.73428 29.649916 " transform="matrix(1, 0, 0, -1, 61.48447, 102.58351)"/>
<path fill-rule="nonzero" fill="rgb(29.998779%, 29.998779%, 29.998779%)" fill-opacity="1" stroke-width="1.0959" stroke-linecap="butt" stroke-linejoin="miter" stroke="rgb(29.998779%, 29.998779%, 29.998779%)" stroke-opacity="1" stroke-miterlimit="10" d="M 5.345471 -0.000834891 L 1.82618 1.272086 L 3.007487 -0.00120273 L 1.825798 -1.27455 Z M 5.345471 -0.000834891 " transform="matrix(0.78851, 0.61497, 0.61497, -0.78851, 160.0629, 71.2511)"/>
<path fill-rule="nonzero" fill="rgb(100%, 100%, 100%)" fill-opacity="1" d="M 123.234375 54.855469 L 156.25 54.855469 L 156.25 44.519531 L 123.234375 44.519531 Z M 123.234375 54.855469 "/>
<g fill="rgb(29.998779%, 29.998779%, 29.998779%)" fill-opacity="1">
<use xlink:href="#glyph-4-0" x="125.22541" y="52.73895"/>
<use xlink:href="#glyph-4-1" x="129.206481" y="52.73895"/>
<use xlink:href="#glyph-4-2" x="133.187552" y="52.73895"/>
<use xlink:href="#glyph-4-3" x="135.680204" y="52.73895"/>
<use xlink:href="#glyph-4-4" x="138.172857" y="52.73895"/>
<use xlink:href="#glyph-4-5" x="142.656045" y="52.73895"/>
</g>
<g fill="rgb(29.998779%, 29.998779%, 29.998779%)" fill-opacity="1">
<use xlink:href="#glyph-5-0" x="149.37508" y="52.73895"/>
</g>
<path fill="none" stroke-width="1.0959" stroke-linecap="butt" stroke-linejoin="miter" stroke="rgb(29.998779%, 29.998779%, 29.998779%)" stroke-opacity="1" stroke-miterlimit="10" d="M 104.07803 2.450697 L 58.007717 38.380385 " transform="matrix(1, 0, 0, -1, 61.48447, 102.58351)"/>
<path fill-rule="nonzero" fill="rgb(29.998779%, 29.998779%, 29.998779%)" fill-opacity="1" stroke-width="1.0959" stroke-linecap="butt" stroke-linejoin="miter" stroke="rgb(29.998779%, 29.998779%, 29.998779%)" stroke-opacity="1" stroke-miterlimit="10" d="M 5.344557 0.0007967 L 1.825266 1.273718 L 3.006573 0.000428864 L 1.824884 -1.272918 Z M 5.344557 0.0007967 " transform="matrix(-0.78851, -0.61497, -0.61497, 0.78851, 121.64832, 65.88377)"/>
<path fill-rule="nonzero" fill="rgb(100%, 100%, 100%)" fill-opacity="1" d="M 128.496094 81.183594 L 155.445312 81.183594 L 155.445312 71.75 L 128.496094 71.75 Z M 128.496094 81.183594 "/>
<g fill="rgb(29.998779%, 29.998779%, 29.998779%)" fill-opacity="1">
<use xlink:href="#glyph-4-6" x="130.48688" y="79.06978"/>
<use xlink:href="#glyph-4-2" x="133.9748" y="79.06978"/>
<use xlink:href="#glyph-4-0" x="136.467453" y="79.06978"/>
<use xlink:href="#glyph-4-2" x="140.448524" y="79.06978"/>
<use xlink:href="#glyph-4-7" x="142.941176" y="79.06978"/>
</g>
<g fill="rgb(29.998779%, 29.998779%, 29.998779%)" fill-opacity="1">
<use xlink:href="#glyph-5-1" x="149.15953" y="79.06978"/>
</g>
<path fill="none" stroke-width="1.0959" stroke-linecap="butt" stroke-linejoin="miter" stroke="rgb(29.998779%, 29.998779%, 29.998779%)" stroke-opacity="1" stroke-miterlimit="10" d="M 104.07803 -27.045396 L 58.007717 -62.975084 " transform="matrix(1, 0, 0, -1, 61.48447, 102.58351)"/>
<path fill-rule="nonzero" fill="rgb(29.998779%, 29.998779%, 29.998779%)" fill-opacity="1" stroke-width="1.0959" stroke-linecap="butt" stroke-linejoin="miter" stroke="rgb(29.998779%, 29.998779%, 29.998779%)" stroke-opacity="1" stroke-miterlimit="10" d="M 5.345675 0.000637494 L 1.826002 1.274352 L 3.007691 0.00100533 L 1.826385 -1.272283 Z M 5.345675 0.000637494 " transform="matrix(-0.78851, 0.61497, 0.61497, 0.78851, 121.64832, 163.87613)"/>
<path fill-rule="nonzero" fill="rgb(100%, 100%, 100%)" fill-opacity="1" d="M 100.296875 161.183594 L 183.640625 161.183594 L 183.640625 148.574219 L 100.296875 148.574219 Z M 100.296875 161.183594 "/>
<g fill="rgb(29.998779%, 29.998779%, 29.998779%)" fill-opacity="1">
<use xlink:href="#glyph-4-8" x="102.29074" y="157.69754"/>
<use xlink:href="#glyph-4-7" x="105.276543" y="157.69754"/>
<use xlink:href="#glyph-4-9" x="109.257614" y="157.69754"/>
<use xlink:href="#glyph-4-0" x="115.731338" y="157.69754"/>
<use xlink:href="#glyph-4-8" x="119.712409" y="157.69754"/>
<use xlink:href="#glyph-4-10" x="122.698212" y="157.69754"/>
</g>
<g fill="rgb(29.998779%, 29.998779%, 29.998779%)" fill-opacity="1">
<use xlink:href="#glyph-5-2" x="129.42191" y="157.69754"/>
</g>
<g fill="rgb(29.998779%, 29.998779%, 29.998779%)" fill-opacity="1">
<use xlink:href="#glyph-4-11" x="133.8359" y="157.69754"/>
</g>
<g fill="rgb(29.998779%, 29.998779%, 29.998779%)" fill-opacity="1">
<use xlink:href="#glyph-4-5" x="138.319088" y="157.69754"/>
<use xlink:href="#glyph-4-7" x="142.802276" y="157.69754"/>
<use xlink:href="#glyph-4-12" x="146.783347" y="157.69754"/>
<use xlink:href="#glyph-4-2" x="151.266535" y="157.69754"/>
</g>
<g fill="rgb(29.998779%, 29.998779%, 29.998779%)" fill-opacity="1">
<use xlink:href="#glyph-4-6" x="156.000781" y="157.69754"/>
<use xlink:href="#glyph-4-2" x="159.488702" y="157.69754"/>
<use xlink:href="#glyph-4-0" x="161.981354" y="157.69754"/>
<use xlink:href="#glyph-4-2" x="165.962425" y="157.69754"/>
<use xlink:href="#glyph-4-7" x="168.455078" y="157.69754"/>
</g>
<g fill="rgb(29.998779%, 29.998779%, 29.998779%)" fill-opacity="1">
<use xlink:href="#glyph-5-1" x="174.67056" y="157.69754"/>
</g>
<g fill="rgb(29.998779%, 29.998779%, 29.998779%)" fill-opacity="1">
<use xlink:href="#glyph-6-0" x="178.96348" y="153.88854"/>
</g>
<path fill="none" stroke-width="1.0959" stroke-linecap="butt" stroke-linejoin="miter" stroke="rgb(44.999695%, 44.999695%, 44.999695%)" stroke-opacity="1" stroke-miterlimit="10" d="M -0.000095 -39.455553 L -0.000095 35.212416 " transform="matrix(1, 0, 0, -1, 61.48447, 102.58351)"/>
<path fill-rule="nonzero" fill="rgb(44.999695%, 44.999695%, 44.999695%)" fill-opacity="1" stroke-width="1.0959" stroke-linecap="butt" stroke-linejoin="miter" stroke="rgb(44.999695%, 44.999695%, 44.999695%)" stroke-opacity="1" stroke-miterlimit="10" d="M 5.345457 0.000095 L 1.825926 1.273533 L 3.005614 0.000095 L 1.825926 -1.273342 Z M 5.345457 0.000095 " transform="matrix(0, -1, -1, 0, 61.48447, 70.10327)"/>
<path fill-rule="nonzero" fill="rgb(100%, 100%, 100%)" fill-opacity="1" d="M 25.335938 113.484375 L 60.9375 113.484375 L 60.9375 91.683594 L 25.335938 91.683594 Z M 25.335938 113.484375 "/>
<g fill="rgb(29.998779%, 29.998779%, 29.998779%)" fill-opacity="1">
<use xlink:href="#glyph-4-13" x="27.32921" y="99.61184"/>
<use xlink:href="#glyph-4-14" x="32.807666" y="99.61184"/>
</g>
<g fill="rgb(29.998779%, 29.998779%, 29.998779%)" fill-opacity="1">
<use xlink:href="#glyph-4-7" x="41.522983" y="99.61184"/>
<use xlink:href="#glyph-4-8" x="45.504054" y="99.61184"/>
<use xlink:href="#glyph-4-8" x="48.489857" y="99.61184"/>
<use xlink:href="#glyph-4-4" x="51.475661" y="99.61184"/>
<use xlink:href="#glyph-4-8" x="55.958849" y="99.61184"/>
</g>
<g fill="rgb(29.998779%, 29.998779%, 29.998779%)" fill-opacity="1">
<use xlink:href="#glyph-4-15" x="34.05399" y="109.57448"/>
<use xlink:href="#glyph-4-6" x="37.039793" y="109.57448"/>
<use xlink:href="#glyph-4-1" x="40.527713" y="109.57448"/>
<use xlink:href="#glyph-4-4" x="44.508784" y="109.57448"/>
<use xlink:href="#glyph-4-8" x="48.991972" y="109.57448"/>
<use xlink:href="#glyph-4-7" x="51.977776" y="109.57448"/>
<use xlink:href="#glyph-4-16" x="55.958847" y="109.57448"/>
</g>
</svg>
